<svg xmlns="http://www.w3.org/2000/svg" xml:space="preserve" viewBox="0 0 256 256"><path d="m59-218q-18 8-36 19l-40 29-2-5-24-42-17-21-7-8-19 22-2 3a238 238 0 0 0-46 112q-1 21 1 40 7 33 37 50 11 7 27 7h6q13-1 27-7v-1h1l4-1 5 4q15 6 31 5l11-1q30-6 48-32 10-14 17-31 15-37 16-76 1-32-4-63l-4-14z"/><path fill="#F98658" d="m88 20 17 20 24 42 3 5 5 16q9 25 11 52 6 45-27 76l-5 5-4 1 1-2q13-19 17-40 4-22 2-45-2-33-12-66-1-4-5-3-5 2-3 6 14 42 13 86 0 24-11 45-5 11-15 19v-3q9-26 10-54l-2-61-2-11q-1-4-6-3l-1 4q4 39 2 79c-2 20-4 40-16 57h-6l-10-21q-8-29-7-58 1-5-4-5-4 0-4 5 0 30 8 61l2 9-2 2-3-5-14-25q-1-4-6-3-5 2-1 6l12 22 2 5a70 70 0 0 1-36-50q-2-19-1-40t9-42q13-37 37-70l3-3-6 14-10 25q-1 3 2 5 4 1 5-3l2-4 10-23 1 2-9 51-4 36q-1 5 4 5 4 0 4-5l2-26q5-39 15-77l2-4 2 5 11 47q0 5 5 4t3-5l-5-25zm-7 45q-4 0-4 4v135q0 5 4 5t4-4V70zm-39 54-7-3-1 2q-5 27-5 56l3 3q5 1 5-5z"/><path fill="#E2734D" d="m116 236 5-5q33-31 27-76-2-27-11-52l-5-15q20-17 39-30 18-11 36-19l-2 3-29 22q-3 2 0 5 2 3 6 1l10-9 13-9 1 2-20 22-37 50q-2 3 2 6 5 1 6-3 31-46 70-85l4-4 1 1-3 11-16 44c0 3-2 5 2 6q5 2 6-3l1-3 16-47 3-6q5 30 4 62a203 203 0 0 1-33 107 74 74 0 0 1-48 32l-11 1q30-16 47-45 18-28 27-60l7-27q3-4-2-6-5-1-5 5l-1 2q-11 53-43 96a83 83 0 0 1-39 29l-6 1 3-5 15-14q33-43 54-94 2-3-2-5t-6 2l-25 51c-14 25-29 49-55 64zm46-80q6 5 8-3l41-70q5-8-4-8l-2 2-42 73z"/><path fill="#CF5E3E" d="M122 239c26-15 41-39 55-64l25-51q2-4 6-2t2 5q-21 51-54 94l-15 14-3 5 6-1q23-8 39-29 32-43 43-96l1-2q0-6 5-5 5 2 2 6l-7 27q-9 32-27 60-17 29-48 45-15 2-30-6"/><path fill="#E3744D" d="M84 245c12-17 14-37 16-57q2-40-2-79l1-4q5-1 6 3l2 11 2 61q0 28-10 54v3q10-8 15-19 11-21 11-45 1-44-13-86-2-4 3-6 4-1 5 3 10 33 12 66 2 23-2 45t-17 40l-1 2-1 1q-12 6-27 7m14-7q-1 1 0 0"/><path fill="#CF5E3E" d="m241 43-3 6-16 47-1 3q-1 5-6 3c-4-1-2-3-2-6l16-44 3-11-1-1-4 4q-39 39-70 85-1 5-6 3-4-3-2-6l37-50 20-22-1-2-13 9-10 9q-4 3-6-1-3-3 0-5l32-25 1-1 28-10zm-8-4q-1 0 0 0"/><path fill="#E3744D" d="m88 20 9 35 5 25q1 4-3 5-5 1-5-4L83 34l-2-5-2 4q-10 38-15 77l-2 26q0 5-4 5-5 0-4-5l4-36 9-51-1-2-10 23-2 4q-1 5-5 3-3-2-2-5l10-25 6-14 18-22zM51 238l-2-5-12-22q-4-4 1-6 5-1 6 3l14 25 3 5 2-2-2-9q-8-31-8-61 0-5 4-5 5 0 4 5-1 29 7 58l10 20q-14 2-27-6"/></svg>