<svg xmlns="http://www.w3.org/2000/svg" viewBox="0 0 1200 1200"><path fill="#5f9634" d="m664 117 2 1c22 15 45 34 61 55l5 4 10-2a97 97 0 0 1 73 12l2 2q14 9 24 20l2 2q14 12 24 26l1 2 31 47 15 33 3-1q11-3 24 1 19 14 32 35l2 2q37 53 48 117l1 7q3 36-2 71l2-1c9-5 9-5 14-5h2q5 1 9 6l4 7 1 3a278 278 0 0 1 18 66q9 49-4 97l-1 3q-14 56-51 102l-2 3a235 235 0 0 1-53 51q-48 34-108 39c-5 0-5 0-10 3l-2 2-2 3-2 2-4 4-1 2c-27 29-68 49-106 54l-1 208H475l-1-208-16-3a163 163 0 0 1-56-25l-9-5-1-1v-2l-2-1-8-5-2-3-3-2-4-3-13-13v-2q-4-2-10-3h-7q-63-6-113-46l-3-3q-11-7-20-18l-2-2-13-14-2-3a298 298 0 0 1-49-83l-1-4q-9-23-13-49v-2q-5-38 1-76v-2q6-32 19-62l1-2q2-6 8-10 13-2 22 5v-4l-1-3-1-8c-8-58 8-122 42-171l1-2c30-43 30-43 44-48q12-2 22 2l1-2c8-30 26-58 45-82l3-4q8-11 18-21l5-5q22-24 54-30l2-1q22-3 43 4l6 2 4 1 2-2q9-12 21-23l2-2 19-17 3-3 9-7 2-1c38-31 98-36 140-9"/><path fill="#77ad40" d="m291 302 2 1-1 4v3l-1 2-2 1-1 5h-2v2l2 1 6 4 2 1v2h2v2h2l3 4 7 7 11 15 3 1v3l2 1 4 4v3l3 1 6 9 1 6 3 1q3 4 2 7h2l1 6h2l3 6 1 4 1 5h-3v2l-2 1c-18 6-29 22-38 38l-1 2h-2l-1 2-5 9-4 9h-2l-1 4-5 13-6 12-1 2q-13 30-17 61l-1 3c-5 36-6 76 3 111l1 1v8h2v2a213 213 0 0 0 15 43h1l1 3q2 7 6 14l2 4 4 7 1 4h2l1 6h2l2 4 2-2q3-4 5-3v-2q3-4 6-3v-2l7-3 2-1q12-5 26-3h3l33 1 3 1a179 179 0 0 1 55 12 149 149 0 0 1 33 13l25 13 6 3 3 2 3 2 2 1v2h2l8 5v2l5 1v2l2 1 5 2v2h2l5 4v2h2l8 6v2h2v2l2 1 7 5v2l3 1v2l2 1q9 6 13 16l4 6 1 6h2l2 10h2v-2l6-16c8-17 23-30 37-41l3-2c6-5 6-5 8-5l1-2 8-7 23-14 3-2 4-2 36-17 2-1 23-7 15-5q18-5 36-7h4l31-1h3q21-1 39 12v2l2 1 6 5 1 5h2l4 9q6 22-3 43l-2 7-2 5h-2v2q0 5-3 9l-3 7h-2l-4 10-4 9-18 26-7 7-1 3h2l14-1v1h-4c-10 1-10 1-19 6l-8 9-1 2c-27 29-68 49-106 54l-1 208H475l-1-208-16-3a163 163 0 0 1-56-25l-9-5-1-1v-2l-2-1-8-5-2-3-3-2-4-3-13-13v-2q-4-2-10-3h-7q-63-6-113-46l-3-3q-11-7-20-18l-2-2-13-14-2-3a298 298 0 0 1-49-83l-1-4q-9-23-13-49v-2q-5-38 1-76v-2q6-32 19-62l1-2q2-6 8-10 13-2 22 5v-4l-1-3-1-8c-8-58 8-122 42-171l1-2c30-43 30-43 44-48q12-2 22 2l1-2z"/><path fill="#77ad40" d="m815 187 2 2q14 9 24 20l2 2a233 233 0 0 1 36 42l1 2 19 31 15 33 3-1q11-3 24 1 19 14 32 35l2 2q37 53 48 117l1 7c3 20 6 55-4 73h-2v2q-4 4-7 3v2l-1 2-6 2v2h-2v2h-2v2l-3 3-2 2-5 1v2h-2l-2 4h-2v2l-4 3-2 2-4 1v2h-2l-2 4h-2v2h-3l-1 2q-2 4-6 6-5 2-8 8l-2 2h-2v2h-2v2l-6 2v-3c-1-24-1-24-5-49l-1-7-7-31-1-4-8-22-1-3q-10-24-25-47v-3l-3-1-3-4-2-3-2-2-2-3-4-9-3-1v-2h-2l-2-2q-15-14-36-15-22 1-39 16l-2 2-6 6h-3v2h-2v3l-4 4q-5 3-9 8l-1 2h-2v2l-4 4h-2l-1 4h-2v2h-2l-1 2-2 4h-2l-1 2-3 6h-2l-1 2-5 10c-12 17-12 17-20 35l-1 3h-2l-1 3-4 9-10 29-3 8h-2v-3h-2q-4-2-6-5l-3-1v-2l-2-1c-8-3-8-3-10-7q-31-20-68-19h-2a100 100 0 0 0-48 9q-8 3-15 8h-2v2l-6 4-16 12-4 2v2l-3-1-1-4-1-3-1-3q-2-10-7-19l-3-8q-2-7-6-13l-2-5q-13-30-34-53l-2-5h-2v-2h-2l-3-5-10-10-3-3-2-1-4-5c0-15 14-34 22-47l4-7h2v-2l4-6 7-11 1-1h2l1-2 3-5h2l2-5h2v-2h2l2-4h2v-2h2v-2h2v-2h2v-2h2l2-4h2l2-4h2l1-2 6-6 2-2 4-2v-2h3v-2h2l1-3 8-6 7-3v-2l4-3 2-1 5-1v-2h3v-2c25-14 25-14 38-16l3-1 18-1h13v-2l3-6 2-2 1-1h2l1-2 4-5 2-3c27-30 27-30 43-41h2v-2l3-2 3-2 3-2 4-3q18-12 39-22l3-4 2 1 10-2c23-6 52-1 72 12"/><path fill="#5f9634" d="m664 117 2 1c20 13 57 38 65 61l-3 2q-26 11-48 29l-4 1v2l-4 4q-6 3-11 9c-10 9-10 9-13 9l-1 2-5 6-17 19-1 2h-2l-1 2c-4 9-4 9-7 10h-5q-31 0-58 14l-7 3v2h-3v2l-4 3-3 1-4 1v2l-5 3q-6 4-11 9h-2v2h-3v2l-5 4-15 15-1 1h-2v2h-2v2h-2v2h-2v2l-4 4h-2v2h-2l-2 5h-2l-1 2-3 5h-2l-1 2-5 9-6 9h-2l-1 3-4 9c-14 19-14 19-20 40q3 6 8 10l5 5 1 3 3 1q5 4 4 7h2v2h2l3 3 3 5 1 2 27 42 1 2 6 12 1 3 15 46-3 1v2l-4 4-5 4-4 4-8 7-6 7-1 2h-2v2h-2l-1 2q-2 6-7 10l-6 8h-2l-1 2-5 9h-2v2l-5 8-7 12-9 15-5 12-6 13q-8 18-12 36l-5 18h-3l-38-1q-14-1-27 4l-7 2v2q-3 4-6 3v2l-5 5h-3l-1-4h-2l-1-6h-2l-1-3-3-5-4-7-3-6-4-10-3-6-4-10-2-7q-5-12-6-23h-2l-1-6-1-3-1-8q-14-77 10-151l1-2q5-15 12-28l4-11 3-6h2v-2l4-7 1-3 2-3 2-3 1-2h2l1-3q2-5 7-11l1-2q12-18 30-25h2v-2h3l-1-3-1-3-2-3-1-6h-2l-1-6h-2l-1-3-4-5-4-9-6-7-2-4-4-4-1-3-3-3-9-11-5-5-2-4-4-2v-2h-2v-2h-2v-2l-2-1-6-4-2-1v-2h2v-5l3-1v-2q1-12 7-23l2-3a261 261 0 0 1 34-53q8-11 18-21l5-5q22-24 54-30l2-1q22-3 43 4l6 2 4 1 2-2q9-12 21-23l2-2 19-17 3-3 9-7 2-1c38-31 98-36 140-9"/><path fill="#538a2e" d="M600 925h2l1 3q8 33 36 51l10 5c24 11 51 8 76 8v208H475V992h42c32-5 32-5 58-22l4-2 1-2 4-6h2l1-2 4-8q6-12 9-25"/><path fill="#689e39" d="M1043 546q7 5 10 12l1 3a278 278 0 0 1 18 66q9 49-4 97l-1 3q-14 56-51 102l-2 3a235 235 0 0 1-121 83l-2 1q-21 5-43 5l1-4 4-4q4-2 5-6l3-4a222 222 0 0 0 21-37h2l1-2v-3l1-3 3-5 1-5h2v-3l3-10 1-3 3-8 2-14v-2q-1-12-6-22v-2h-2v-2l-1-3-2-1h2l1-2 7-14 9-16q15-32 23-68l1-4 2-15v-3l3-34 6-2v-2h2v-2h2l2-4h2l1-2q2-4 6-6l6-6h3v-2l4-4h2v-2l10-6v-2l4-4h2v-2l5-3 2-2 1-1h2v-2h2v-2h2v-2l6-2v-2q1-3 5-5h3v-2c17-9 17-9 25-7"/><path fill="#77ad40" d="M941 319q19 14 32 35l2 2a270 270 0 0 1 49 124c3 20 6 55-4 73h-2v2q-4 4-7 3v2l-1 2-6 2v2h-2v2h-2v2l-3 3-2 2-5 1v2h-2l-2 4h-2v2l-4 3-2 2-4 1v2h-2l-2 4h-2v2h-3l-1 2q-2 4-6 6-5 3-8 8l-2 2h-2v2h-2v2l-6 2v-3c-1-24-1-24-5-49l-1-7-7-31-1-4-8-22-1-3q-10-24-25-47v-3l-3-1-3-4-2-3-2-2-2-3-4-9-3-1v-2h-2l-2-2q-10-9-22-13 2-9 8-18l1-3 13-21 1-2 22-27 14-14h2v-2c4-4 4-4 8-4l1-3q13-5 26 0"/><path fill="#33691e" d="m664 117 2 1c20 13 57 38 65 61l-3 2q-26 11-48 29l-4 1v2l-4 4q-6 3-11 9c-10 9-10 9-13 9l-1 2-5 6-17 19-1 2h-2l-1 2c-4 9-4 9-7 10l-23 1-4 1q-3 0-5-4l-8-9-1-4h-2l-4-5-10-10-2-2-10-10-4-3-14-12-7-6-22-13v-2h-2l-6-3-2-1-2-1-20-10q3-7 9-12l2-2 6-7 2-2a227 227 0 0 1 37-33l2-1c38-31 98-36 140-9M600 925h2l1 3q8 33 36 51l10 5c24 11 51 8 76 8v48l-1 3h-22q-23 0-45-4h-2q-24-4-45-18l-3-2-2-2h-6l-9 5q-18 13-39 16l-6 1q-22 5-44 4h-12l-14-1v-50h26c26 0 51-4 72-20l2-2 4-2 1-2 4-6h2l1-2 4-8q6-12 9-25"/><path fill="#5e8144" d="m475 1042 3 1-1 157h-2zM725 1042v158h-2l-1-157z"/><path fill="#7da15b" d="M130 612q4 5 1 12v2l-2 8q-2 14-1 28v9q0 15 2 32l1 15h-1a257 257 0 0 1 0-106"/><path fill="#8bb263" d="m192 417 3 2-2 6-3 10-5 16v2l-1 16-2 1-1 3h-2v3q1 4-2 6 2-34 15-65"/><path fill="#82a564" d="M1069 614c14 24 7 71 2 97l-2-2 1-8v-2l2-8v-42l-2-18h-2l1-9z"/><path fill="#6e9b45" d="M171 808h5l-1 7 8 3-1 6 3 1 1 2 3-3 2 1 1 6 1 3-1 7-16-20-1-2c-4-5-4-5-4-9z"/><path fill="#e6f6d4" d="m880 919-33 5-1 3h-2l-1 2-5 6h-2v2h-2l-1 2q-2 5-7 6l-1 3-2 3-7 1 3-3 25-25q3-3 7-3h3l3-1z"/><path fill="#ecfadc" d="M185 432h2l-1 4v3l-2 8-5 21v3l-3 22h-1l2-29q1-17 8-32"/><path fill="#eef7e5" d="m384 185-2 1q-16 10-29 24v-10l2 1 4-1 2-2h2v-2h3v-2l2-4h2l1-4 4 1v-2z"/><path fill="#61983b" d="m659 226 2 3-3 2-8 6-2 2-1 4-3 3-14 14-6 3 14-17 2-2 15-15 2-2z"/><path fill="#6e9b45" d="m1067 707 3 2-2 16-2 6-1 5-4 12h-2v-8l2-2 1-5 3-8q2-6 0-12z"/><path fill="#eef7e5" d="M125 633h2v3a356 356 0 0 0 0 60l-1-2h-2l-1-28v-3l1-18v-11zM590 98h20l13 2v2h-2q-24-2-48 1v-3z"/><path fill="#496e3a" d="M631 103v1h-20l-3-1-27 1-1-3q26-3 51 2"/><path fill="#6e9b45" d="m804 182 12 5 3 2 5 7q-1 4-5 4h-3v-5l2-2-2-2-2 1-5-1-2-1h-2l3-1v-3l-4-1z"/><path fill="#749b4e" d="M204 849q4 2 5 6l5 3h2v2q2 7 8 10l2 1v2l3-1 4 3v3c-12-2-24-19-32-27z"/><path fill="#ecfadc" d="m166 546 3 1 3 1-2 2-2-1h-9l-7 1-2 5-2 4-1 3-7 18h-1l1-9q4-6 4-12 1-4 5-7l2-3q6-5 15-3"/><path fill="#6e9b45" d="M320 249h1v5l-2 1-1 4v4l-3 1 1 8-7-3 1 5-5-1z"/><path fill="#86b05b" d="m757 980 4 1 1 2c-26 8-26 8-38 9l4-5 9 1 1-3v2l3-1 5-1 2-1 8-1z"/><path fill="#769c55" d="M790 176v1h-13l-13-1h-3q-11-1-20 4v-4c15-6 33-3 49 0"/><path fill="#749b4e" d="M132 720q4 3 4 8l1 3v6l2 1 2 6 1 2v9l-3-3-1-4-1-3-1-4-1-4-4-16z"/><path fill="#ecfadc" d="m1013 432 3 1v7h2q5 14 4 29h-1v-2l-2-9-1-4-4-16z"/><path fill="#86b05b" d="M817 948v3l-5 4-2 2-14 9-2-2h2v-2h3v-2h2v-2h2v-5h3l6-3z"/><path fill="#ecfadc" d="M810 184h5l1 3h2q5 1 8 6l3 2 5 5 2 1 3 4v2l-3-2-4-4-3-2-19-14z"/><path fill="#e6f3df" d="m503 144-2 2-20 19-2-2 3-4 2-2 4-4 3-4 4-1v-2c4-3 4-3 8-2"/><path fill="#ecfadc" d="m424 976 2 1 25 9 3 1h2l6 3-9-1-6-2-10-3c-9-2-9-2-13-6z"/><path fill="#82a564" d="m291 302 2 1-1 4v3l-1 2-2 1-1 5h-2l-1 3-3-1q-8-2-16 0h-6q6-4 13-3h4l8 2 1-2z"/><path fill="#ecfadc" d="m542 114-10 7-13 9-3-2 2-1 3-3v-2l12-4v-2c6-3 6-3 9-2"/><path fill="#6e9b45" d="m249 883-2 3 2 1-1 2q-7 0-13-7v-2q8-2 14 3M151 776h6l2 8 2 1v2l-1 5q-7-5-9-14z"/><path fill="#86b54f" d="m243 334 2 3-7 8-1 6-4 1-3-2z"/><path fill="#ecfadc" d="m388 954 4 2v2l11 5 10 7v2l-14-6-2-1q-4-2-6-6l-3-2zM284 310h4l-3 9h-2q-14-3-27 3l-2 1 2-4q8-4 18-4h2l9 1z"/><path fill="#749b4e" d="M1058 574q4 6 6 14l1 3 1 3 1 2-1 8-1-2-3-4-1-7v-6h-3zM140 578h2v2l-2 7v2l-1 4q0 7-5 11v-10l1-3 1-3 1-3z"/><path fill="#ecfadc" d="M175 524h1l2 12v6l1 3v9l-7-3 4-2-1-3v-22"/><path fill="#e6f6d4" d="m130 718 4 9v3l1 3 1 3 2 10h-2l-1-2-1-2-1-3-3-3z"/><path fill="#8bb263" d="M1016 445q3 4 3 9l1 4 1 4v4l2 14h-2v-6l-4-4 1-2-1-9z"/><path fill="#ecfadc" d="M754 172h29l2 3h-2l-23-1-18 2v-2q5-3 12-2"/><path fill="#8bb263" d="m448 985 11 1h7l3 1 4 1v2h2l-1 2-26-6z"/><path fill="#e6f6d4" d="m1049 775 3 2-2 7-3 1v3l-1 3-4 2-2 4-2-1z"/><path fill="#689e39" d="m131 704 3 1v12l2-1-1 7-4-2-1-8v-8z"/><path fill="#ecfadc" d="m1022 542 2 3 1 1 2-2h10c6 0 6 0 8 2l-7 1q-8 0-17 5z"/><path fill="#8eb36a" d="M933 317q11 2 17 11l-9-3v-3q-11-4-24-3 7-4 16-2"/><path fill="#86b54f" d="M184 453v16l-2 1-1 3h-2v3q1 4-2 6l3-17h2v-7z"/><path fill="#ecfadc" d="m477 164 3 2-2 2-3 4-2 1-7 9-7-2h6v-2h2l1-2q1-4 5-5l2-5z"/><path fill="#496e3a" d="M578 103q-10 7-22 7l-1-2 7-2 2-1c11-4 11-4 14-2"/><path fill="#6e9b45" d="M354 920v2h2v2q-10 1-20-2v-1h3l6-1z"/><path fill="#7ab14a" d="M591 945h2l-4 10-2 3-1 2h-2l-1 3h-3l3-5 3-6v-4l2-1 1 2z"/><path fill="#e6f6d4" d="m1070 616 3 2 1 6c0 5 0 5 2 8v10l-1 3v3h-1z"/><path fill="#86b05b" d="M260 320q-1 5-7 9l-1 3-4 2-4-1 6-6 2-2c5-5 5-5 8-5M848 919v2h2l14-1v1h-4c-10 1-10 1-19 6l-2 3v-6h2l1-4z"/><path fill="#ecfadc" d="m340 219 3 2-1 2q-8 8-14 17l-1-4 3-5 2-2z"/><path fill="#749b4e" d="m373 191 1 4-6 4-2 3q-3 3-8 3 6-8 15-14M316 912l4 1v4l7 3q-5 2-11 0l-4-1-3-1v-2l7-3zM1069 614l3 9v2l1 3v3l1 12q-3-3-3-7l-1-3v-2h-2l1-9z"/><path fill="#6e9b45" d="m133 603 3 2v3l-2 1v15h-3l-1 2v-2l1-12q0-5 2-9"/><path fill="#ecfadc" d="m965 879 1 2-1 3-6 1v2h-2v2l-8 3-1 3-4-2 3-2z"/><path fill="#e6f6d4" d="m168 809 11 13 3 5-4 1-2-4h-2v-3h-2l-2-4-1-2z"/><path fill="#6e9b45" d="m148 559 3 2-1 6-2 1q-2 0-3 5l-1 3h-3z"/><path fill="#e6f6d4" d="M1071 704h1q2 14-3 26l-3 1z"/><path fill="#8bb263" d="M207 385v8l-2 1-5 13-1 2h-2v2l-2-1zM429 978q10 0 18 4l1 3-13-4-3-1-3-1z"/><path fill="#6e9b45" d="m275 904 10 2 1-2h2v2l5-1-4 5-14-4z"/><path fill="#749b4e" d="m168 548 10 5v1l-14-2v-2l-4 1h-4l-2-2q6-3 14-1"/><path fill="#eef7e5" d="m314 248 6 1q-1 6-6 10l-2 3-1 2-1-4 2-3 1-5 1-2z"/><path fill="#ecfadc" d="m860 229 8 5v2h2l3 4 2 2 1 7-9-11-1-1z"/><path fill="#86b05b" d="m381 948 8 2v2h3q3 1 5 4v4l-5-2v-2l-2-1q-5-1-9-6z"/><path fill="#e6f6d4" d="m880 919-33 5-1 3-4-1q4-5 9-5h3l3-1z"/><path fill="#ecfadc" d="m981 366 4 2 1 4h2l1 3 4 5c3 7 3 7 2 11z"/><path fill="#689e39" d="m906 308 2 6h3l1 7-4 1v-2l-4-1 1-2v-4z"/><path fill="#ecfadc" d="M753 987c-6 6-15 5-23 5h-4v-1h2q10-1 19-5z"/><path fill="#749b4e" d="M248 890h8l1 2q3 4 7 5v2l4 1-1 2-6-3-4-2-9-6z"/><path fill="#689e39" d="m166 792 2 1-1 7 3 1-3 2q-6-3-7-10l2 1h2z"/><path fill="#e6f6d4" d="M778 976v2q-6 4-12 5l-5 3h-7q4-4 10-5z"/><path fill="#f7feec" d="M1025 496h2c2 15 2 15-1 21h-1z"/><path fill="#749b4e" d="M886 914h7l-9 3-2 1h-3l-3 1-13 1 1-2 4-1h3l2-1h6l2-1zM1065 728v8l-1 2v2l-1 3-2 5h-2c0-8 0-8 3-12z"/><path fill="#8bb263" d="M1007 417q4 6 5 12l1 2 1 3 1 2-1 6q-4-8-6-17l-1-2z"/><path fill="#749b4e" d="m981 863 3 1-12 11h-2l2-6 4-1v-2h2z"/><path fill="#7da15b" d="M853 222q8 5 12 12v2l-3 1-2 3-1-8-1-3-3-1z"/><path fill="#8bb263" d="m363 931 6 2 1 2 3 1 3 5 3 3-2 1zM178 535q3 2 2 5v12l3 1-2 3q-4-2-3-4l-1-2v-14z"/><path fill="#eef7e5" d="M417 172h9l7 1h6l6 2h-25l-10-2q4-3 7-1"/><path fill="#ecfadc" d="m255 895 3 2 5 2 2 1 13 6-1 2q-7-2-14-6l-2-1q-6-3-6-6M232 344l3 1-5 6-1 2-7 8 1-6h2l1-2q1-5 6-9"/><path fill="#e6f6d4" d="M927 315h5l2 1q2 0 5 3h-3l-9-1h-4l-9 2v-4z"/><path fill="#ecfadc" d="m372 941 15 12-3 1v-2h-2q-3 1-5-2l-2-5-4-2z"/><path fill="#e6f6d4" d="M1065 592q6 4 5 10l1 3-1 9h-1l-2-9-1-5-1-2z"/><path fill="#eef7e5" d="m1045 547 7 1 3 9-3 3-1-2-1-3-2-3z"/><path fill="#e6f6d4" d="M944 894v3l-4 2-2 1-4 1v2h-5v-2l6-3 2-2z"/><path fill="#689e39" d="m188 824 3 1 1 10h-2l-5-6z"/><path fill="#e6f6d4" d="m144 763 4 7 1 2 1 3 2 5-4-1-2-4h-1z"/><path fill="#ecfadc" d="M1074 676h1l1 13v7l-3 2zM145 556h1q0 9-3 17l-1 2-2 5h-1q-1-7 3-12l2-6v-4z"/><path fill="#769c55" d="m301 280 4 8-6 1-1 3-2 5h-2z"/><path fill="#61983b" d="m680 210-1 4-5 3q-4 2-6 5h-2l-1 3-3-2 6-5 2-1q5-5 6-4v-2z"/><path fill="#7da15b" d="m415 176-7 2v2h-13l9-4 4-1z"/><path fill="#8bb263" d="M1022 534h1l-2 18q-2-2-2-5v-4l1-4q0-3 2-5"/><path fill="#6e9b45" d="M870 242q5 5 9 11v2l-3 1-1-3-2-1q-3-4-3-10"/><path fill="#3e692c" d="m532 120 2 2-7 6-1 2-5-1q5-5 11-9"/><path fill="#749b4e" d="m181 826 4 1 2 5 3 1v2h2l1 6q-7-6-12-14zM1013 827l3 1-10 13v-6h3l1-2z"/><path fill="#8bb263" d="m832 936-6 8-2 2-5 1 2-4h3l1-6z"/><path fill="#ecfadc" d="M941 318q8 3 13 10l-1 3-4-4-3-3-6-5z"/><path fill="#689e39" d="m818 192 5 2 1 4h-2l-5 3-1-3q0-3 2-5z"/><path fill="#496e3a" d="m519 129 1 4-3 1-5 6-6 3-2-1z"/><path fill="#e6f6d4" d="m185 832 12 13-3 2-2-3-5-6q-2-2-2-6"/><path fill="#8bb263" d="M223 360v5l-1 2-1 2h-2l-1 2-2 5-3-1 3-5 2-3z"/><path fill="#ecfadc" d="m848 216 6 1 3 5 4 5-2 2-4-5-3-3z"/><path fill="#e6f3df" d="m648 105 5 3v2l5 2-1 2-14-6z"/><path fill="#e6f6d4" d="m806 958 2 1q-1 5-6 6l-3 1-1 2h-5l8-7 3-2z"/><path fill="#ecfadc" d="m1053 560 4 3q4 9 4 17l-5-11-1-2z"/><path fill="#8bb263" d="m779 970 7 1-12 7-3-1 4-3z"/><path fill="#689e39" d="m262 896 8 1 4 2-2 2 1 2-5-1-1-2-3-1v-2z"/><path fill="#e6f6d4" d="m206 856 12 12h-5l-1-2-3-4-2-1z"/><path fill="#749b4e" d="M1038 546h2q3-1 6 3l-12 1v-2h-5q4-2 9-2"/><path fill="#8bb263" d="M969 350q7 6 11 15-5-2-8-7h-2zM243 334l2 3-3 5-5 1v2l-2-1z"/><path fill="#ecfadc" d="M401 176h4l-13 5-5 2-1-2 5-2z"/><path fill="#e6f3df" d="m691 134 1 2 3-1 4 3h-2v2l2 1-2 2-7-6zM516 130l2 1-13 11-2-2 4-2v-2l5-2v-2z"/><path fill="#eef7e5" d="M568 104v1l-3 1-3 1-13 4 2-4q9-4 17-3"/><path fill="#7ab14a" d="m672 986-1 4c-7 0-7 0-11-2v-1l5-1 3-1z"/><path fill="#e6f6d4" d="m218 868 14 11-2 1-7-6h-4z"/><path fill="#ecfadc" d="m197 846 9 10-7-2-2-2-1-1z"/><path fill="#eef7e5" d="M181 445h1l-1 12h-2v6h-1q0-10 3-18"/><path fill="#8bb263" d="M982 368c8 9 8 9 8 14l-4-1-2-5-2-2z"/><path fill="#689e39" d="m883 263 4 3v4l-4 2q-2-3-2-7h2z"/><path fill="#5f9634" d="m694 199 2 1c-9 8-9 8-14 10l-2-1 6-4 2-2z"/><path fill="#e6f3df" d="M574 99h8l2 1h6v1l-17 2z"/><path fill="#e6f6d4" d="M793 968q-2 5-8 7l-7 1 9-6 2-1z"/><path fill="#7da15b" d="m1028 807 2 1q-1 6-6 11l-2 3-2 2-1-2 3-5 4-6z"/><path fill="#86b54f" d="m1012 439 4 3 1 9v3l1 6-2-1-1-6-3-11z"/><path fill="#ecfadc" d="m191 416 2 1-5 15h-1c-1-9-1-9 1-12h2z"/><path fill="#e6f3df" d="m725 170 7 2v4h7l-5 2q-6-2-9-8"/><path fill="#3e692c" d="m719 164 9 10-2 1-6-4z"/><path fill="#ecfadc" d="m928 902-1 4-5 2h-3l-4 1v-2l5-2 3-2z"/><path fill="#749b4e" d="m142 757 4 1 1 2 2 1-1 9-4-8-1-3z"/><path fill="#82a564" d="m1062 586 4 8 1 2-1 8q-4-8-4-18"/><path fill="#ecfadc" d="M1007 416q4 1 5 5 3 5 1 11l-4-10-1-4zM824 944l2 1-3 6-7 1z"/><path fill="#3e7418" d="M600 925h2l2 9-4-1v3h-2z"/><path fill="#7da15b" d="m940 892 2 3-14 7 1-3 6-2v-2z"/><path fill="#e6f3df" d="m152 781 5 7 1 2 1 2-1 2-5-3 1-6h-2z"/><path fill="#7da15b" d="m915 907-9 4-3 1h-7l4-1 6-3zM1048 772l3 1-7 14h-1v-6h2z"/><path fill="#689e39" d="m141 576 3 1v2l-1 3-1 3v5l-3 1z"/><path fill="#5f9634" d="M622 264h2q-1 5-5 8v3h-3l3-8 2-2zm-8 11 2 1-5 1z"/><path fill="#ecfadc" d="M716 160q5 0 6 2l1 2 3 3-2 3-4-4-2-3zM360 929l12 12-5-2v-2l-2-1-5-5z"/><path fill="#496e3a" d="m707 152 10 10-3 1-2-2-5-5z"/><path fill="#689e39" d="m244 881 5 1-2 4 2 1-1 2h-3l-2-6z"/><path fill="#e6f6d4" d="m983 864-2 6-5 2-1 3-6 2z"/><path fill="#ecfadc" d="m220 361 2 2-7 10v-6z"/><path fill="#7da15b" d="m339 224 2 4-1 1-2 2-2 1-4 4q0-5 4-8l1-2z"/><path fill="#8bb263" d="m408 967 10 4 3 1 2 1-2 2-13-7z"/><path fill="#749b4e" d="m997 846 4 1-9 9-1-3 3-4 2-2z"/><path fill="#689e39" d="m172 553 7 1 2 1 1 3-3 2-3-1 1-4h-5z"/><path fill="#7ab14a" d="m602 923 3 1 1 8-2 2z"/><path fill="#6e9b45" d="m292 911 13 1-1 2c-9 0-9 0-12-2z"/><path fill="#ecfadc" d="m1007 839 1 4-5 5-3-1z"/><path fill="#689e39" d="m155 776 3 1 1 7-4-1-1-6z"/><path fill="#e6f6d4" d="M133 594h2l-3 14-2-7 1-2 1-3z"/><path fill="#7da15b" d="m311 263 2 3-2 3h-2l1 5-5-1z"/><path fill="#eef7e5" d="M709 151c7 4 7 4 8 7l-2 2-7-7z"/><path fill="#3e692c" d="M699 145q6 3 8 9l-6-2-3-5z"/><path fill="#496e3a" d="M673 124q6 3 11 8h-4l-1-2h-2q-3-2-5-5z"/><path fill="#8bb263" d="m757 980 4 1 1 2-10 3v-2h2l2-1z"/><path fill="#86b54f" d="m380 944 6 1-1 3 3 1-4 1-6-4z"/><path fill="#8bb263" d="M357 922h2v2h3l1 7-3-2v-2l-4-2z"/><path fill="#6e9b45" d="m941 889 1 2h5l-3 3-8-1q2-3 5-4"/><path fill="#e6f6d4" d="M1063 739h1c1 8 1 8-2 12l-2 1z"/><path fill="#eef7e5" d="M1076 632v10l-1 3v3h-1v-11q-1-3 2-5"/><path fill="#689d32" d="M132 615h2v9h-3l-1 2z"/><path fill="#ecfadc" d="m252 321 2 3-7 6-1-2zM303 272l3 1-5 10-2-5h2v-2z"/><path fill="#689d32" d="m856 230 4 2v5l-4 1z"/><path fill="#eef7e5" d="m345 208 7 2-5 5-3-6z"/><path fill="#3e692c" d="M689 138q6 2 10 6l-2 2c-7-4-7-4-8-8"/><path fill="#e6f6d4" d="m991 856 1 4-5 4-3-1z"/><path fill="#749b4e" d="m1055 757 2 1-4 10-2-3z"/><path fill="#538a2e" d="M702 556v8h-2v4h-2z"/><path fill="#f7feec" d="m242 328 5 2-5 5-2-5z"/><path fill="#ecfadc" d="M841 927h3q-1 5-6 8l-1-2z"/><path fill="#689d32" d="m352 919 1 4-10-1v-2z"/><path fill="#7da15b" d="m193 841 5 1 4 7h-3l-3-4-2-2z"/><path fill="#e6f6d4" d="m1013 432 3 1 1 12q-4-6-4-13"/><path fill="#ecfadc" d="M964 342h3l4 5-1 4-3-3-2-2z"/><path fill="#e6f6d4" d="m403 965 10 5v2l-10-5z"/><path fill="#ecfadc" d="M815 952v5l-5 2-2-2zM297 914l12 3v1h-8q-3 1-5-2z"/><path fill="#82a564" d="m135 592 2 1-2 11-2-1z"/><path fill="#749b4e" d="m1030 549-3 2-5 4-4-2 4-3 3-1z"/><path fill="#7da15b" d="M162 548h3q3-1 5 2h-8l-6 1-2-2z"/><path fill="#86b05b" d="M942 322q6 2 8 6l-9-3z"/><path fill="#e6f6d4" d="M284 310h4l-3 9-3-1h2z"/><path fill="#7da15b" d="m791 177 13 4q-5 2-11-1z"/><path fill="#496e3a" d="m487 158 2 1-1 3h-2l-4 5-3-1z"/><path fill="#3e692c" d="M629 104q6 0 11 3l-1 2q-6 0-10-5"/><path fill="#ecfadc" d="M767 982q-6 4-13 4 6-5 13-4M914 908l-2 4h-8q4-4 10-4"/><path fill="#e6f6d4" d="M1031 807q2 4-1 7l-2 3-2-2z"/><path fill="#92b763" d="m1002 405 4 8v2l1 2c-5-5-5-5-5-9z"/><path fill="#77ad40" d="m205 393 2 2-1 3-2-1zm-2 4 2 4h-2l-1 3-1-4z"/><path fill="#e6f6d4" d="m211 373 3 2-5 9h-1v-5h2z"/><path fill="#8bb263" d="m963 342 6 8h-2v-2l-3 1-2-6z"/><path fill="#ecfadc" d="M910 306q4 2 4 6v3l-2 1-3-9z"/><path fill="#689e39" d="M862 236h4l1 8-4-6-2 1zM659 226l2 3-7 5v-4z"/><path fill="#6e9b45" d="M841 211q4 1 6 5l-3 1-4-3z"/><path fill="#749b4e" d="M833 203q4 2 7 6l-7-1z"/><path fill="#7da15b" d="m384 184 2 1c-4 5-4 5-8 5h-2q3-4 8-6"/><path fill="#689e39" d="m722 183 2 1-6 5-4-1z"/><path fill="#496e3a" d="m471 175 1 4-4 4h-2q1-5 5-8"/><path fill="#80b342" d="M416 966h3v3l2 1 1 2-6-1z"/><path fill="#eef7e5" d="m395 963 8 1 1 4z"/><path fill="#82a564" d="m257 896 7 1v2l4 1-1 2-10-5z"/><path fill="#def0cf" d="m965 879 1 2-1 3-7 1z"/><path fill="#e6f6d4" d="m999 848 1 4-6 4-2-1z"/><path fill="#749b4e" d="m151 776 3 1 2 5v2l1 2-2 1-2-4-1-3z"/><path fill="#ecfadc" d="M125 633h2l-1 15h-1l-1-7v-7z"/><path fill="#eef7e5" d="m1065 592 4 4v6h-2z"/><path fill="#e6f6d4" d="M179 548v6l-7-3q3-3 7-3"/><path fill="#8bb263" d="m227 354 3 2-2 4h-4z"/><path fill="#96bc6d" d="M955 334q6 3 8 8h-4v-2l-1-2-3-1z"/><path fill="#749b4e" d="M907 306q4 3 4 8h-3z"/><path fill="#ecfadc" d="m885 262 6 4v6q-4-4-6-10"/><path fill="#7da15b" d="m396 181-3 1-1 3-6-1q4-4 10-3"/><path fill="#749b4e" d="m454 178 7 2v2l-4 1-3-2z"/><path fill="#e6f6d4" d="m414 971 9 4h-8z"/><path fill="#def0cf" d="m898 914-1 4-1-2-2 1h-3l-2-2c7-2 7-2 9-1"/><path fill="#7da15b" d="M926 902q-4 4-10 5l-1-2q6-3 11-3"/><path fill="#f7feec" d="m971 876 3 2-8 3 2-4z"/><path fill="#78a451" d="M240 882h3l2 6q-6-2-6-4z"/><path fill="#e6f6d4" d="m1037 797 1 4-4 7-2-1z"/><path fill="#eef7e5" d="m238 336 3 1-5 7-1-4z"/><path fill="#7da15b" d="m870 242 5 5v3l-4-2z"/><path fill="#ecfadc" d="m323 240 4 1-6 8v-6z"/><path fill="#749b4e" d="m860 233 5 1v2l-3 1-2 3z"/><path fill="#759f47" d="M344 219v5l-4 3q1-5 4-8"/><path fill="#7da15b" d="M822 193q6 2 8 7l-2 1v-2h-2l-3-4z"/><path fill="#496e3a" d="m501 145 1 4h-2v2h-5zM532 120l2 2-6 4-2-2z"/><path fill="#eef7e5" d="M522 121h2v3h-2l-1 2-1-3zm-2 5 1 3-3 1-2-2z"/><path fill="#e6f3df" d="m660 113 7 3 1 4-9-5z"/><path fill="#7ab14a" d="m611 944 3 2-1 3 1 3-3-1-1-6z"/><path fill="#ecfadc" d="m935 898 1 3h-2v2h-5v-2z"/><path fill="#eef7e5" d="m1049 775 3 2-2 7h-2z"/><path fill="#e6f6d4" d="m140 754 3 3v2l1 2v2l-4-1z"/><path fill="#7da15b" d="M144 567h1l-1 9h-3zM1046 549q4 3 5 8h-3z"/><path fill="#ecfadc" d="m1000 400 3 1 3 7-2 2z"/><path fill="#def0cf" d="M796 178h9l1 4-10-3z"/><path fill="#7da15b" d="M740 178v2h-8v-2z"/><path fill="#f7feec" d="m456 176 7 1 2 3-7-1z"/><path fill="#e0eed6" d="M700 141q4 3 4 8l-6-5z"/><path fill="#7ab14a" d="m576 970-4 4-3-1 1-3z"/><path fill="#8bb263" d="m812 955-8 5v-4c5-2 5-2 8-1"/><path fill="#689d32" d="m318 912 2 1-1 3-7-1q3-4 6-3"/><path fill="#e6f6d4" d="m278 907 10 3v1l-9-1z"/><path fill="#749b4e" d="m988 856 3 1-7 6q1-5 4-7"/><path fill="#689e39" d="M149 765h4l-2 5-3 1v-5z"/><path fill="#e6f6d4" d="M1059 752h1v7l-4 1z"/><path fill="#689e39" d="m140 739 3 3v2l1 2v2l-2 1q-2-5-2-10"/><path fill="#7ab14a" d="M187 440h3v7l-4-2z"/><path fill="#96bc6d" d="m1007 417 4 10h-2q-2-4-2-10"/><path fill="#f7feec" d="m958 329 2 1-2 5-4-4 2-1 2 1z"/><path fill="#689e39" d="M898 288q2 3 3 7h-4z"/><path fill="#78a451" d="m349 213 3 2-2 3h-5z"/><path fill="#d6e8c8" d="m784 173 1 2-12-1v-1z"/><path fill="#e6f3df" d="M564 104h4v1l-11 2v-2z"/><path fill="#3e7418" d="m566 978 2 1-6 4-2-2q3-4 6-3"/><path fill="#417620" d="M584 960h2l-1 2-2 5-4-1z"/><path fill="#96bc6d" d="m381 948 8 2-2 4-6-5z"/><path fill="#ecfadc" d="m234 881 6 4-4 1-2-2zm-2 4h2l-1 2z"/><path fill="#6e9b45" d="m228 872 5 3v3l-4-1zM160 793h3v4h2v3l-3-1z"/><path fill="#689e39" d="m162 550-8 4v-4z"/><path fill="#8bb263" d="M212 377h2l-2 7h-3z"/><path fill="#8eb36a" d="M217 368v6l-1 2-3-1z"/><path fill="#ecfadc" d="M971 351h3l2 6-1 2zM308 265l2 1-3 6-1-3-2-1z"/><path fill="#7da15b" d="m327 240 1 2-6 7q0-5 5-9"/><path fill="#689e39" d="M732 180h6v3l-5 1z"/></svg>