<svg xmlns="http://www.w3.org/2000/svg" xml:space="preserve" viewBox="0 0 512 512"><path fill="#1F1A3D" d="M339 151.3c15.4 6 26.7 16 30.5 32.9.8 3.3 2.9 4.3 5.8 5.2a49 49 0 0 1 33.9 41.1 48 48 0 0 1-31.3 51.7q-.6.3-2 1.4 3.5 4.4 6.6 8.6a53 53 0 0 1-6.3 63.2A46 46 0 0 1 346 370c-3.2.3-4.6 1.3-5 4.7a49 49 0 0 1-34.7 42.3 7 7 0 0 0-3.6 4c-8.8 28.4-44.7 42-69.3 27-6.7-4.2-13.5-5-20.8-6.3a46 46 0 0 1-37.3-33.4 22 22 0 0 0-7.4-11.3 46 46 0 0 1-15.5-28.3c-.6-3.2-1.9-4.9-5-6-18.2-6.8-27.1-21-30.2-39.5a45 45 0 0 1 7.6-34.6c2.2-3 1.6-4.6-1.4-6.7a44 44 0 0 1-18.8-43.1c2.2-21 12.5-36.7 33.4-43.7q5-1.4 10.3-2c2.3-.3 3.3-1 3.1-3.8a46 46 0 0 1 18.9-39.9l4.5-2.4c18.2-11.2 40.7-10.6 56 3.6 1.2 1.2 3.9 1.4 5.7 1a47 47 0 0 1 45.1 14c1 .9 1.3 2.2 2.2 3.9 8.6-12.2 19-19 32-20 7.7-.5 15.5 1.2 23.2 2M195 263.6c9.6-4.2 10.5-16.4 6-23-4.7-7-15.5-8.5-22.4-2.8-5.4 4.4-7 12.5-3.7 19 3.4 6.8 10.7 9.4 20 6.8M324.6 170q-1.6 1.6-3 3.3a16 16 0 0 0 .8 18.3 16 16 0 0 0 16.7 5c6.2-2 10.2-7 10.5-13.8.2-5.6-1.6-10.6-6.6-13.7q-8.9-5.5-18.4.9m32.7 79.6q2.2.3 4.5.4c8.7 0 15-6.6 15-15.3-.1-8.7-6.5-15.2-15.2-15.2-7.6 0-13.4 4.7-15 12-1.7 8 1.9 14.3 10.7 18m-179-88.8q-1.5 1.7-2.9 3.5a16 16 0 0 0 1.5 18.6c4.5 5 12 6.3 18.3 3.4 6-2.9 9.2-9.2 8.1-16.2-1.7-11.7-13.4-16.4-25-9.3m15.4 194.4q-1.6.4-2.8 1c-6.8 3.3-9.8 10.3-8 18 1.8 7 8 11.4 15.9 11 7.2-.4 12.6-5.3 13.9-12.7 1.8-10.9-6.1-18.5-19-17.3m55.5-23c8.9-1.7 13.8-7.5 13.4-15.8a14.6 14.6 0 0 0-13.2-14.4c-9.4-1-16.5 4.7-17.2 13.8-.8 9.6 5.6 16.1 17 16.4m116-12.9q-2.7-11.9-13.9-12.5c-7-.5-13 3.2-15.2 9.6a15.2 15.2 0 0 0 20.5 19.5c6.8-3 9.2-8.6 8.6-16.6m-68.7-70.9c-4.7-7.8-12.7-10.6-20.4-7.2-6.9 3.1-10.2 11.1-7.9 19 2.2 7 9.3 11.2 17.4 10 9.5-1.5 14.2-10.3 10.9-21.8m-11.7 141.8c2.8.3 5.6 1.1 8.3.9 7.6-.7 13-7.2 12.9-15.2s-5.5-14.1-13.2-15c-7.7-.7-14 3-16.3 9.5-2.7 7.9 0 15 8.3 19.8M244.4 171q-1.7-1-3.6-1.6c-6.2-1.9-13 0-16.6 4.9q-5.9 8.2-1.3 17.3c2.6 5.3 8.5 8.2 15 7.5 6.2-.7 10.8-3.9 12.5-10 2-6.8.7-13-6-18.1m-91 47.4-1.5-2a16 16 0 0 0-19.3-2.4c-6 3.6-8.5 11.2-6.1 18.4 2 6.5 8.1 10.3 15.5 9.9 11.5-.7 17-11.7 11.4-24M150 332.2h3c8.8-.4 14.6-6.9 14.2-15.9a14.6 14.6 0 0 0-15.3-14.4c-7.7 0-13.6 5-14.7 12.3-1.4 8.9 2.9 15.2 12.8 18"/><path fill="#8CC63F" d="M339.3 151.2c-8.1-.6-16-2.3-23.6-1.7q-19.3 1.5-32 19.9c-.9-1.7-1.3-3-2.2-4a47 47 0 0 0-45-13.9c-1.9.4-4.6.2-5.9-1-15.2-14.2-37.7-14.8-56-3.6q-1.7 1.1-4.2 2.2c-9.8-7.2-19.7-14-28.5-22a58 58 0 0 1-16.2-25.4l69.8 17.8a95 95 0 0 1 .7-60.4c23.5 16.3 45.9 32.5 60.5 57.5 14.6-24.6 36.9-41 60.6-57.6a97 97 0 0 1 .8 60.6l70.4-18.2c-10.5 23.6-28 38.1-49.2 49.8"/><path fill="#6F6E9F" d="M194.5 263.8c-9 2.5-16.3-.1-19.7-6.8a16 16 0 0 1 3.7-19c6.9-5.8 17.7-4.4 22.5 2.7 4.4 6.6 3.5 18.8-6.5 23.1m130.4-94q9.2-6 18.1-.7c5 3.1 6.8 8 6.6 13.7a14 14 0 0 1-10.5 13.7c-6.1 1.8-13-.2-16.7-4.9-4-5-4.3-12.8-.8-18.3q1.3-1.7 3.3-3.5m32 79.7c-8.4-3.7-12-10-10.3-18 1.6-7.3 7.4-12 15-12 8.7 0 15 6.5 15.1 15.2s-6.2 15.2-15 15.3q-2-.1-4.7-.5m-178.4-89c11.3-6.9 23-2.2 24.7 9.5 1 7-2 13.3-8 16.2-6.4 3-14 1.5-18.4-3.4a16 16 0 0 1-1.5-18.6q1.3-1.8 3.2-3.7M194 355c12.6-1.1 20.5 6.5 18.7 17.4a14.5 14.5 0 0 1-14 12.7c-7.8.4-14-4-15.7-11-2-7.7 1.1-14.7 7.9-18q1.2-.6 3.1-1.1m54.8-22.9c-11-.3-17.4-6.8-16.6-16.4.7-9.1 7.8-14.8 17.2-13.8 7.5.8 12.7 6.6 13.2 14.4.4 8.3-4.5 14.1-13.8 15.8m116.4-12.5c.6 7.6-1.8 13.2-8.6 16.2a15.2 15.2 0 0 1-20.5-19.6c2.2-6.3 8.2-10 15.2-9.5q11.2.5 14 13m-68.7-71c3.2 11.1-1.5 19.9-11 21.3-8.1 1.3-15.2-2.8-17.4-10-2.3-7.8 1-15.8 8-18.9 7.6-3.4 15.6-.6 20.4 7.6M284.4 390c-7.9-4.8-10.6-11.8-7.9-19.7 2.3-6.5 8.6-10.2 16.3-9.4s13.1 7 13.2 15-5.3 14.4-13 15c-2.6.3-5.4-.5-8.6-1m-39.7-218.8c6.4 4.8 7.8 11 5.7 18-1.7 6-6.3 9.2-12.4 9.9-6.6.7-12.5-2.2-15.1-7.5q-4.7-9 1.3-17.4c3.5-4.8 10.4-6.7 16.6-4.8q1.8.5 4 1.8m-91.2 47.5c5.4 12-.1 22.9-11.6 23.6-7.4.4-13.4-3.4-15.5-9.9-2.4-7.2.2-14.8 6.1-18.4a16 16 0 0 1 19.3 2.4q.8.9 1.7 2.3M149.5 332c-9.5-2.7-13.8-9-12.4-18 1-7.2 7-12.2 14.7-12.2 8.7 0 15 5.9 15.3 14.4.4 9-5.4 15.5-14.2 16z"/></svg>