<svg xmlns="http://www.w3.org/2000/svg" xml:space="preserve" viewBox="0 0 512 512"><path d="M355 513m106-167v-2h1v-3h1v-3h1v-3l1-1v-3l1-1v-4l1-1 1-9 1-1v-5l1-1 2-26h1v-2l-1-27-2-7-1-4v-1l-1-2v-1l-1-2v-1l-1-2v-1l-1-1v-1l-5-8q-8-11-21-16-32-10-61 6-20 12-36 28-15 15-34 28-30 16-54-6a124 124 0 0 1-42-96l1-11-2-19-7-23a78 78 0 0 0-40-41q-15-6-31-3-20 2-34 15a185 185 0 0 0-50 134l3 20 20 69q6 18 14 34 11 19 24 36 15 20 35 33 25 16 53 23 28 9 58 10l53-2 40-8q27-6 51-22l24-17q13-11 23-24 7-10 13-24z"/><path fill="#FBD092" d="M213 168q0 20 6 38 10 34 36 57 24 23 54 6 19-13 34-28 16-16 36-28 29-17 61-5l-1 3q-3 30-15 60-16 35-46 60l-20 15q-6 1-9 5l-27 12q-18 3-35 0-6 0-7 7l2 7-38 5q6-12-6-13l-31-6q-5 0-7 6 0 5 4 9l-10-2-28-9q4-5 4-9-1-4-6-6-16-6-30-19l-7-9q-3-5-10-1-5 3-2 8l16 18 10 8-7-2-18-8-1-1-1-1q-21-21-34-47-17-36-27-75l-3-5q-3-42 14-79 13-30 36-54 14-13 34-15a57 57 0 0 1 46 12q17 13 25 33l-1 14q0 18 6 36zM82 147l-1 12q-2 12 4 23 3 5 9 2 5-5 2-11-2-9-1-17 2-20 11-37 2-6-3-9-6-3-9 2-9 17-12 35m-18 64v8q0 14 7 25 4 6 10 3t2-10q-8-13-5-28 1-6-5-8-6 0-8 5zm279 39-7 3q-7 10-18 15-6 3-3 9t9 3q14-6 22-18 5-7-3-12m-189 50q-7-4-9-12t-8-7-5 9q2 14 14 21 6 4 11 0 5-5-3-11m-42-119 2 6q2 5 9 4 4-3 4-9l-3-20q0-7-6-7l-7 5-1 5zm-7 123q5 3 8-2 2-4 1-7l-10-20q-4-5-9-2-4 3-3 7 5 12 13 24m55-146q-7 3-5 8l13 22q4 5 9 1 5-5 1-9l-10-18q-2-4-8-4m56 72 1-6-4-19q-2-7-8-7-7 2-6 9l5 19q2 10 12 4m-110-10-3 5 6 24q2 6 9 3 5-3 3-8l-4-17c-1-7-2-8-11-7m37 2q-3-4-8-2l-4 7q3 12 9 22 3 4 8 1 5-2 3-8zm67 110-17-7q-7-4-10 1-3 7 3 10l17 8q6 3 9-3zm93-25 9-2q7-1 6-8-1-6-9-6l-17 3q-6 2-7 8 1 6 9 6zm-54 18q-7-2-9 4-2 7 5 9l18 3q8 0 9-7-1-6-9-7zm-7-22 13 5q5 1 8-4 3-6-2-8l-22-7q-5 0-5 5 0 7 8 9m137-49q-7-1-9 6l-4 14q-2 7 3 9 7 2 10-5l5-15q1-6-5-9m-149 8-14-8q-7-3-9 3-3 5 2 9l13 6q5 3 8-2zm115 54-1-8q-4-4-9 0l-9 2q-5 1-6 7 1 7 7 7 11 0 18-8m-149-15q5 5 10-1 4-6-2-10l-8-7q-4-1-8 1-4 4-1 9zm-29-77q0 10 7 16 5 6 10 1 5-4 0-10l-4-6q-5-10-13-1m91 46q-6-4-10 1-3 6 3 11l6 4q7 3 11-1 3-6-4-11zm158-30 3-6-1-8q-5-3-8-1-4 4-6 9t3 8 9-2m-32 1q3-9-2-10-7-1-13 2l-2 6 4 5zm23 25q-5-3-8 2-4 5 0 10l8 2q5-2 4-8zm-31 40q2 4 6 1 2-2 1-5l-4-3z"/><path fill="#F3C381" d="m115 346 1 1q18 19 41 29 50 23 105 23 31 0 61-6c40-9 77-25 106-56q19-20 26-47l9-55 2-3 1 2 1 3 1 3 1 3 3 12v28l-3 26v1l-1 5v1l-2 10-1 4v1l-1 3v1l-1 3-1 3-1 3-1 2v2l-13 23q-10 13-23 24l-24 17q-24 16-51 22l-40 8-53 2q-30-1-58-10-28-7-53-23-20-13-35-33-13-17-24-36-8-16-14-34l-20-69-3-21 3 5q10 39 27 75a169 169 0 0 0 35 48"/><path fill="#F9D8AC" d="m466 232-2 3-9 55q-7 27-26 47c-29 31-66 47-106 56q-30 6-61 6-55 0-105-23-23-10-41-29l18 8 7 2 25 10 28 9 10 2 12 2 28 2 38-5 9 1 29-2q9-1 5-11l-2-2 26-11q-1 6 6 8 16 2 28-10 4-6-2-10-5-1-9 1l-14 5 20-15q30-25 46-60 12-30 15-60l1-3q13 4 21 15z"/><path fill="#F4C582" d="m213 168-3-3q-6-18-6-36l1-14 7 22 2 19z"/><path fill="#F8D5A2" d="m467 325 2-9zm2-10 1-5z"/><path fill="#F9D8AC" d="m471 248-1-5z"/><path fill="#F8D5A2" d="m466 330 1-4zm-1 4 1-3zm-3 10 1-3zm1-3 1-3zm1-3 1-3z"/><path fill="#F9D8AC" d="m468 237-1-3zm1 3-1-3zm1 3-1-3zm-3-9-1-2z"/><path fill="#F8D5A2" d="m461 346 1-2zm0 2v-2zm12-66-1 1z"/><path fill="#F4C484" d="M82 147q3-18 12-35 3-5 9-2 5 3 3 9-9 17-11 37-1 8 1 17 3 6-2 11-6 3-9-2-6-11-4-23z"/><path fill="#EFB771" d="m166 367-25-10-10-8-16-18q-3-5 2-8 7-4 10 1l7 9q14 13 30 19 5 2 6 6 0 4-4 9M64 211l1-5q2-5 8-5 6 2 5 8-3 16 5 28 4 7-2 10t-10-3q-7-11-7-25zm180 171-28-2-11-2q-6-4-5-9 2-6 7-6l31 6q12 1 6 13m78-19 3 2q4 10-5 11l-29 2-8-1q-3-4-3-7 1-7 7-7 18 3 35 0"/><path fill="#F4C484" d="M344 250q7 5 2 12-8 12-22 18-6 3-9-3t3-9q11-5 18-15 2-2 8-3m-189 50q6 6 2 11-5 4-11 0-12-8-14-21-1-7 5-9 6-1 8 7 1 8 10 12"/><path fill="#EFB771" d="m358 346 14-5q4-2 9-1 6 4 2 10-12 12-28 10-7-1-6-9 3-4 9-5M112 180l-2-15 1-5q3-4 7-5 6 1 6 7l3 20q0 6-4 9-7 1-9-4zm-7 124q-8-12-13-24-1-4 3-7 5-3 9 2l10 20q1 4-1 7-3 5-8 2"/><path fill="#F4C484" d="M160 158q6 0 8 4l10 18q4 5-1 9t-9-1l-13-22q-2-6 5-8m56 73q-10 5-12-5l-5-19q-1-7 6-9 6 0 8 7l4 19zm-109-12q10-1 10 8l4 17q2 5-3 8-7 3-9-3l-6-24zm37 4 7 19q2 6-3 8-5 3-8-1-6-10-9-22l4-7q5-2 9 3m67 109 1 9q-3 6-9 3l-17-8q-6-3-3-10 4-5 10-1zm92-25-9 1q-8 0-9-6 0-6 7-8l17-3q7 0 9 6 1 7-6 8z"/><path fill="#EFB771" d="m249 325 14 2q8 1 9 7-1 7-9 7l-18-3q-7-2-5-9 2-6 9-4"/><path fill="#F4C484" d="M241 303q-7-2-7-9 0-5 5-5l22 7q5 2 2 8-2 5-8 4zm138-49q6 3 5 9l-5 15q-3 7-10 5-5-2-3-9l4-14q2-7 9-6m-148 9-1 7q-3 5-8 2l-13-6q-5-4-2-9 2-6 9-3zm114 54q-7 6-18 7-6 0-7-7 1-6 6-7l9-2q5-4 9 0zm-150-16-8-8q-3-5 1-9 4-2 8-1l8 7q6 4 2 10-5 6-11 1m-28-77q8-8 13 1l4 6q5 6 0 10-5 5-10-1-7-7-7-16m91 46 6 4q7 5 4 11-4 4-11 1l-6-4q-6-5-3-11 4-5 10-1m158-30q-4 5-9 2-5-2-3-8 1-5 6-9 3-2 8 1l1 8zm-32 1-13 3-4-5 2-6q7-3 13-2 5 1 2 10m24 25 2 6q1 6-4 8l-8-2q-4-5 0-10 3-5 8-2z"/><path fill="#EFB771" d="m376 305 3-6 4 3q1 3-1 5-4 3-6-2"/></svg>