<svg xmlns="http://www.w3.org/2000/svg" xml:space="preserve" viewBox="0 0 256 256"><path d="M148 257m39-206-1-2-1-1-1-1v-1l-8-11q-14-21-38-13-13 5-27-2-9-5-8 4 0 16-12 24-11 8-12 23l1 10q7 26 27 46c12 12 38 11 44-9q4-8 13-8l15-1c10-2 20-14 18-29zM32 145l-6 20q-4 16-5 34c0 22 20 33 39 26q7-3 12 2 11 12 26 10c8 0 21-8 24-17l7-29 7 11 7 8 17 14q18 16 40 2 11-9 26-4l5-1 1-5q-5-15 6-27 6-8 6-17-1-16-12-29l-1-2-2-2q-13-14-30-24c-16-7-35 3-37 19-1 9-2 13-15 14l-11 4-7 6q-5-11-14-14-15-5-20-19-3-6-11-2l-4 3q-8 7-18 5c-10-2-24 4-30 14"/><path fill="#F9B87D" d="M137 152q4-3 10-4c13-1 14-5 15-14 2-16 21-26 37-19a92 92 0 0 1 32 27l1 2 2 7q9 16-4 31c-6 7-12 15-9 25q2 7-6 4-9-3-17 3l-7 4q-10 8-22 5l-18-10-8-4-7-8 6-20q5-16-5-29m50-17 16 8q4 1 7-1v-8q-4-8-14-12-7-3-12 1-3 6 3 12m1-83 9 28c-5 17-19 22-30 21-10-2-13 0-17 9-6 16-26 21-39 10a88 88 0 0 1-28-42q2-17 17-26 11-6 12-19 1-6 6-3 11 7 21 0c13-7 29-3 38 9l7 7 1 2 1 1 1 2zm-6 11q0-12-10-19-2-2-5-1l-2 4q1 12 10 20 6 5 7-4m-54 128-7 29h-2q-22 18-42-1-5-6-14-3-13 5-25-2c-9-5-15-18-13-30l7-31 10-7c7-4 15-2 23-2q8 0 14-5 7-6 11 1 5 12 17 15 12 4 19 14l5 9z"/><path fill="#F9C89B" d="m131 178-5-9q-7-10-19-14-12-3-17-15-4-7-11-1-6 5-14 5c-8 0-16-2-23 2l-10 6 1-7c5-10 19-16 29-14q11 2 18-5l4-3q8-4 11 2 5 14 20 19 9 3 15 14zm12 31 8 4 18 10q12 4 22-5l7-4q8-6 17-3 8 2 6-4c-3-10 3-18 9-25q13-15 4-31l-2-7q10 12 12 28 0 9-6 17-11 12-6 27l-1 5-5 1q-15-5-26 4-22 14-40-2zm41-163-7-7c-9-12-25-16-38-9q-11 7-21 0-5-3-6 3-1 13-12 19-14 9-17 25l-4-8q1-13 12-22 12-8 12-24-1-9 8-4 14 7 27 2 24-8 38 13z"/><path fill="#F9AA63" d="m33 145-1 8-7 31c-2 12 4 25 13 30q13 7 25 2 9-3 14 3 20 19 42 1h2c-2 9-15 17-23 17q-15 2-26-10-5-5-12-2c-19 7-39-4-39-26q1-18 5-34zm46-76 4 9q8 26 28 42c13 11 33 6 39-10 4-9 7-11 17-9 11 1 25-4 30-21 2 14-8 26-18 28l-15 1q-9-1-13 8c-6 20-32 21-44 9q-19-20-27-46zm52 109-1-20 7-6q10 13 5 29l-6 20-8-10z"/><path fill="#F9C89B" d="m231 142-2-2zm-46-94-1-2zm2 3-1-2zm1 1"/><path fill="#F9C99C" d="M187 135q-6-6-3-12 5-4 12-1 10 4 14 12v8q-3 2-7 1zm-5-71q-1 7-7 3-9-8-10-20l2-4q3-1 5 1 10 7 10 20"/></svg>