<svg xmlns="http://www.w3.org/2000/svg" xml:space="preserve" viewBox="0 0 320 320"><path fill="#FFFFFE" d="M177 321m-44-137 1-4h1v-2l2-1 5-10 2-1q6-2 5-10l50-80 5-9q9-18-7-28-19-12-31 5l-4 7-50 82-65 108q-10 19 7 30 9 5 18 5l10 9q12 6 20-3l18-17 81-78 64-61 6-7q9-9 5-21-5-14-20-16c-10-2-17 5-24 13l-65 64-15 15-5 4h-1l-6 8h-1l-4 2q-4 3-4-3z"/><path fill="#EB844E" d="m132 185-11 17-22 35c-9 13-14 27-26 37q-9 1-18-4-17-11-7-30L163 51l12 17-2 4-20 36-7 11-14 24-13 21-10 17-9 17-3 3 1 1 2-4 34-55 21-34 5-7 19-31 2-1 15 5 3 1-49 81-6 9-9 14v1l-2 3zm-45 36 1-2-1-1-1 3zm7-12 1-1 2-4-2-1zl-1 1-1 2 1 1zm-5 8 2-3-2-1zm-4 7-1-1-1 1z"/><path fill="#EB7C40" d="m154 174 14-15 66-64 2 3q3 18 17 25l12 3-63 61-81 78-18 17q-8 9-20 3l8-10 14-21 43-69z"/><path fill="#C06433" d="m154 174-6 11-43 69-14 21-8 10-10-9c12-11 17-25 26-38l22-35 4-1 16-16 7-8 1-1z"/><path fill="#EDA884" d="m265 126-12-3q-14-7-17-25l-2-3c6-8 13-15 23-13q15 2 20 16 4 12-5 21zm-6-28v-5q-2-3-6-4-6 0-7 8c0 9 8 18 17 19q9-1 10-8 0-6-9-6h-1v-1z"/><path fill="#EDA985" d="m200 76-4-1-15-5 5-10q4 5 8 6 4-1 7-6c1-4-3-12-9-15q-9-6-17 0-5 3-2 8 2 6 8 4l2-1-6 12h-2l-1-3-10-15 3-6q12-17 31-5 16 10 7 28z"/><path fill="#FEF0E3" d="m141 186-16 16-4 1 11-17q0 5 4 2zm3-20 6-9q2 7-6 9m-11 18 2-3zm-1 1 1-1zm17-8"/><path fill="#7F5747" d="m177 67 6-11-2 1q-6 2-8-4-3-5 2-8 8-6 17 0c6 3 10 11 9 15q-3 5-7 6-4-1-8-6l-5 10-2 1z"/><path fill="#8B553D" d="m177 68 2 3-24 38-2-1 20-36 2-4z"/><path fill="#925638" d="m153 108 2 1-21 34h-1l13-24z"/><path fill="#9E5734" d="M132 143h2l-23 38h-1l9-17z"/><path fill="#AE5D32" d="M109 181h2zm-15 27 1-5 2 1z"/><path fill="#C26637" d="M89 217v-4l2 1z"/><path fill="#AE5D32" d="m100 198-2 4-1-1z"/><path fill="#C26637" d="m94 209-2 3-1-1 2-2zm-8 12 1-3 1 1zm-2 3"/><path fill="#7F5646" d="m259 98 4 2v1h1q9 0 9 6-1 7-10 8c-9-1-17-10-17-19q1-8 7-8 4 1 6 4zl-1 1z"/><path fill="#EDA884" d="m259 98-1 1z"/></svg>