<svg xmlns="http://www.w3.org/2000/svg" xml:space="preserve" viewBox="0 0 360 360"><path fill="#1B5327" d="M250 66c5-1 10-3 14 3l1 3q-3 6-9 8-3 0-4 2l4-1q6 0 8 6l-1 2q-4-1-2 2 1 3-2 3l-6 2c-2 0-6 0-3 4l-2 2-12 7-1 1-7 44 8-28 5-16q0-2 3-3 11-2 20 5 5 3 2 9-8 24-13 48l-6 30 11-15 3-2q4-4 7-1 4 2 1 6l-5 8q-16 19-7 42 6 13 5 28c-1 33-21 60-55 67q-2 0-5 3-2 3-6 4-21 5-40-2l-4-3q-2-6-9-6c-25-6-44-27-48-53q-4-28 9-54 9-21 5-43a497 497 0 0 0-16-70q-2-6 2-9 9-6 19-7l6-3h-5q-4 2-5-4l4-6-4-1q-7-2-8-9 1-2 3-2h8l-5-2q-4-2-2-4c2-2-2-6 4-7q6-2 12 0h1l2-3q2 0 1-2c-3-2 0-5-2-8l3-2q6 0 10 4 4-3 1-7-3-3 2-4 5-2 8 1h4q4-1 4 3c0 5 5 2 6 4l3-4-1-2c-5-3-3-7-2-11l3-1 4 1q7 5 14-1 5-3 6 2 2 2 3 1c3 1 7 0 7 5l2 1q2 0 3-2c0-4 5-3 7-5l3 1c0 3 6 6 1 11q8-3 12 4l-5 6-6 1c2 5 7 0 9 4l1-1c3-7 10-6 15-6 3 0 6 5 10 6l2 7q1 2-1 3h-6c1 2 5 2 4 6q-4 4-8 2 3 1 8-2"/><path fill="#F3E9B5" d="m151 253-8 11q-4 1-5-3l-11-16 12 18q2 2 1 5l-5 13q-3 2-5-1-12-12-17-28-3-11-1-21 4-9 6-19l1-7-1-21v-4l3-1 3 6 2 8 1 6 1 1 2 6 2 2 2 2v1l1 1 2 2v1l1 1 2 1 1 1 1 1q5 7 12 12 6 3 8 11l-8 8q-8-6-13-13l9 11q2 1 1 5m91-46q1 12 7 24 6 22-4 43-15 31-45 45l-5 2h-11q-3-3 1-6l1-2 3-2 4-5 1-2q5 0 8-4l7-6q4-3 6-8l1-1 6-6 1-2q20-21 17-50v-7c0-4-2-9 2-13"/><path fill="#EFE7B3" d="M138 300q-3-13 4-27 8-16 22-27t31-21 27-31h1q3 4 0 8l-5 13-1 1-13 12-15 11-4 4-1 1-3 1-3 2-1 1q-3 1-5 4l-1 1-4 3-2 3-1 1q-16 13-19 34l-1 6-2 3q-3 1-4-3"/><path fill="#F1E8B4" d="m252 241 2 2q6 18 0 37l-1 2-3 7v1l-1 2-1 1q-5 8-11 12l-11 6q-6 6-15 5-2-5 3-5 15-11 25-26l5-10q7-16 8-34"/><path fill="#F3EAB6" d="M134 285v18h-3q-16-12-24-31-3-15-1-28-1-3 3-5c4 1 2 5 3 7l2 7q4 15 15 26 3 1 5 6"/><path fill="#D5D189" d="M143 322c-28-8-46-36-43-68h1q3 5 3 11 9 24 28 39l3 4 8 12z"/><path fill="#90AC2E" d="M132 174v2q-2 3-1 7l1 3v8h-2q-3-1-3-5l-1-5-3-3q0-2-2-3t-3-3l-1-5v-2l2-4-2-10-7-28-6-21v-5q2-3 6-3l3 5 13 51 3 16 3 4"/><path fill="#F2E9B4" d="m128 189 2 6q4 3 4 7 2 4 5 6h1l1 1 8 5 17 11c2 3 7 4 7 9l-8 6-21-17-4-3h-1l-1-2-1-1-1-1-1-2-2-1-1-2-1-1-2-2-3-7q0-1 0 0l-1-6v-6z"/><path fill="#719B19" d="m250 111 4 2q2 3 0 6l-15 55q0 6-3 13l-2 9-5 10h-1q-3-3-2-6l2-12 1-4v-6l2-10 8-26 7-25q0-3 4-6"/><path fill="#D3CF88" d="M101 254h-1q1-15 8-28 8-14 8-32h2l2 10-1 7-5 18-2 6v2l-1 2q-6 12-3 26l1 7q-4 1-4-2-3-7-4-16"/><path fill="#719B1C" d="m242 207-1 14h-1q-4-5-3-11v-23l1-3q3-23 11-45l5-19q1-3 4-5 5 2 2 6l-12 44-5 22-1 8-1 8z"/><path fill="#92AE2F" d="m154 202-3-1q-3-5-3-10v-6c-1 4 2 9-1 13l-2-1q-3-11-3-20 0-18-4-36c2-4 0-8 6-10q3 3 2 6l2 9 4 20 2 21q2 8 0 15m104-88q-10 32-17 66l-1 5-1 2-1 6-1 7c-1 5 1 9-2 13h-2c-4-4-1-8-1-11l1-5 1-9 20-75z"/><path fill="#5B8A28" d="M181 202h-3l-4-13 3-40q4-16 6-34h1q-3 38-2 78c-1 3 2 6-1 9"/><path d="M187 174q2-12 9-21 2-2 5-1 2 2 0 4l-8 33q-1 5-3 6-4-1-3-6z"/><path fill="#47731B" d="m177 149-1 41q2 4-1 9-6 0-5-5 3-15 3-31 2-9-5-15-11-12-10-28l-1-31 2 13 2 24q1 12 10 21z"/><path fill="#4D7911" d="m140 140 4 34 1 23q-5-4-5-9c1-27-5-53-9-78q-3-4 2-6 4 3 4 6l2 11z"/><path d="m167 177-1 12-1 1q-7-28-11-56 5 12 13 21l1 2q1 10-1 20"/><path fill="#F2E9B4" d="m132 195-1-5 1-1 2 1 4 7 1 1 1 1 1 1v1l1 1 2 1 1 1 2 1 1 1q8 6 18 9l1 1 12 7 2 5-5 4q-6-2-10-6l-17-11-9-6q-7-5-8-14"/><path fill="#709B18" d="M103 101q6 8 8 19l8 35-4 2q-3-1-3-4l-3-14-4-14-5-18 1-5z"/><path fill="#DAD48C" d="M210 315q11-2 20-8l7-3q0 3-2 5-14 14-33 18l-14 1q-1-3 3-4l17-9z"/><path fill="#CFCD7C" d="m188 218-11-5q13-6 20-18l1-1c3-2 2-6 6-8q3 3 1 6v2l-1 2-1 6v1l-1 2-1 2-1 1-1 3c-3 4-5 9-11 7"/><path fill="#8EAB2D" d="m223 110 4 1q2 6-1 12l-9 44q-3 3-6 1v-8l9-46q0-2 3-4"/><path fill="#C1C16E" d="m210 315-22 13h-6q0-5 6-6l7-2q16-7 27-17 13-12 21-28l1 1q-8 20-26 33l-7 6z"/><path fill="#E9E3AF" d="m143 205-2-1-1-2-1-1-1-2-3-6 2-1q7 11 19 15l28 14q8 3 0 6-4 1-6-3l-12-7-20-10-1-1z"/><path fill="#D0CD80" d="M187 219q6-3 10-9l2-3 1-3 1-1 2-7 1-2 1-1h2v7c1-3-1-8 4-8q3 3 1 9 1 1-1 4-7 9-16 15-4 3-8-1m-49 81 4 2 1-7q4-20 18-35l3-1q2 4-1 6-9 10-14 24-2 8-2 18c0 3 3 7 0 10q-7-6-9-17"/><path fill="#CBCC78" d="m154 202-1-15 1-1q3 2 2 5l3 9c0-3-5-6-1-11l5 8 7 5 9 4q-5 6-11 3z"/><path fill="#B8BD62" d="M101 254q2 2 1 4 2 8 6 14 8 19 26 31l1 5q-21-15-31-39-4-7-3-15"/><path fill="#BEBF6D" d="M202 328q3-4 7-4 16-7 28-20l11-12v3l-1 1-1 3h-1l-1 2-1 1q-5 7-13 14l-2 1-1 1-1 1-2 1q-10 6-22 8"/><path fill="#C0C36B" d="m147 146-3-14q-4-4-4-10l-1-9q-2-5 0-8 4-1 4 3 4 15 5 30l2 8z"/><path fill="#CFCD7C" d="m159 325-3-1q-4-5-3-11 0-22 14-38l4-4h3q3 4-1 7-12 16-14 37c0 3 3 6 0 10"/><path fill="#698C24" d="m233 168-2 11v4l-1 4-4 13q0 3-3 4l-2-1 3-9 1-7 1-3 1-4 3-12z"/><path d="m127 118 2 12-1 1-7-29-2-6v-2l2 1c0 6 4 4 7 3q4-2 8 1-3 2-6 1-7 1-6 7z"/><path fill="#CBCC78" d="M167 327h-3q-3-4-1-9 4-12 12-21 1-2 5-2l1 1q1 4-2 7-5 6-8 15-1 5-4 9"/><path fill="#A3B647" d="M211 205v-12h-1l-3 9h-1v-9l-1-4q0-2 2-3l4 2 3 1 1 2q1 6-2 12z"/><path fill="#8EAB2D" d="m214 192-2-1-1-3v-3l1-9q-1-3 3-5l3 2-2 23c-3-1-1-3-2-4"/><path d="M186 151v-4q4 4 1 6-1 1-1-2m-6-65c1-3-3-3-3-5q5 0 4 5z"/><path d="m166 45 1-1q2 1 0 3h-1zm26 62q2 1 1 2l-3-1zm-13-43q-2 1-3-1v-1q2-1 3 2m-2 56 1 3h-1z"/><path fill="#F3EAB6" d="M187 315q-4-1-5 2l-6 3q-3-2-7-2 3-9 8-17l3-4q3-6 8-11l8-9 3-4 4-3q4-3 4-5l1-2 1-2 1-1 2-2 4-4q9-9 12-22l6-19 2-13h2l2 21 2 4v1l-1 7q-1 24-16 43l-1 2-3 2q-1 4-5 6l-6 7-7 7-8 5h-1l-4 6z"/><path fill="#F3E9B5" d="M155 311q-5 0-10-4c-2-17 6-30 16-43l3-5 2-3 5-4 6-5 3-2 3-2q1 0 0 0l20-15 13-13 7-12 6-17h1l-3 20q0 13-10 24l-13 14q-6 4-10 9l-5 4-6 6q-4 5-11 9a59 59 0 0 0-17 39"/><path fill="#BEBF6D" d="M177 247q-1 4-6 5 1-4 6-5m-6 5-5 5-1-1q2-3 6-4m10-7-4 2q0-2 2-3z"/><path fill="#F3EAB6" d="m204 271-3 2-3 3q-5 4-9 10l-9 9q-8 8-12 17l-3 5-7-2q-1-21 13-37l3-6q3-5 7-8l6-6 17-14 15-17q6-8 8-18l2-3 3-10h2l-1 17-4 18q-3 11-10 20l-2 5-3 4-3 1-2 3z"/><path fill="#D3CF88" d="M146 207q11 3 20 10-11-3-20-10m20 10q7 0 12 7-7-2-12-7"/><path fill="#97B036" d="m208 187 1-13q-1-3 2-7h5l-1 4c-2 4 0 10-2 15l-1 2-1 1z"/><path fill="#B3BD5B" d="M204 271q-3 0-1-2 2-3 6-5-1 4-5 7m-6 6-1-2 3-2q1 3-2 4m11-13q-1-2 2-3 1 2-2 3m2-3q0-2 2-1z"/></svg>