<svg xmlns="http://www.w3.org/2000/svg" xml:space="preserve" viewBox="0 0 610 546"><path d="m157-67 8-8h1v-1h1l7-9h1l2-4h1l1-3h1l9-14 5-10 8-23 2-4 4-20v-3l1-1q2-33-8-63-2-10-6-19-8-16-18-31-5-9-13-16v-1l-22-23h-2v-1h-1v-1l-16-13q-15-12-33-22l-2-1v-1h-1v-1h-1v-1h-1v-1l-10-15-10-28-2-11c-2-5-3-11-11-11v-1q-11-5-21 1l-9 8-7 26-5 13-3 6h-1l-2 4h-1v1h-1l-10 8-19-17-24-17v-1l-18-16h-1v-1l-1-2-10-19-4-11 2-8 4-12h1l2-5 3-2q9-3 8-11 0-7-10-9l-1-1-1-1-1-1-2-2q-8-2-15 4l-1 1v1l-2 1-5 7-8 16h-1l-3 6-7 16-3 7-5 5-4 6h-1l-4 5h-1l-17 14-11 9-47 28q-22 13-40 33l-1 3-1 1-9 9-4 6h-1a57 57 0 0 0-12 21v1h-1l-8 15-1 7q-8 14-11 29l-2 15h-1v30l1 17 3 9q0 10 6 20l2 4q4 19 19 33l7 11 4 4v1l4 4 10 7 21 17 25 13 5 1 45 14 15 1h48l11-3 11-2 4-1q7-2 16 0l4 4 9 4 19 7v1l9 3 4 1 31 4h31l13-2q9 0 19-4h2q12-2 23-8l30-16 2-2h1l2-2h1l4-4h1z"/><path fill="#513565" d="m228 113 4-6 9-10 18 3q-3 17 4 32l11 19q19 29 15 62-1 15-9 27-16 17-29 36t-22 40q-7 23-12 48c-5 22-11 44-26 62a60 60 0 0 1-42 22q-18 2-35-3c-10-4-20-6-27-15l-7-3v-1l-2-3h1l-2-1-1-3-2-2v-1l-1-2-2-2-10-18-1-4-5-20-2-13 1-4-1-31q2-23 10-44l4-14 7-15v-2l1-1 2-4 10-15 5-6 8-9 1-1 30-26 12-10 46-29 29-20v-2l5-5zM103 325l1-6q0-27 11-51t24-45q17-23 36-45l3-3-5 1a187 187 0 0 0-79 102q-8 24-6 50 3 27 16 52l5 8h2q-10-30-8-63"/><path fill="#3e2950" d="m80 427 7 3c7 9 17 11 27 15q17 5 35 3 25-3 42-22c15-18 21-40 26-62q5-25 12-48 9-21 22-40t29-36q8-12 9-27 4-33-15-62l-11-19q-7-15-3-32 5 0 11 3l1 4q3 14 13 25l2 2 19 17 3 3 5 4 16 11 20 16 1 2-11 11-30 22q-31 23-52 56-22 38-25 81a147 147 0 0 0 50 120l16 14-12 5-12 2-42 3-31-2-46-13-23-12-6-3-33-28h-2l-4-5z"/><path fill="#543866" d="m299 491-16-14q-17-16-29-36-23-39-21-84 3-44 25-81 21-33 52-56l30-22 11-11 9-10 1-1 3-4 4-5 6-14 5-19q3-9 10-14 11-3 20-1l1 1q7 4 8 12l3 10 2 8q4 18 16 32l3 3 1 1 1 1 1 1 3 3 45 33 3 1 1 1 23 24h1l15 22a154 154 0 0 1 26 70l-1 3v38l1 4-4 21-13 31-9 15-2 3-3 4-7 6-1 3-1 1-9 8-1 1-1 1-5 4-3 2-3 2-30 16-23 8h-2l-19 3-8 1h-2l-45-1h-3l-8-2h-4l-8-2-9-2-24-11-4-1-5-3zm211-28q55-57 37-135-14-53-57-89-20-18-42-31a85 85 0 0 1-38-54l-5-16-6-5-7 4-3 9q-5 21-17 40-12 16-30 25-40 25-67 63-37 52-27 115 13 72 81 102 44 18 90 13 52-5 91-41"/><path fill="#559043" d="m271 102-11-3-19-3 3-11 2-6 14-22 1-3v1l2-1q8-5 16-2h1l1 1 2 1q14 10 0 19v1l-2 3-3 4-5 12z"/><path fill="#e8e3ea" d="M560 331q-5-32-24-59l-15-22q8 7 13 16 10 15 18 31 4 9 6 19 10 30 7 63l-1-3-2-34v-2z"/><path fill="#554165" d="m67 265-4 13q-8 21-10 44l1 31-1 3-3-12v-15l1-14 3-15q2-15 10-30z"/><path fill="#e4e1e9" d="m360 514 11 2 45 1h2l8-1v1l-12 2h-31l-31-4-4-2v-1l8 2z"/><path fill="#ded9e1" d="M80 427q-15-14-20-33l10 17 2 2 1 2v1l2 3 1 2 2 1h-1z"/><path fill="#3e2851" d="M103 325q-2 33 8 63h-2l-5-8q-12-25-16-52-2-26 6-50 6-17 15-34a201 201 0 0 1 64-68l5-1-3 3q-19 22-36 45-13 21-24 45t-11 51z"/><path fill="#3e2950" d="m80 426-2-2zm-6-10-1-2zm2 3-2-2zm-3-5-2-2zm6 9-2-1z"/><path fill="#f7ddbe" d="M509 463q-38 36-90 41-46 6-90-13-67-30-81-102-10-63 27-115 28-38 67-63 18-9 30-25 12-19 17-40l3-9 7-4 6 5 5 16q8 34 38 54 22 13 42 31 43 36 57 89 18 78-38 135M277 302q-12 24-14 52-5 71 54 111c39 27 83 30 128 17q43-13 68-48c30-43 29-103-2-148q-30-43-77-66a70 70 0 0 0-59-5q-64 25-98 87"/><path fill="#b4324b" d="M277 301q34-61 98-86 30-10 59 5 47 23 77 66c31 45 32 105 2 148q-25 35-68 48c-45 13-89 10-128-17q-59-40-54-111 2-28 14-53m110 24-1-4q-2-10-12-9-5 0-3 5c2 5 10 9 16 8m78 115 6 1 1-7c-2-7-9-6-13-11q-2 10 6 17m-8-108 9-2 7-8-2-2q-6 0-10 2l-10 11zm-121-60 9 2-5-11q-2-3-7-5l-4 2v5zm67 138 1 3 7 3 1-7-4-11-1-3-3 1zm-119-72q-4 5 1 7l12 1 3-4-3-4q-6-4-13 0m214-7q8 0 11-7 2-3-3-4-11-2-14 10zm-198 66 3-7-11 3q-3 0-5 3-2 2-1 5l4 2q7 1 10-6m33 38c7 1 14-5 13-11l-4-3c-6 0-11 8-9 14m-17-142 11 1v-3l-9-7c-3-1-8-3-9 2-2 4 3 5 7 7m129-24 2-3v-7l-7 1q-8 7-2 16zm32 133c-3-7-10-6-16-8q3 11 12 14 7 1 4-6m-100 55 6-2q4-7 3-15-15 3-9 17m-64-33 2-7q-13 0-14 10v4h4zm61-190-5 1v7q4 6 9 10l1-1c0-6 1-12-5-17m-26 62q7 5 16 5-3-8-10-12h-6zm151 97-6 1q7 8 16 9l4-3-1-4q-5-5-13-3m-141 50-4 3-6 7 1 6q4 0 6-2 6-5 5-14zm112-91 10-2q5-4-1-6l-9-1-5 5zm-45-3q7 2 12-3 3-4-2-6l-10 1-4 4zm76 9q4 6 12 5 5-1 3-6-4-7-12-4-5 0-3 5m-62 9c0 6 8 10 13 8l2-3-6-7c-3-1-6-3-9 2m-66-28-10-2-3 3q0 4 2 4 4 3 10 2 2 1 4-3zm115-42q0-3-4-4-8 1-11 9 0 5 4 4 8-1 11-9m-94 171-3 9 4 6 6-4 1-6c-2-3-2-7-8-5m-5-183q-7-4-7 2t4 11h5l2-4zm43 102q-5 9 6 14 5 1 5-5-1-7-11-9m61 44q7 0 4-7-4-7-13-6 1 9 9 13m-132-35-3 9q0 5 5 2 8-4 7-16zm108-116 7-8q1-5-4-4l-9 6v6zm-63 171 6 5q3-4 3-7l-4-12h-3zm77-71 9-4-9-6-9 2 7 7zm-138-59 2-2-6-6h-10v5q6 5 14 3m-49 45q-7-4-13 2-2 2-1 4l3 3q8 1 12-6zm93 47v-2l-2-5-5 3-2 3 1 10 2 1zm-61-50-7 4-2 4q2 3 5 3 9 2 11-10zm32 8q7-2 7-9-8-4-14 3-2 2-1 4 1 3 4 3zm-52-62-10-2-4 4q1 4 4 4 6 3 14-2zm18 87-1 3 1 4h4q9-2 8-14zm-2-59c-2 2-6 4-4 7q2 2 8 3l2-1 6-6-8-3zm89 40q5 3 5-4-1-9-7-11l-3 3q-3 5 5 12m29-77-6 7 2 5h5l5-8-1-5zm-25-18q-7 3-6 11 0 5 5 3 6-4 6-12-1-4-5-2m35 176q-1-8-11-8-1 7 5 13l5 1zm-46-135v2l2 5 5-2q4-3 2-10l-3-3-4 2zm23-89q-11 2-6 17l8-9q4-5-2-8m-57 37-6-8-3 1v10q2 3 7 4zm36-2q2-6 1-10 0-5-5-2-5 4-4 10l4 5zm-18 106v-5l-4-2q-4 3-5 7l1 9 7-5zm3-143q-2 8 4 12l4-8q0-6-4-9-3-1-4 5m34 193q1 7 6 7 4-2 3-8-1-4-5-8l-4 8z"/><path fill="#f7ae6d" d="m336 272-7-7v-5l4-2q5 2 7 5l5 11zm66 137 2-13 3-1 1 3q4 6 4 11l-1 7-7-3z"/><path fill="#f8b06f" d="M348 296v-7h6q7 4 10 12-9 0-16-5m152 97q7-2 12 3l1 4-4 3q-9-1-16-9z"/><path fill="#f5ad6b" d="m328 363 7 1q-3 12-11 10-3 0-5-3l2-4zm32 8-4 1q-3 0-4-3-1-2 1-4 6-7 14-3-1 7-7 9"/></svg>