<svg xmlns="http://www.w3.org/2000/svg" xml:space="preserve" viewBox="0 0 400 400"><path d="m171 338 .2.7c5.3 4.8 9.1 5.8 14.9 2.5 3.6-2 7.2-4.7 9.7-8a96 96 0 0 0 17.1-38.5c3.3-14.7 5.1-29.6 0-44.3-1.6-4.6-4-9-10.2-10.2-8.3-.4-14.5 4.1-19.2 10a80 80 0 0 0-16.2 36.5c-2 12.2-2.1 25-2 37.4 0 4.3 3.2 8.6 4.8 13.4zM61 284v.8q1.7 5.2 7.3 6.3c9.6 2.1 16.9-3 23.9-8 9.7-7 17.3-16 24-25.8a80 80 0 0 0 16.1-39c.5-6.5-1.8-12-7-14.5-3.2-.6-6.6-2.2-9.4-1.5-5 1.3-10.3 3.2-14.6 6A100 100 0 0 0 65.1 253c-4 9.5-8 19.2-5 30.5zm55.4-197c0 .4-.2.7-.6 1.7-3.7 10 4.1 16.5 13.3 19.2a93 93 0 0 0 44.2.8c12.9-2.4 25.1-6.1 36-13.1 6.2-4 12.2-9.5 10.5-19.3-5.6-11.3-16.3-14.2-27.1-15-17.6-1.5-35 0-51.4 7.7-9.3 4.4-19.4 7.6-24.3 18zM249 156.2c-4.2-6.3-11-7.4-17.5-7-15.2.8-29 6.9-41.1 15.4a183 183 0 0 0-27.2 25.2c-3 3.2-3.6 8.7-6 13.5-1.1 11.6 9.1 16.7 20 15.5 15.2-1.7 29-8 41.5-16.3 8-5.2 15.1-11.9 21.7-18.8a57 57 0 0 0 9.9-15.8c1.5-3.3 2.2-7.6-1.3-11.7m-109.2 12.5c-.7-3.1-1-6.5-2.2-9.3q-5.2-11.2-16.3-16.5-13.4-6.4-27.3-11.8a84 84 0 0 0-35.7-3.9c-5.2.3-10.2 3-16 5-4.4 4-6.9 8-4.6 14.7A33 33 0 0 0 52 163.2c11 7.4 23.4 12 36.3 15.4 13.8 3.5 27.7 5.5 41.5.4 4.7-1.8 8.8-4.3 10-10.3m134 150.3c6.4-1.4 9-6.5 11.2-11.7a51 51 0 0 0 3.5-26.5c-1.2-9.3-2.3-18.7-4.7-27.8a88 88 0 0 0-8-19.5c-3.3-6.1-6.3-12.8-13.9-16.2-9.3-6-20-.5-22.8 11.6-3.4 15.4-2.8 30.8.6 45.9A88 88 0 0 0 257 313c4 5 11.3 7.8 16.7 5.9m27.1-106c4.5.1 9.2 1 13.5 0 12.2-2.7 20.1-12.2 28.8-20.3a98 98 0 0 0 22.2-36.4c3-7.6 5-15.3 1.7-24-1.8-8.5-11.3-9.3-18-7.7-11.8 2.9-19.8 11.2-27.9 19.3a119 119 0 0 0-21.6 30 48 48 0 0 0-6.4 27.6c.5 4.6 1.6 9.4 7.7 11.5m-15-60q7.8-5.2 10.2-14.1c4.5-16.3 1.4-32.3-2.8-47.8-2.4-9.1-7.4-17.8-12.4-26-3.9-6.5-9-12.6-17.2-16-3.7.7-8 .5-11.1 2.3-6.7 3.8-8.4 11.4-9.1 18.1a110 110 0 0 0 7.6 51 67 67 0 0 0 15.6 26.3c5 4.7 10.5 9.5 19.2 6.2"/><path fill="#e7bf88" d="M285 153c-7.9 3.3-13.5-1.5-18.4-6.2a67 67 0 0 1-15.6-26.3 110 110 0 0 1-7.6-51c.7-6.7 2.4-14.3 9-18.1 3.2-1.8 7.5-1.6 11.3-1.6a9 9 0 0 1-3 3.3c-7.9 3-8.8 4.2-8.7 12.3q.1 11.4 1 22.9c1.7 16.6 5.6 32.8 13.9 47.5 2.6 4.6 8 7.5 12.3 11.5 1.4.8 2.6 1.2 3.9 2z"/><path fill="#e7bf89" d="M300 212.9c-5.3-2-6.4-6.8-7-11.4a48 48 0 0 1 6.5-27.6 119 119 0 0 1 21.6-30c8-8.1 16.1-16.4 28-19.3 6.6-1.6 16.1-.8 17.6 8q-2.5-.5-5-1.8c-6-3.6-10.8-1-15.3 2.4a154 154 0 0 0-42 48.6c-3.7 6.6-7.5 13.9-4.4 22.6v4zm-27 106c-4.7 2-12-.9-16-5.8a88 88 0 0 1-17.4-38.3c-3.4-15-4-30.5-.6-45.9 2.8-12.1 13.5-17.6 22.5-11.3q-3.3.9-6.9 1.5c-6.5 2-8.5 4.7-8.5 12.4 0 11.3-.6 22.7 1.2 33.8 2 12.4 6 24.7 10 36.7a17 17 0 0 0 10.9 11.3l4 3zM139.1 169c-.6 5.7-4.7 8.2-9.4 10-13.8 5.1-27.7 3.1-41.5-.4-12.9-3.3-25.3-8-36.3-15.4-6-4-11.5-8.7-14.2-16.3-2.3-6.7.2-10.7 5-14.5q0 2.9-1 5.9c-1.3 4.8-.3 8.6 3.9 11 7.5 4.5 14.8 9.5 22.8 13.1a114 114 0 0 0 51.8 12.4c3.6-.1 7.2-2.5 11.2-3.8l4-2zm80.7-92c1.7 9-4.3 14.6-10.5 18.6a99 99 0 0 1-36 13 93 93 0 0 1-44.2-.7c-9.2-2.7-17-9.2-13-19.7l.8-1.3.3.3 1.9 6.2c1.4 4.7 4.1 7.7 9 7.6 14.5 0 29.1.4 43.7-.7a75 75 0 0 0 33.7-9.8c3.1-1.8 5-5.6 7.8-8.6q1.7-2 3-4zm29.3 80c3.4 3.3 2.7 7.6 1.2 11a57 57 0 0 1-9.9 15.7 129 129 0 0 1-21.7 18.8 95 95 0 0 1-41.4 16.3c-11 1.2-21.2-3.9-19.5-15.4 1.8 1.9 3 3.8 4.4 6 3.5 5 8.4 4.2 12.8 3a154 154 0 0 0 58.5-30.6c5.7-4.9 11.9-10 11.8-19l1.8-4.1q1-1.2 2-1.7M126 204.2c4.5 2.2 6.8 7.6 6.3 14a80 80 0 0 1-16 39 102 102 0 0 1-24.1 26c-7 5-14.3 10-24 7.9q-5.5-1-6.9-6.6 2 0 4 .8 6.4 4.6 12-.2c8.5-7.6 17.4-14.9 25-23.3a98 98 0 0 0 22.5-35c1.6-4.5.9-9.8 1.2-15.2v-4zm77 36.7c6 .4 8.3 4.9 10 9.5 5 14.7 3.2 29.6 0 44.3-3.2 14-8.4 27.2-17.2 38.6-2.5 3.2-6 6-9.7 8-5.8 3.2-9.6 2.2-14.7-3q2.4.1 5 .7c6 .8 9.7-1.5 12.2-6.4l5.1-9a161 161 0 0 0 16-53.6c1-7.6 1.4-15.7-4.7-22.3-.7-1.5-1.4-2.6-2-4.1z"/><path fill="#efca82" d="M261 53q1.5-1.2 3-2.8c7.9 2.3 13 8.4 16.8 15 5 8.1 10 16.8 12.4 25.9 4.2 15.5 7.3 31.5 2.8 47.8a23 23 0 0 1-10.6 14.1 9 9 0 0 1-2-4c1.6-2.3 4.1-4 4.7-6 2-7.8 4.7-15.8 4.6-23.6-.3-17-5.3-33-13.6-47.8-3.8-6.8-7.1-14.6-16.4-16.7q-1-1-1.7-1.9m39.4 160a8 8 0 0 1 0-4.5c9.1 2.2 17-.7 23.2-6 8.8-7.5 17.5-15.4 24.3-24.6 6.4-8.7 10.7-19 15-29 1.8-4 3-9-.9-13.4V131l4.8 2c3.5 8 1.6 15.7-1.5 23.3a98 98 0 0 1-22.2 36.4c-8.7 8.1-16.6 17.6-28.8 20.4-4.3 1-9 0-13.9-.1m-27 105.9q-.9-1-1-2.9c1.9-2.4 4-4.2 5.4-6.3a45 45 0 0 0 6-24.9c.4-19.6-5.4-37.7-15-54.7-2.2-4.1-4.8-9-11-9.3L255 219l6.7-1c7.7 2.7 10.7 9.4 14 15.5a88 88 0 0 1 8 19.5c2.3 9.1 3.5 18.5 4.7 27.8q1.9 13.6-3.5 26.5c-2.2 5.2-4.8 10.3-11.5 11.6M42 138l1-5.7c5-2 10.1-4.8 15.3-5A84 84 0 0 1 94 131q14 5.4 27.3 11.8 11.2 5.2 16.3 16.5c1.3 2.8 1.5 6.2 1.9 9.5q-2 .2-4-.3c-.3-9.8-7.2-14.8-13.5-19.4-19.4-14.3-41.9-18.7-65.5-18-4 .1-9 .3-10.9 5.9zm177.8-61.4q-1.4 1-3.6 1c-2.7-2.3-4.7-5-7.2-6.5-8.3-5.1-17.8-5.8-27-6-16.9 0-33 4.2-48 11.7-5.4 2.7-11.4 5.3-13.2 12.4L119 93q-.6-2.7-1.9-5.8C122 76.6 132 73.4 141.3 69a99 99 0 0 1 51.4-7.8c10.8.9 21.5 3.8 27.1 15.4M162 209l-3.8-5.8c1.4-4.7 2-10.2 5-13.4a183 183 0 0 1 27.2-25.2 80 80 0 0 1 41.1-15.4c6.5-.4 13.3.7 17.6 7.4q-.8 1-2.3 2c-5.8-5-12.5-5.3-19.1-4.2-24.4 4-43.5 17.4-59.7 35.4-3.7 4.1-7.1 8.9-6 15.6zm-97 76-3.7-.9q-.4 0-.4-.2l-.7-1c-3.2-10.7 1-20.4 5-30a100 100 0 0 1 36.1-44.5c4.3-3 9.5-4.8 14.6-6 2.8-.8 6.2.8 9.7 1.6q.6 1.7 0 3.4c-7-3.4-13-.2-18.5 3-23.6 13.6-36.7 35.1-44 60.4-1 3.3 1.2 7.5 1.9 11.6zm111 54-4.7-1q-.4 0-.4-.2l-.7-.8c-1.7-4.3-4.9-8.6-5-12.9 0-12.5 0-25.2 2-37.4a80 80 0 0 1 16.3-36.5c4.7-5.9 10.9-10.4 19.4-9.7q.3 1.5-.3 3.1c-3.2 1.3-6.6 1.5-8.6 3.3a61 61 0 0 0-11.7 12.9 103 103 0 0 0-14.1 60.6c.2 5.8.3 12.2 7 15.9zM116.7 87q.2.3-.4.8-.1-.2.4-.8"/><path fill="#e7bf89" d="M60.1 283.3q.4-.2.8.6-.3 0-.8-.6m110 54q.4-.1.8.6-.4 0-.7-.6"/><path fill="#f1cf7e" d="M260.6 53c.9.6 1.3 1.2 2.2 2.3q4 5.5 7.1 10.7c14.7 25.7 19.4 52.5 9 81-4-3.7-9.4-6.6-12-11.2A120 120 0 0 1 253 88.3q-1.1-11.4-1-23c-.2-8 .7-9.1 8.5-12.2"/><path fill="#f0d796" d="M279.2 147.3c10.1-28.8 5.4-55.6-9.3-81.3q-3.2-5.2-6.8-10.7c8.9 1.7 12.2 9.5 16 16.3a101 101 0 0 1 13.6 47.8c.1 7.8-2.7 15.8-4.6 23.5-.6 2.1-3 3.8-4.9 5.9q-2-.4-4-1.5"/><path fill="#f1cf7e" d="M361.7 130.8c.3 1.6.3 3 0 5a97 97 0 0 1-24.4 44.7A79 79 0 0 1 300 204c-3.1-8.3.7-15.6 4.4-22.2q15.8-28.7 42-48.6c4.5-3.4 9.3-6 15.3-2.4"/><path fill="#f0d796" d="M300 204.4a83 83 0 0 0 37.3-24 98 98 0 0 0 24.5-44.1c4.1 3.7 3 8.6 1.2 12.5-4.4 10-8.7 20.4-15 29.1a152 152 0 0 1-24.4 24.6 24 24 0 0 1-23.2 5.6q-.5-1.7-.4-3.7"/><path fill="#f1cf7e" d="M254.6 219c1.2.6 2 1.1 3.2 2.2 3.6 6.3 7.9 11.7 9.8 17.9 3.5 11.3 6.8 22.9 8 34.6A62 62 0 0 1 268 313c-5.6-1.6-9.2-6-10.8-11-3.9-12-7.8-24.3-9.9-36.7-1.8-11-1.2-22.5-1.2-33.8 0-7.7 2-10.3 8.5-12.4"/><path fill="#f0d796" d="M268.2 313.3c7.1-12.5 8.9-26 7.4-39.6a180 180 0 0 0-8-34.6c-2-6.2-6.2-11.6-9.6-17.8 6-.2 8.6 4.7 10.9 8.8 9.5 17 15.3 35.1 15 54.7a45 45 0 0 1-6.1 24.9q-2.3 3-5.6 6-2-.7-4-2.4"/><path fill="#f1cf7e" d="M41.8 138.3c1.3-.6 2.4-.9 4.3-1.2 10.5.2 20.3-.4 29.9.9 14.2 1.8 27 7.7 38.8 16a45 45 0 0 1 16.2 17c-3.6 1.3-7.2 3.7-10.8 3.8-18.4.9-35.4-5-51.8-12.4-8-3.6-15.3-8.6-22.8-13q-6.1-3.8-3.8-11.1"/><path fill="#f0d796" d="M131.4 171a49 49 0 0 0-16.6-17A87 87 0 0 0 76 138c-9.6-1.3-19.4-.7-29.6-1 1.1-5.5 6-5.7 10.1-5.8 23.6-.7 46.1 3.7 65.5 18 6.3 4.6 13.2 9.6 13 19.4q-1.5 1.4-3.6 2.4"/><path fill="#f1cf7e" d="M119 93.4c.5-1.6 1-2.7 2.1-4.2l5-2.3c6.4-3 12.4-6.6 19-8.8 15-5 30.6-7 46.2-3.9 7.5 1.5 14.5 5.2 21.7 7.8-2.4 3-4.4 6.7-7.5 8.5-10.3 6.3-22 9-33.7 9.8-14.6 1.1-29.2.7-43.8.7-4.8 0-7.5-2.9-9-7.6"/><path fill="#f0d796" d="M213.3 82c-7.5-2.6-14.5-6.3-22-7.8a90 90 0 0 0-46.2 4c-6.6 2.1-12.6 5.7-19 8.7q-2.1 1-4.8 2c1.3-6.8 7.3-9.4 12.7-12 15-7.6 31.1-11.9 48-11.7 9.2 0 18.7.8 27 5.9 2.5 1.6 4.5 4.2 6.9 6.6q-1 2.3-2.6 4.2"/><path fill="#f1cf7e" d="M162.2 209.3c-.2-1.4-.2-2.4 0-4l3-3.6a93 93 0 0 1 49.6-35.7 52 52 0 0 1 30.2-3c.4 8.8-5.7 14-11.5 18.8a154 154 0 0 1-58.5 30.6c-4.4 1.2-9.3 2-12.8-3"/><path fill="#f0d796" d="M245.3 162.8a54 54 0 0 0-30.5 3.2 93 93 0 0 0-49.6 35.7q-1.1 1.5-3 3.1c-1.3-6.1 2-10.9 5.8-15 16.2-18 35.3-31.3 59.7-35.4 6.6-1.1 13.3-.8 19 4.4q-.3 2-1.4 4"/><path fill="#f1cf7e" d="M65.2 285.3c-.2-1-.2-1.8 0-3.3a96 96 0 0 1 37.3-58.8c7-5.3 14.4-10.3 23.5-11.2-.3 5 .4 10.3-1.2 14.9a98 98 0 0 1-22.4 35c-7.7 8.3-16.6 15.6-25 23.2q-5.7 4.9-12.2.2"/><path fill="#f0d796" d="M126 211.6a52 52 0 0 0-23.5 11.6 96 96 0 0 0-37.3 58.5c-1-3.4-3-7.6-2.1-10.9 7.3-25.3 20.4-46.8 44-60.4 5.5-3.2 11.4-6.4 18.6-2.6.3 1.3.3 2.3.3 3.8"/><path fill="#f1cf7e" d="M176.4 339q-.8-1-1.3-3.1c-.5-9.6-1.5-18.6-1-27.4a88 88 0 0 1 19.6-50.3c3-4 7.5-6.8 11.3-10.2 6.1 6.3 5.7 14.4 4.7 22a161 161 0 0 1-16 53.5q-2.6 4.5-5 9.2c-2.6 4.8-6.4 7-12.3 6.3"/><path fill="#f0d796" d="M205 247.7c-3.8 3.7-8.2 6.6-11.3 10.5a88 88 0 0 0-19.6 50.3c-.5 8.8.5 17.8.9 27-6.5-2.9-6.6-9.3-6.8-15.1a103 103 0 0 1 14.1-60.6c3-4.9 7.4-9 11.7-12.9 2-1.8 5.4-2 8.6-3q1.4 1.7 2.4 3.8"/></svg>