<svg xmlns="http://www.w3.org/2000/svg" xml:space="preserve" viewBox="0 0 400 400"><path d="M170.994 338.022s-.056.018.196.683c5.294 4.794 9.146 5.775 14.913 2.539 3.608-2.025 7.18-4.742 9.69-7.984 8.824-11.393 14.048-24.57 17.137-38.546 3.259-14.742 5.065-29.615-.005-44.33-1.582-4.591-3.963-9.046-10.22-10.221-8.341-.371-14.515 4.184-19.168 10.073-8.427 10.664-14.066 23.151-16.259 36.42-2.03 12.28-2.1 24.969-1.998 37.47.036 4.303 3.193 8.58 4.848 13.386.28.188.56.376.866.51M60.972 284.043s-.058.031.026.76c1.196 3.52 3.462 5.452 7.275 6.288 9.662 2.117 16.93-2.946 23.913-7.973 9.675-6.963 17.35-15.986 24.102-25.836 8.155-11.898 14.867-24.293 16.01-39.051.502-6.477-1.786-11.854-7.012-14.409-3.146-.58-6.55-2.21-9.382-1.513-5.07 1.245-10.293 3.16-14.576 6.08-16.435 11.209-28.483 26.286-36.194 44.587-4.003 9.5-8.128 19.22-5.07 30.556.296.192.593.383.908.511m55.46-196.994c-.094.313-.19.626-.656 1.69-3.688 9.975 4.173 16.445 13.31 19.17 14.575 4.348 29.188 3.54 44.169.758 12.93-2.402 25.186-6.115 36.064-13.081 6.15-3.938 12.148-9.513 10.455-19.29-5.532-11.263-16.267-14.209-27.073-15.076-17.566-1.41-35.018.012-51.387 7.77-9.316 4.414-19.46 7.595-24.33 17.967 0 0-.036-.081-.551.092m132.585 69.18c-4.203-6.37-11.032-7.405-17.504-7.041-15.166.853-29.015 6.89-41.131 15.397-10.031 7.044-18.72 16.19-27.172 25.188-3.015 3.21-3.586 8.716-5.955 13.567-1.198 11.608 9.073 16.68 19.994 15.453 15.184-1.705 28.906-8.07 41.464-16.318 7.933-5.212 15.108-11.85 21.702-18.73 4.228-4.412 7.32-10.184 9.876-15.82 1.485-3.275 2.234-7.654-1.274-11.695m-109.232 12.438c-.699-3.112-.908-6.445-2.192-9.293-3.341-7.412-8.93-12.99-16.245-16.449-8.972-4.241-18.041-8.345-27.31-11.875-11.476-4.37-23.668-4.612-35.695-3.841-5.208.334-10.263 3.047-16.021 4.952-4.45 3.997-6.91 8.05-4.599 14.744 2.634 7.633 8.206 12.216 14.167 16.257 11.006 7.46 23.405 12.1 36.269 15.411 13.826 3.558 27.71 5.538 41.585.38 4.63-1.72 8.76-4.243 10.041-10.286m133.962 150.306c6.386-1.348 8.982-6.488 11.197-11.69 3.596-8.45 4.633-17.412 3.475-26.463-1.193-9.316-2.37-18.71-4.68-27.783-1.727-6.788-4.756-13.383-8.098-19.583-3.27-6.064-6.228-12.797-13.84-16.172-9.33-6.031-20.013-.506-22.772 11.655-3.479 15.336-2.82 30.78.595 45.828 3.125 13.767 7.892 27.177 17.325 38.361 4.13 4.897 11.303 7.822 16.798 5.847m27.07-105.938c4.491.067 9.18 1.003 13.438.036 12.284-2.79 20.174-12.234 28.844-20.413 10.728-10.12 16.817-23.033 22.204-36.396 3.057-7.585 5.029-15.237 1.7-24.043-1.781-8.43-11.33-9.25-17.998-7.624-11.759 2.87-19.836 11.2-27.904 19.29-8.777 8.801-15.88 18.94-21.562 30.039-4.445 8.68-7.603 17.732-6.452 27.618.534 4.588 1.604 9.38 7.73 11.493m-15.043-60.041c5.269-3.374 8.616-8.15 10.268-14.142 4.474-16.224 1.36-32.238-2.803-47.768-2.448-9.13-7.49-17.75-12.402-25.98-3.907-6.544-8.964-12.625-17.23-15.937-3.753.673-8.048.412-11.145 2.213-6.637 3.857-8.389 11.39-9.088 18.124-1.819 17.52 1.32 34.571 7.605 51.02 3.691 9.662 7.912 19.168 15.584 26.3 4.983 4.632 10.555 9.514 19.211 6.17"/><path fill="#e7bf88" d="M285.07 153.024c-7.95 3.315-13.523-1.567-18.506-6.199-7.672-7.132-11.893-16.638-15.584-26.3-6.285-16.449-9.424-33.5-7.605-51.02.7-6.733 2.451-14.267 9.088-18.124 3.097-1.8 7.392-1.54 11.275-1.541-.825 1.503-1.781 2.335-3.09 3.227-7.846 3.12-8.765 4.278-8.612 12.296.146 7.637.252 15.303 1.017 22.892 1.68 16.67 5.587 32.888 13.837 47.54 2.568 4.56 7.974 7.522 12.27 11.496 1.405.762 2.62 1.243 3.92 2.039.72 1.442 1.355 2.568 1.99 3.694"/><path fill="#e7bf89" d="M299.973 212.875c-5.281-1.951-6.351-6.744-6.885-11.332-1.151-9.886 2.007-18.937 6.452-27.618 5.681-11.098 12.785-21.238 21.562-30.039 8.068-8.09 16.145-16.42 27.904-19.29 6.668-1.627 16.217-.806 17.706 7.954-1.766-.297-3.239-.923-4.997-1.788-6.058-3.592-10.81-.984-15.342 2.437-17.463 13.179-31.4 29.53-41.981 48.556-3.69 6.635-7.52 13.927-4.4 22.627.01 1.466.02 2.531.025 4.005zM273.009 318.83c-4.756 2.12-11.928-.806-16.059-5.703-9.433-11.184-14.2-24.594-17.325-38.361-3.416-15.048-4.074-30.492-.595-45.828 2.76-12.161 13.442-17.686 22.502-11.31-2.361.684-4.452 1.022-6.902 1.426-6.52 2.138-8.575 4.752-8.543 12.477.048 11.26-.54 22.703 1.248 33.727 2.025 12.48 5.998 24.705 9.9 36.79 1.596 4.94 5.146 9.304 10.923 11.253 1.391 1.078 2.615 1.877 3.965 2.953.378 1.044.632 1.81.886 2.577M139.119 169.038c-.615 5.673-4.744 8.196-9.374 9.917-13.874 5.157-27.759 3.177-41.585-.38-12.864-3.311-25.263-7.952-36.27-15.412-5.96-4.04-11.532-8.624-14.166-16.257-2.31-6.695.148-10.747 4.908-14.492-.006 2.03-.322 3.806-.863 5.887-1.371 4.808-.347 8.577 3.787 11.028 7.542 4.47 14.852 9.497 22.806 13.075 16.42 7.389 33.428 13.255 51.814 12.424 3.666-.166 7.234-2.497 11.187-3.84 1.447-.67 2.554-1.327 4.07-1.986 1.501.012 2.594.024 3.686.036M219.83 76.996c1.637 9.077-4.362 14.652-10.511 18.59-10.878 6.966-23.134 10.679-36.064 13.081-14.98 2.783-29.594 3.59-44.17-.758-9.136-2.725-16.997-9.195-12.955-19.704.548-.775.703-1.04.818-1.33 0 0 .035.082.23.345.735 2.103 1.276 3.944 1.88 6.137 1.403 4.783 4.153 7.7 8.979 7.677 14.581-.068 29.212.384 43.726-.685 11.75-.865 23.465-3.55 33.741-9.808 3.093-1.884 5.05-5.635 7.843-8.623 1.105-1.364 1.892-2.636 3.003-3.962 1.377-.355 2.428-.658 3.48-.96M249.105 156.956c3.421 3.315 2.672 7.694 1.187 10.968-2.557 5.637-5.648 11.41-9.876 15.82-6.594 6.881-13.77 13.52-21.702 18.73-12.558 8.25-26.28 14.614-41.464 16.319-10.921 1.226-21.192-3.845-19.424-15.4 1.77 1.906 2.97 3.759 4.356 5.916 3.512 5.173 8.402 4.294 12.797 3.07 21.661-6.035 41.327-16.13 58.535-30.621 5.736-4.83 11.87-9.949 11.753-18.984.727-1.404 1.221-2.584 1.805-4.07.737-.787 1.385-1.268 2.033-1.748M125.99 204.17c4.522 2.207 6.81 7.584 6.308 14.06-1.143 14.76-7.855 27.154-16.01 39.052-6.751 9.85-14.427 18.873-24.102 25.836-6.984 5.027-14.251 10.09-23.913 7.973-3.813-.836-6.079-2.768-6.97-6.617 1.434-.04 2.562.25 3.936.787 4.3 3.174 8.396 3.115 12.071-.18 8.491-7.61 17.385-14.883 25.08-23.246 9.444-10.263 17.998-21.497 22.45-34.967 1.517-4.59.838-9.907 1.164-15.29-.003-1.46-.009-2.521-.013-3.966zM203.08 240.868c5.882.47 8.263 4.925 9.845 9.515 5.07 14.716 3.264 29.59.005 44.33-3.09 13.977-8.313 27.154-17.137 38.547-2.51 3.242-6.082 5.959-9.69 7.984-5.767 3.236-9.62 2.255-14.668-2.865 1.686-.014 3.127.298 4.995.613 5.896.763 9.68-1.515 12.18-6.342 1.6-3.087 3.51-6.013 5.098-9.106 8.647-16.854 13.646-34.88 16.037-53.545.971-7.58 1.39-15.673-4.785-22.347-.689-1.438-1.324-2.553-1.958-4.058.028-1.17.053-1.948.078-2.726"/><path fill="#efca82" d="M261.001 53.008c.956-.833 1.912-1.665 2.953-2.81 7.92 2.282 12.977 8.363 16.884 14.908 4.913 8.23 9.954 16.848 12.402 25.98 4.164 15.529 7.277 31.543 2.803 47.767-1.652 5.991-5 10.768-10.62 14.157-.988-1.112-1.624-2.238-2.115-3.928 1.73-2.412 4.202-4.034 4.744-6.15 1.988-7.77 4.77-15.728 4.628-23.567-.308-16.93-5.3-33.034-13.594-47.808-3.789-6.749-7.086-14.6-16.384-16.635-.765-.69-1.233-1.302-1.7-1.914M300.395 212.955c-.409-1.44-.395-2.8.022-4.486 9.11 2.266 16.974-.664 23.218-5.97 8.772-7.455 17.515-15.409 24.3-24.603 6.404-8.679 10.633-19.073 15.05-29.053 1.73-3.908 2.913-8.882-.986-13.3L362 131c1.473.627 2.946 1.253 4.762 1.922 3.57 8.104 1.6 15.756-1.458 23.34-5.387 13.364-11.476 26.278-22.204 36.397-8.67 8.18-16.56 17.624-28.844 20.413-4.257.967-8.947.03-13.86-.117M273.378 318.902c-.623-.838-.877-1.604-1.028-2.888 1.903-2.445 4.008-4.169 5.448-6.335 4.993-7.51 5.913-16.27 6.064-24.853.343-19.587-5.48-37.736-14.967-54.678-2.337-4.173-4.86-9.022-11.187-9.304-1.08-.718-1.9-1.287-2.72-1.856 2.092-.338 4.183-.676 6.694-1.022 7.732 2.692 10.69 9.425 13.96 15.49 3.342 6.199 6.37 12.794 8.098 19.582 2.31 9.073 3.487 18.467 4.68 27.783 1.158 9.051.12 18.014-3.475 26.462-2.215 5.203-4.811 10.343-11.567 11.62M41.994 137.997c.316-1.777.632-3.554.955-5.719 5.132-2.021 10.187-4.734 15.395-5.068 12.027-.771 24.219-.53 35.695 3.84 9.269 3.53 18.338 7.635 27.31 11.876 7.315 3.458 12.904 9.037 16.245 16.45 1.284 2.847 1.493 6.18 1.858 9.477-1.425.173-2.518.161-4.025-.267-.275-9.773-7.155-14.767-13.4-19.374-19.417-14.325-41.882-18.751-65.52-18.014-4.016.125-8.981.351-10.864 5.861-1.442.35-2.546.644-3.65.938M219.802 76.646c-1.024.652-2.075.955-3.605 1.004-2.71-2.382-4.661-4.967-7.228-6.557-8.224-5.09-17.72-5.842-26.952-5.922-16.868-.146-32.952 4.156-48.016 11.671-5.362 2.675-11.407 5.224-13.25 12.405-.726 1.41-1.24 2.584-1.755 3.757-.542-1.84-1.083-3.681-1.856-5.808 4.713-10.61 14.858-13.792 24.174-18.206 16.37-7.758 33.821-9.18 51.387-7.77 10.806.867 21.54 3.813 27.1 15.426M161.997 209.005a303 303 0 0 0-3.83-5.809c1.458-4.707 2.029-10.213 5.044-13.423 8.451-8.997 17.14-18.144 27.172-25.188 12.116-8.508 25.965-14.544 41.131-15.397 6.472-.364 13.3.67 17.548 7.405-.605.843-1.253 1.324-2.284 1.931-5.792-4.94-12.431-5.25-19.109-4.13-24.402 4.09-43.49 17.416-59.67 35.365-3.738 4.147-7.117 8.94-5.998 15.64zM64.992 285.013c-1.127-.29-2.255-.579-3.73-.904-.348-.035-.29-.066-.394-.245-.269-.444-.47-.675-.71-.873-3.152-10.795.973-20.514 4.976-30.015 7.711-18.301 19.759-33.378 36.194-44.587 4.283-2.92 9.507-4.835 14.576-6.08 2.833-.696 6.236.932 9.734 1.687.353 1.194.354 2.213.017 3.453-7.113-3.49-13.065-.215-18.6 2.977-23.553 13.584-36.63 35.076-43.985 60.423-.945 3.258 1.21 7.416 1.929 11.533zM176.004 338.989a114 114 0 0 0-4.695-.942c-.371-.007-.315-.025-.416-.204-.256-.437-.452-.66-.69-.847-1.73-4.29-4.887-8.567-4.923-12.87-.102-12.501-.031-25.19 1.998-37.47 2.193-13.269 7.832-25.756 16.26-36.42 4.652-5.889 10.826-10.444 19.355-9.72.162 1.13.137 1.909-.294 3.083-3.186 1.327-6.597 1.546-8.616 3.336-4.31 3.821-8.642 7.995-11.65 12.84-11.503 18.53-15.16 39.14-14.162 60.623.269 5.786.377 12.238 6.957 15.881.38 1.097.628 1.903.876 2.71M116.69 86.962c.143.202-.012.468-.375.868-.073-.155.023-.468.376-.868"/><path fill="#e7bf89" d="M60.11 283.262c.287-.073.49.158.748.634-.201.019-.498-.172-.748-.634M170.166 337.254c.275-.071.47.152.714.616-.191.018-.472-.17-.714-.616"/><path fill="#f1cf7e" d="M260.648 53.067c.821.553 1.29 1.165 2.114 2.204 2.635 3.86 5.118 7.175 7.16 10.743 14.695 25.676 19.41 52.504 9.048 80.996-4.106-3.693-9.512-6.655-12.08-11.215-8.25-14.652-12.157-30.87-13.837-47.54-.765-7.589-.871-15.255-1.017-22.892-.153-8.018.766-9.175 8.612-12.296"/><path fill="#f0d796" d="M279.16 147.291c10.173-28.773 5.457-55.6-9.238-81.277-2.042-3.568-4.525-6.884-6.863-10.665 8.94 1.608 12.238 9.46 16.027 16.208 8.294 14.774 13.286 30.878 13.594 47.808.142 7.839-2.64 15.798-4.628 23.566-.542 2.117-3.014 3.739-4.829 5.836-1.443-.233-2.658-.714-4.063-1.476"/><path fill="#f1cf7e" d="M361.715 130.762c.285 1.615.285 2.991.059 5.076-4.564 17.417-12.266 32.133-24.487 44.623-10.649 10.884-22.275 19.775-37.293 23.52-3.121-8.3.708-15.591 4.398-22.226 10.581-19.026 24.518-35.377 41.98-48.556 4.533-3.42 9.285-6.03 15.343-2.437"/><path fill="#f0d796" d="M299.993 204.382c15.019-4.146 26.645-13.037 37.294-23.92 12.22-12.49 19.923-27.207 24.486-44.211 4.125 3.71 2.942 8.684 1.212 12.592-4.417 9.98-8.646 20.374-15.05 29.053-6.785 9.194-15.528 17.148-24.3 24.602-6.244 5.307-14.108 8.237-23.213 5.563-.41-1.148-.42-2.213-.43-3.68"/><path fill="#f1cf7e" d="M254.63 219.054c1.179.503 1.999 1.072 3.152 2.135 3.572 6.265 7.887 11.7 9.816 17.88 3.529 11.3 6.825 22.92 8.043 34.632 1.409 13.533-.332 27.148-7.65 39.322-5.61-1.671-9.16-6.036-10.755-10.975-3.903-12.085-7.876-24.31-9.901-36.79-1.789-11.024-1.2-22.467-1.248-33.727-.032-7.725 2.022-10.34 8.543-12.477"/><path fill="#f0d796" d="M268.158 313.301c7.15-12.452 8.892-26.067 7.483-39.6-1.218-11.713-4.514-23.332-8.043-34.633-1.93-6.18-6.244-11.614-9.556-17.73 5.993-.212 8.516 4.637 10.853 8.81 9.487 16.942 15.31 35.09 14.967 54.678-.15 8.584-1.071 17.344-6.064 24.853-1.44 2.166-3.545 3.89-5.573 6.057-1.452-.558-2.676-1.357-4.067-2.435"/><path fill="#f1cf7e" d="M41.77 138.3c1.327-.597 2.43-.891 4.314-1.243 10.5.206 20.324-.32 29.92.919 14.187 1.832 27.054 7.714 38.776 15.949 6.547 4.6 12.723 9.58 16.243 17.074-3.613 1.332-7.181 3.663-10.847 3.829-18.386.831-35.395-5.035-51.814-12.424-7.954-3.578-15.264-8.605-22.806-13.075-4.134-2.45-5.158-6.22-3.787-11.028"/><path fill="#f0d796" d="M131.363 170.988c-3.86-7.483-10.036-12.463-16.583-17.063-11.722-8.235-24.59-14.117-38.777-15.949-9.595-1.239-19.419-.713-29.58-.975 1.103-5.452 6.068-5.678 10.084-5.803 23.638-.737 46.103 3.69 65.52 18.014 6.245 4.607 13.125 9.601 12.99 19.375-1.1 1.074-2.207 1.732-3.654 2.4"/><path fill="#f1cf7e" d="M119.059 93.357c.451-1.526.966-2.7 2.063-4.127a455 455 0 0 0 5.04-2.326c6.297-2.968 12.37-6.61 18.931-8.775 15.012-4.954 30.577-7.029 46.197-3.89 7.466 1.5 14.507 5.114 21.74 7.771-2.477 2.896-4.433 6.647-7.526 8.531-10.275 6.259-21.992 8.943-33.74 9.808-14.515 1.07-29.146.617-43.727.685-4.826.023-7.576-2.894-8.978-7.677"/><path fill="#f0d796" d="M213.347 81.918c-7.55-2.565-14.591-6.18-22.057-7.68-15.62-3.138-31.185-1.063-46.197 3.891-6.56 2.166-12.634 5.807-18.93 8.775-1.483.699-2.973 1.382-4.831 2.089 1.262-6.927 7.307-9.476 12.67-12.15 15.063-7.516 31.147-11.818 48.015-11.672 9.233.08 18.728.831 26.952 5.922 2.567 1.59 4.517 4.175 6.903 6.61-.633 1.58-1.42 2.851-2.525 4.215"/><path fill="#f1cf7e" d="M162.182 209.31c-.184-1.374-.183-2.443.109-4.08 1.16-1.56 2.139-2.474 2.88-3.551 12.264-17.833 29.392-29.024 49.602-35.66 9.755-3.204 19.795-5.868 30.263-3.022.349 8.812-5.786 13.93-11.522 18.76-17.208 14.492-36.874 24.587-58.535 30.622-4.395 1.224-9.285 2.103-12.797-3.07"/><path fill="#f0d796" d="M245.267 162.774c-10.699-2.623-20.739.041-30.494 3.245-20.21 6.636-37.338 17.827-49.602 35.66-.741 1.077-1.72 1.991-2.88 3.15-1.41-6.13 1.97-10.923 5.708-15.07 16.18-17.949 35.268-31.275 59.67-35.365 6.678-1.12 13.317-.81 19.02 4.437-.2 1.36-.695 2.54-1.422 3.943"/><path fill="#f1cf7e" d="M65.24 285.261c-.246-1-.244-1.752-.089-3.232 5.176-24.826 17.885-44.085 37.355-58.858 6.977-5.294 14.35-10.231 23.496-11.194-.324 4.984.355 10.3-1.162 14.891-4.452 13.47-13.006 24.704-22.45 34.967-7.695 8.363-16.589 15.635-25.08 23.247-3.675 3.294-7.77 3.353-12.07.18"/><path fill="#f0d796" d="M126.004 211.579c-9.148 1.361-16.521 6.298-23.498 11.592-19.47 14.773-32.179 34.032-37.355 58.482-.871-3.388-3.026-7.546-2.08-10.804 7.355-25.347 20.431-46.839 43.984-60.423 5.535-3.192 11.487-6.467 18.599-2.595.341 1.226.347 2.288.35 3.748"/><path fill="#f1cf7e" d="M176.43 338.992c-.674-.81-.922-1.616-1.307-3.135-.482-9.607-1.52-18.538-1.03-27.385 1.044-18.774 8.018-35.566 19.6-50.281 3.1-3.936 7.51-6.839 11.32-10.216 6.122 6.351 5.703 14.444 4.732 22.024-2.391 18.665-7.39 36.691-16.037 53.545-1.587 3.093-3.498 6.02-5.097 9.106-2.502 4.827-6.285 7.105-12.181 6.342"/><path fill="#f0d796" d="M204.96 247.652c-3.756 3.7-8.168 6.603-11.266 10.539-11.583 14.715-18.557 31.507-19.6 50.28-.492 8.848.547 17.78.897 27.095-6.443-2.93-6.551-9.382-6.82-15.168-.999-21.483 2.66-42.094 14.162-60.622 3.008-4.846 7.34-9.02 11.65-12.841 2.019-1.79 5.43-2.01 8.614-2.946 1.039 1.11 1.674 2.225 2.363 3.663"/></svg>