<svg xmlns="http://www.w3.org/2000/svg" width="800" height="800" class="icon" viewBox="0 0 1024 1024"><path fill="#E65100" d="M915 523 693 330 501 108c-109 1-232 62-295 126C75 367 91 609 150 741v1c23 47-8 109 7 124l1 1c16 15 77-15 124 7l1 1c133 58 374 74 507-57 64-63 124-186 125-295"/><path fill="#D84315" d="M458 233c-23 3-51 11-76 20a376 376 0 0 0-72 38q-36 23-62 53-25 32-42 71-30 79-35 167a884 884 0 0 0 6 173 890 890 0 0 1-21-174q-3-88 22-176a308 308 0 0 1 104-150 425 425 0 0 1 77-52q40-21 90-33z"/><path fill="#D84315" d="M525 355c-39 12-81 32-118 56a406 406 0 0 0-52 41 326 326 0 0 0-43 50q-38 56-63 120a868 868 0 0 0-41 133 879 879 0 0 1 26-138q17-68 51-132a359 359 0 0 1 41-61 453 453 0 0 1 53-52q55-46 126-78zm89 100L223 801l346-391zm240 120q-12 50-34 90a427 427 0 0 1-51 77q-28 36-67 64-39 27-83 40-87 25-176 22a886 886 0 0 1-174-21q87 12 174 6 87-5 166-35 40-17 70-42c20-16 39-39 54-61a377 377 0 0 0 37-73c10-25 18-53 20-76z"/><path fill="#D84315" d="M729 519q-30 70-77 126a454 454 0 0 1-52 53 359 359 0 0 1-60 41q-65 33-133 52-67 18-138 26a864 864 0 0 0 133-41q65-26 121-64a326 326 0 0 0 50-43 411 411 0 0 0 40-52c24-37 44-79 56-118z"/><path fill="#FB8C00" d="M251 776c-40-40-82-69-118-83q6 26 17 50c23 60-7 109 8 124 16 15 77-15 124 7l1 1q25 11 52 17c-15-35-44-77-84-116m659-199c28-123-35-228-133-327L576 452c19-1 106 15 106 106 56-29 106-16 151 60 30-71 77-41 77-41M450 113c126-24 229 40 327 137L576 452c1-19-15-106-106-106 29-57 16-106-60-151 71-30 40-82 40-82"/><path fill="#EF6C00" d="M645 260a69 30 45 1 0 98 98 69 30 45 1 0-98-98"/></svg>