<svg xmlns="http://www.w3.org/2000/svg" xml:space="preserve" viewBox="0 0 400 400"><path d="M203.97 147.661c3.323.097 6.651.351 9.97.259 8.467-.236 16.03-3.481 22.073-9.035 13.045-11.991 8.196-29.434 1.73-39.677-4.328-6.854-10.112-11.848-16.907-16.287-14.169-9.257-29.217-13.566-45.871-9.745-10.956 2.514-18.74 9.211-21.442 20.533-2.836 11.884 2.24 21.88 9.05 30.828 10.121 13.296 24.094 20.449 41.397 23.124m-16.068 73.735c2.892-5.741 6.77-11.21 8.455-17.286 2.815-10.148 3.615-20.905-.755-30.815-7.458-16.914-25.962-22.028-43.44-13.952-11.065 5.113-20.196 12.575-25.065 23.847-4.658 10.786-8.331 21.572-6.51 34.255 2.326 16.196 17.896 27.96 34.029 25.094 13.658-2.427 24.709-9.24 33.286-21.143m57.525 54.593c8.123.641 15.042-2.663 21.224-7.275 15.335-11.442 26.492-35.22 18.895-56.19-4.705-12.988-12.397-19.361-24.589-21.238-10.861-1.673-21.058 2.033-28.892 9.524-11.63 11.122-18.804 25.02-18.86 41.377-.064 18.379 10.522 35.248 32.222 33.802m-34.944 19.02c-17.47-1.156-31.732 5.39-41.991 19.252-9.62 13-9.187 29.23 4.444 40.48 9.147 7.548 19.715 9.773 31.172 9.247 17.49-.803 31.798-7.499 41.428-22.637 8.486-13.341 5.106-29.961-7.607-39.435-7.969-5.937-17.014-7.022-27.446-6.907m69.114-199.022c-7.909 4.435-12.532 10.8-15.251 19.809-4.306 14.26-1.395 26.26 8.03 36.93 10.094 11.429 23.36 13.819 37.802 11.69 11.085-1.634 20.24-7.29 24.864-17.175 10.422-22.282 2.713-47.473-25.294-55.18-10.056-2.766-20.125-1.405-30.151 3.926m-150.92 16.984c-4.233-13.28-14.622-20.217-27.918-20.897-11.057-.565-20.182 4.126-28.068 11.534-15.291 14.364-21.326 31.866-16.252 52.306 2.72 10.962 9.83 18.64 21.524 21.165 17.741 3.831 30.989-4.103 41.21-17.158 10.55-13.474 15.24-28.943 9.505-46.95m153.404 190.96c.274 5.726-1.299 11.658 2.375 16.968 5.915 8.552 16.51 12.35 28.456 9.516 21.84-5.181 36.664-18.635 43.268-39.913 3.574-11.519-.555-24.507-14.749-29.04-5.645-1.803-10.424-.09-15.586.662-18.604 2.712-40.472 21.397-43.764 41.808m-140.057 5.5c3.825-6.649 5.202-13.774 4.988-21.454-.448-16.018-8.816-25.86-23.964-28.965-21.172-4.339-39.62 4.18-49.365 23.66-6.986 13.965-6.494 28.527 4.376 40.283 9.38 10.145 21.567 10.341 33.773 8.42 13.235-2.084 22.733-10.244 30.192-21.943"/><path fill="#3f1b00" d="M203.523 147.595c-16.856-2.61-30.829-9.762-40.95-23.058-6.81-8.948-11.886-18.944-9.05-30.828 2.702-11.322 10.486-18.02 21.442-20.533 16.654-3.821 31.702.488 45.871 9.745 6.795 4.439 12.58 9.433 16.906 16.287 6.467 10.243 11.316 27.686-1.729 39.677-6.042 5.554-13.606 8.799-22.073 9.035-3.319.092-6.647-.162-10.417-.325m-33.133-26.5c11.986 12.715 26.44 19.305 44.167 17.966 17.498-1.322 25.984-16.055 18.235-31.785-8.975-18.22-33.759-30.698-53.695-27.034-10.06 1.848-16.591 8.218-17.723 17.674-1.073 8.958 2.929 16.135 9.016 23.178M187.702 221.694c-8.377 11.604-19.428 18.418-33.086 20.845-16.133 2.866-31.703-8.898-34.029-25.094-1.821-12.683 1.852-23.47 6.51-34.255 4.87-11.272 14-18.734 25.065-23.847 17.478-8.076 35.982-2.962 43.44 13.952 4.37 9.91 3.57 20.667.755 30.815-1.685 6.076-5.563 11.545-8.655 17.584m-38.673-51.242c-11.877 8.817-20.578 19.498-22.724 34.871-2.896 20.745 14.81 35.457 34.312 28.07 19.68-7.455 32.573-29.683 29.281-50.486-1.642-10.38-8.947-17.316-19.423-18.322-7.596-.73-14.484 1.385-21.446 5.867M244.952 275.99c-21.225 1.445-31.81-15.424-31.748-33.803.057-16.357 7.23-30.255 18.86-41.377 7.835-7.491 18.032-11.197 28.893-9.524 12.192 1.877 19.884 8.25 24.59 21.239 7.596 20.969-3.561 44.747-18.896 56.189-6.182 4.612-13.101 7.916-21.699 7.276m-10.865-9.299c3.908.566 7.865 1.837 11.716 1.57 12.621-.875 21.083-8.481 27.003-18.878 7.487-13.148 9.914-26.888 1.34-40.602-4.975-7.956-14.676-11.409-23.555-8.599-13.82 4.375-23.861 13.047-28.225 27.165-4.571 14.789-2.068 31.984 11.721 39.344M210.974 295.01c9.941-.116 18.986.969 26.955 6.906 12.713 9.474 16.093 26.094 7.607 39.435-9.63 15.138-23.938 21.834-41.428 22.637-11.457.526-22.025-1.699-31.172-9.248-13.631-11.248-14.065-27.48-4.444-40.479 10.26-13.863 24.521-20.408 42.482-19.252m9.165 57.771c2.634-1.423 5.424-2.62 7.872-4.312 7.026-4.857 12.77-10.782 13.977-19.74 1.928-14.316-7.583-22.988-21.369-26.198-13.309-3.098-26.64-.456-37.978 7.96-8.95 6.643-14.483 15.285-12.124 27.061 1.716 8.563 11.84 16.97 22.396 18.158 8.93 1.006 17.976 1.208 27.226-2.929M279.922 95.812c9.7-5.156 19.77-6.517 29.826-3.75 28.007 7.706 35.716 32.897 25.294 55.179-4.624 9.884-13.779 15.54-24.864 17.175-14.443 2.129-27.708-.261-37.803-11.69-9.424-10.67-12.335-22.67-8.03-36.93 2.72-9.008 7.343-15.374 15.577-19.984m10.941 4.304c-10.547 3.31-18.524 9.813-20.891 20.735-4.7 21.678 14.843 40.11 37.713 36.205 17.1-2.92 27.084-18.222 22.883-35.069-3.967-15.9-20.894-25.491-39.705-21.87M128.77 113.36c5.643 17.618.953 33.087-9.597 46.561-10.221 13.055-23.469 20.99-41.21 17.158-11.694-2.525-18.803-10.203-21.524-21.165-5.074-20.44.961-37.942 16.252-52.306 7.886-7.408 17.011-12.1 28.068-11.534 13.296.68 23.685 7.617 28.01 21.287m-27.514-13.363c-11.818-.405-21.256 4.355-28.83 13.223-5.886 6.894-9.571 14.932-10.985 23.745-3.202 19.966 9.497 40.658 34.984 31.856 18.13-6.26 31.33-32.18 25.782-50.529-3.018-9.98-8.989-16.99-20.951-18.295"/><path fill="#3e1b00" d="M282.114 303.487c3.26-19.966 25.128-38.651 43.732-41.363 5.162-.752 9.94-2.465 15.586-.662 14.194 4.533 18.323 17.521 14.749 29.04-6.604 21.278-21.428 34.732-43.268 39.913-11.946 2.835-22.54-.964-28.456-9.516-3.674-5.31-2.101-11.242-2.343-17.412m62.737-30.855c-5.06-3.905-10.897-4.91-16.984-3.933-13.415 2.151-23.722 9.662-31.17 20.532-3.53 5.152-5.933 11.575-7.07 17.749-1.665 9.057 4.765 15.665 14.032 16.039 18.794.759 40.952-16.365 44.768-34.777 1.109-5.352.8-10.626-3.576-15.61"/><path fill="#3f1b00" d="M141.891 309.778c-7.325 11.354-16.823 19.514-30.058 21.598-12.206 1.921-24.393 1.725-33.773-8.42-10.87-11.756-11.362-26.318-4.376-40.283 9.744-19.48 28.193-27.999 49.366-23.66 15.147 3.105 23.515 12.947 23.963 28.965.214 7.68-1.163 14.805-5.122 21.8m-1.877-18.442c-.077-13.424-8.663-25.028-19.994-27.025-18.507-3.261-39.5 11.207-43.184 29.763-3.653 18.399 8.28 32.771 27.052 31.729 17.957-.997 33.59-14.542 36.126-34.467"/><path fill="#6d360e" d="M170.152 120.826c-5.849-6.775-9.85-13.952-8.778-22.91 1.132-9.456 7.663-15.826 17.723-17.674 19.936-3.664 44.72 8.814 53.695 27.034 7.749 15.73-.737 30.463-18.235 31.785-17.727 1.339-32.181-5.251-44.405-18.235"/><path fill="#6d370e" d="M149.333 170.251c6.658-4.281 13.546-6.395 21.142-5.666 10.476 1.006 17.781 7.941 19.423 18.322 3.292 20.803-9.6 43.031-29.28 50.486-19.503 7.387-37.21-7.325-34.313-28.07 2.146-15.373 10.847-26.054 23.028-35.072M233.745 266.522c-13.447-7.191-15.95-24.386-11.379-39.175 4.364-14.118 14.404-22.79 28.225-27.165 8.879-2.81 18.58.643 23.555 8.6 8.574 13.713 6.147 27.453-1.34 40.6-5.92 10.398-14.382 18.004-27.003 18.879-3.85.267-7.808-1.004-12.058-1.739M219.782 352.921c-8.893 3.996-17.94 3.794-26.869 2.788-10.557-1.189-20.68-9.595-22.396-18.158-2.36-11.776 3.175-20.418 12.124-27.06 11.339-8.417 24.669-11.06 37.978-7.96 13.786 3.209 23.297 11.881 21.37 26.197-1.207 8.958-6.952 14.883-13.978 19.74-2.448 1.693-5.238 2.89-8.229 4.453M291.273 100.036c18.4-3.54 35.328 6.05 39.295 21.951 4.201 16.847-5.783 32.149-22.883 35.07-22.87 3.905-42.413-14.528-37.713-36.206 2.367-10.922 10.344-17.425 21.301-20.815M101.7 100.017c11.517 1.286 17.488 8.296 20.506 18.276 5.548 18.35-7.652 44.268-25.782 50.529-25.487 8.802-38.186-11.89-34.984-31.856 1.414-8.813 5.099-16.851 10.985-23.745 7.574-8.868 17.012-13.628 29.276-13.204"/><path fill="#6d360e" d="M345.113 272.899c4.114 4.717 4.423 9.991 3.314 15.343-3.816 18.412-25.974 35.536-44.768 34.777-9.267-.374-15.697-6.982-14.031-16.04 1.136-6.173 3.54-12.596 7.07-17.748 7.447-10.87 17.754-18.38 31.169-20.532 6.087-.977 11.924.028 17.246 4.2"/><path fill="#6d370e" d="M139.996 291.782c-2.517 19.48-18.15 33.024-36.108 34.02-18.772 1.043-30.705-13.33-27.052-31.728 3.685-18.556 24.677-33.024 43.184-29.763 11.331 1.997 19.917 13.601 19.976 27.47"/></svg>