<svg xmlns="http://www.w3.org/2000/svg" xml:space="preserve" viewBox="0 0 1300 1300"><path fill="#FFFFFE" d="M865 1301M161 742l-13 19q-15 20-22 42-9 32-5 65a365 365 0 0 0 67 145q24 31 56 53a240 240 0 0 0 274-6q33-23 58-53 29-36 46-79 15-42 9-85-6-41-28-77a381 381 0 0 0-94-111q-31-25-69-39-21-8-42-9c-31-2-59 8-86 19a378 378 0 0 0-151 116m698-168a273 273 0 0 0 82-161q5-35 0-70-11-58-54-98-27-27-58-46-54-34-116-49-36-7-71-3-40 7-70 32-25 19-46 43a400 400 0 0 0-79 140q-11 34-11 69l4 33q1 17 12 29l4 6q15 21 32 41 29 33 67 57 23 15 47 27 33 15 71 17a240 240 0 0 0 186-67m39 97-8 1-26 3q-22 5-44 13-23 9-41 25a332 332 0 0 0-36 42 490 490 0 0 0-31 80q-5 16-8 33-7 28-8 57-2 32 3 62 2 18 7 36l14 32q10 19 27 32l50 33 23 10 49 17q18 4 37 6l29 5q32 1 62-7 21-4 40-13l21-10 18-11q16-10 28-22 16-17 31-36 11-14 19-32l13-29a353 353 0 0 0 16-87q0-23-2-45l-5-33q-6-34-25-61-12-18-26-33-21-21-49-33l-35-16-17-6-24-5q-17-6-35-6h-10l-32-3z"/><path fill="#EBA935" d="M161 742q24-30 53-55 45-38 98-61c27-11 55-21 86-19q21 1 42 9 38 14 69 39a403 403 0 0 1 94 111q22 35 28 77 6 43-9 85a273 273 0 0 1-104 132q-38 27-82 38a239 239 0 0 1-192-32q-32-22-55-53-21-27-37-57c-15-28-28-56-31-88q-4-33 5-65 7-23 22-42zm-37 122 4 16h1l2-8q0-8 5-14 7-5 8-10 1-8 6-10l1-2-1-21q-2-9-1-16 5-10 3-20l-3-4-6 2-2 2-1 5-1 1-5 9-6 16-2 18zm233-171 47-4 56 2q5 0 7-3 1-3-1-7-6-9-16-13-31-17-67-17-37 3-69 23-8 5-14 15l1 8q3 5 8 4l15-3zm502-118q-40 38-93 56a240 240 0 0 1-164-7q-24-12-47-27-38-24-67-57-18-20-32-41l-4-6q-11-12-12-29l-4-33q-1-35 11-69a373 373 0 0 1 125-183q31-25 70-32 35-4 71 3a363 363 0 0 1 174 95 181 181 0 0 1 54 168 295 295 0 0 1-82 162M585 236l-14 23-2 8q0 6 4 9 6 2 10-2 36-27 77-46 24-11 48-19 8-3 3-10l-9-7q-15-5-32-3-32 0-58 20zm41 394 28 6 14 3 5-3-7-2-3-3-6-13-2-1-4-5q-1-3-4-4l-18-8q-16-3-30-11l-2-1-21 2c3 7 3 7-4 9l-2 2 1 2 11 6 14 7z"/><path fill="#E8BE73" d="m898 671 25-1 32 3h10q18 0 35 6l24 5 17 6 35 16a165 165 0 0 1 75 66q19 28 25 61l5 33 2 45q0 21-4 42l-12 45-13 29q-8 18-19 32-15 19-31 36-12 12-28 22l-18 11-21 10q-19 9-40 13-30 8-62 7l-29-5q-19-2-37-6l-49-17a219 219 0 0 1-73-43q-17-13-27-32l-14-32q-5-18-7-36a320 320 0 0 1 5-119q3-17 8-33a688 688 0 0 1 31-80q5-9 11-15 12-15 25-27 18-16 41-25 22-8 44-13l26-3zm267 134-1-3-17-32q-4-9-12-17a261 261 0 0 0-36-32l-32-17q-24-12-49-17l-39-10-5-2-31-2h-45l-16 1-27 6-23 6-22 10q-10 4-18 10a311 311 0 0 0-47 51l-9 22-14 32a333 333 0 0 0-20 85 427 427 0 0 0-2 72c4 18 3 37 9 54q7 20 17 38 15 22 38 37l24 15a369 369 0 0 0 56 25l16 4 46 11 34 3q32 1 62-8a233 233 0 0 0 65-28l29-21q25-21 43-49l18-32 8-20 3-7 9-39 4-34-1-21-3-14-2-28q-1-25-10-49"/><path fill="#FEFDF6" d="m357 693-33 5-15 3q-6 1-8-4l-1-8q6-10 14-15 32-20 69-23 36 0 67 17 10 4 16 13 2 4 1 7-2 3-7 3l-56-2q-24 0-47 4"/><path fill="#EEA82D" d="m135 794 5-9 2-1-2-1 2-4h3l-2-2 6-2 3 4q2 10-3 20-1 7 1 16v23q-5 2-6 10-1 5-8 10-5 5-5 14l-2 8h-1l-3-16q4 2 4-2l6-12 1-3q-2-4 3-7 3-3 0-7l-2-5-1-11 3-7 4-7 1-10v-7z"/><path fill="#EEAA29" d="m135 794 9-8v7l-1 10-4 7-3 7 1 11 2 5q3 4 0 7-4 3-3 7l-1 3-6 12q0 4-4 2l3-54zm8-17 2 2h-3zm-3 6 2 1-2 1z"/><path fill="#FEFCF5" d="m585 236 27-27q26-20 58-20 17-2 32 3l9 7q5 7-3 10-24 8-48 19-41 19-77 46-4 4-10 2-4-3-4-9l2-8z"/><path fill="#F1A82A" d="m626 629-30-13-14-7-11-6-1-2 2-2c7-2 7-2 4-9l21-2 2 1q14 8 30 11l18 8q3 1 4 4l4 5 2 1 6 13 3 3 7 2-5 3-14-3z"/><path fill="#ECAB3A" d="m1181 918-4 33-9 39-3 7-8 20-18 32q-18 27-43 49l-29 21a295 295 0 0 1-65 28q-30 9-62 8l-34-3-46-11-16-4-35-14-21-11-24-15q-23-15-38-37-10-18-17-38c-6-17-5-36-9-54l-2-28a427 427 0 0 1 24-129l14-32 9-22q9-13 19-24l28-27q8-6 18-10l22-10 23-6 43-7h45l31 2 5 2 39 10q25 6 49 17l32 17 16 13 20 19q8 8 12 17l17 32 1 3-4-2v9c-3 9 0 18-2 26l1 6q7 15 4 30 0 8 3 14 7 8 7 20 1 8 7 10"/><path fill="#F4B238" d="M1181 918q-6-2-7-10 0-11-7-20-3-6-3-14 3-15-4-30l-1-6c2-8-1-17 2-26v-9l4 3q9 22 10 48l2 28 3 14z"/></svg>