<svg xmlns="http://www.w3.org/2000/svg" xml:space="preserve" viewBox="0 0 320 320"><path fill="#F2F2F2" d="M215 321M73 186l-1 4h-1q-9 22-1 46c12 34 46 52 81 45q36-8 51-44l5-28q37-4 54-36c16-32 10-70-14-96a70 70 0 0 0-93-12c-25 18-33 44-32 75l-19 10a116 116 0 0 0-28 33l-1 1z"/><path fill="#693062" d="M121 139c-1-30 7-56 32-74 29-20 69-15 93 12 24 26 30 64 14 96a67 67 0 0 1-54 36q-7-31-31-54-16-16-40-16zm42-61-9 3q-14 10-14 28 0 6 6 8 5 2 9-5l11-23q4-6-3-11m33-17-20 1 5 5-1 1q-4 2-2 6l5-1q4-3 8 0h5l-1-5-1-1h1z"/><path fill="#953754" d="M121 139h14q24 0 40 16 24 23 30 54l-5 29-10 12a71 71 0 0 1-49 19q-27 2-51-13-13-8-20-22l-1-7 4-1v-4l1-16v14q6 23 28 34 28 12 58 4c25-7 44-34 32-63q-10-26-33-41-18-12-38-4l-15 7c4-5 0-6-3-7z"/><path fill="#6B3260" d="M70 235q7 13 20 21 24 15 51 13 28 0 49-19l10-12q-14 34-50 43c-35 7-69-11-81-46z"/><path fill="#973958" d="m74 206-2 1 1 15v4l-4 1-2-2q-1-13 2-27l2-8 2-4 1-3 3-5q11-16 26-28c3 1 7 2 3 7l-1 2q-19 16-29 38l-1 2-1 5z"/><path fill="#984D64" d="m70 190-1 8q-3 14-2 27l2 2 1 7-1 1q-8-22 1-45m7-12-3 5zm-5 8-1 4zm1-2v2z"/><path fill="#7D4374" d="M163 78q7 5 3 11l-11 23q-4 7-9 5-6-2-6-8 0-18 14-28z"/><path fill="#4F2345" d="m196 61-1 6h-1l1 1 1 5h-5q-4-3-8 0l-5 1q-2-4 2-6l1-1-5-5z"/><path fill="#F8EDDC" d="M74 206v-3l1-4h1v-2q10-22 29-39l1-1 15-7q20-8 38 4 23 15 33 41c12 29-7 56-32 63q-30 8-58-4-22-11-28-34zm25-25-1 1-1 2-1 1-1 1v2h-1l-1 4h-1l-2 6h-1v2l-1 1-1 4v2l3 18v2l4 6v1l4 2v1l5 4 1 1h1v1l4 2 4 1 1 1h2l1 1 2 1h5l6 1q13 2 26-3h1l5-2q16-8 20-25v-19l-1-1v-1q-3-12-13-23l-3-2v-1l-1-1v-1l-3-2-1-1h-2v-1h-1v-1h-2v-1l-3-1-1-1h-1v-1a32 32 0 0 0-26 0l-4 2h-1l-2 1-6 4v1h-1l-1 1h-1l-2 2-2 2-1 1-2 2v2h-1z"/><path fill="#EAAB1E" d="m109 171 1-1 1-1 6-4h2l5 15c2 9 3 10 11 9q-2 7 3 11l4-6h5l15-10 9 7q5 6 0 11l-7 6 2 2 9-1q5-2 2-7l3-2 1 2v18q-4 17-21 25l-5 2h-1l-14 2q-6 1-7-5l-2-2-2 6h-7l-2 1-3-1-2-1h-1l-2-1-4-2h-1l-3-2-1-1-2-1q-1-4-4-4l-4-3v-1l-4-6v-2q1-10-3-18l1-2 1-3v-1l1-2 3-6 2-4 1-2 1-1 1-2 1-1 1-1 1-1 1-2 2-2 1-1 2-2zm49 58-1-1q-3-3-6 1v4l1 1 1 2 2 1 2 1v1l4-1h1v-5l-1-1-1-1-1-1zm-63-24-1 2h-1l1 2 1 2 2 1h5l3-1 1-2h1l1-1-1-1v-1l-2-1-3-1h-6zm47 32-1-2-4-3q-3 7 2 13l5-1zm-25-21 10-3q3-2-1-4l-8 1-2-4c-3 0-7 6-6 10l-1 4 8 2 5-2zm9 15q-6 3-7 11 0 5 5 2 5-4 2-13m-32-6c4 2 11 0 12-4l-1-3-8 1q-2 1-3 6m29-24c2 2 5 6 8 3s-1-6-3-8l-5-2zm33 0 10-1q5-3 0-6-3-1-7 2zm-21 21q3 4 6 2v-6q-3-4-6-4-5 3 0 8m-19-37c2 1 5 4 7 0l-4-7h-6zm46 39 8 1 1-2-6-5h-5zm-54 10q7 1 10-5 1-2-1-3c-4-2-10 3-9 8m46-21q4-5-2-6h-10l2 3zm-50-16 9 2 1-2-7-5q-5-2-3 5"/><path fill="#F1B21D" d="m163 184-15 10h-5q0-11-7-5c-8 1-9 0-11-9l-5-15v-1h1l4-2 2-1 23 2 2 1 3 2 2 1 1 1 2 1 1 1 3 2v1l1 1v2zm-16-18q-9-1-8 7l-1 5 2 4 3-2 5-8q4-4-1-6m9 15 1-5-6 1q-5 3-3 10zm-21-7-5-6q-3 2-3 4l5 9h2z"/><path fill="#E6AF3F" d="m150 163-23-2q11-3 23 2m-63 43q4 8 3 18zm3 20 4 6zm8 11q4-2 4 3zm-5-45-3 6zm1 41 4 3zm15 12 4 1zm16-83-4 2zm43 15-3-1v-2z"/><path fill="#E6AF3F" d="m95 188-2 4zm-6 13-1 3zm16 41 3 2zm59-70-3-2zm-9-7-3-1zm-46 6-2 2zm14 77h-2zm37-79-2-1zm-58 9-1 2zm-6 8-1 2zm-6 12-1 2z"/><path fill="#E6AF3F" d="m157 167-2-1zm-37-3h-2zm-9 6-1 1zm54 4-1-1zm-67 10"/><path fill="#F2B112" d="m116 216 6 4-5 2-8-2 1-4c-1-4 3-10 6-10l2 4-1 1h-1l-1 4z"/><path fill="#5D4823" d="M97 212h-1l-1-2v-3l1-1 2-1h5l1 1h2l2 2v2l-1 1-1 1-4 1h-4"/><path fill="#534025" d="M151 232v-4h6l1 1 1 1 1 1 1 1 1 1-1 5h-5l-1-1-2-2-1-1z"/><path fill="#DCA936" d="m162 233-1-1zm-1-1-1-1zm-1-1-1-1zm-1-1-1-1zm-1-1-1-1z"/></svg>