<svg xmlns="http://www.w3.org/2000/svg" xml:space="preserve" viewBox="0 0 400 400"><path d="M253 293.016s-.054.014-.02.75c8.654 18.025 23.522 21.961 40.363 13.042 10.772-5.705 18.564-15.065 25.1-24.995 13.182-20.026 22.391-42.105 28.317-65.207 4.35-16.961 7.48-34.45 8.92-51.888 1.588-19.247.567-38.622-6.575-57.198-5.424-14.108-14.071-20.925-28.086-20.548 0 0 .061-.024-.102-.54-.342.177-.683.353-1.465.597 0 0-.422.143-1.183-.015-.772.047-1.544.095-3.027.261-.71.378-1.388.835-2.133 1.123-13.872 5.368-24.62 14.608-32.829 26.841-12.261 18.275-20.34 38.509-27.298 59.244-6.347 18.914-9.159 38.387-8.93 58.291.135 11.754.352 23.519 1.04 35.249.494 8.44 2.639 16.586 7.042 24.463.282.194.564.388.867.53M238.148 34.03c-3.337-.009-6.683-.169-10.011-.001-16.28.82-29.698 8.736-41.873 18.438-16.807 13.393-31.86 28.748-44.84 45.932-5.605 7.42-11.046 15.16-15.196 23.44-6.26 12.487-11.635 25.449-16.802 38.442-4.92 12.372-8.315 25.186-7.387 39.582.327 2.245.423 4.553 1.02 6.724 2.501 9.113 5.93 16.852 16.17 20.748 12.135 4.616 22.842 1.366 33.317-3.423 14.978-6.848 27.961-16.798 39.657-28.431 12.248-12.183 24.312-24.5 33.348-39.39 7.504-12.363 15.908-24.295 22.18-37.257 5.635-11.645 9.718-24.221 12.987-36.777 2.936-11.28 3.29-22.946-1.583-34.308-2.551-5.947-12.457-14.892-20.987-13.719M22.982 323.734c-.31 1.086-.563 2.19-.936 3.254-5.19 14.788-.752 28.313 15.32 35.258 12.659 5.47 25.627 5.105 38.662 3.377 15.99-2.12 31.394-6.629 46.45-12.548 20.162-7.925 39.18-17.89 57.033-30.113 15.947-10.917 30.553-23.304 41.676-39.31 6.489-9.337 11.86-19.204 10.78-31.164-.637-7.052-3.165-13.137-10.215-17.242-2.767-1.67-5.374-3.729-8.328-4.948-16.479-6.802-33.493-6.905-50.488-2.706-10.155 2.51-20.15 5.843-29.977 9.46-11.588 4.266-23.271 8.535-34.273 14.073-15.692 7.899-28.949 19.423-42.326 30.741-13.756 11.64-26.08 24.212-33.378 41.868"/><path fill="#ecb072" d="M222.038 235.883c6.764 3.468 9.292 9.553 9.929 16.605 1.08 11.96-4.291 21.827-10.78 31.165-11.123 16.005-25.729 28.392-41.676 39.31-17.853 12.222-36.87 22.187-57.032 30.112-15.057 5.92-30.461 10.428-46.451 12.548-13.035 1.728-26.003 2.093-38.662-3.377-16.072-6.945-20.51-20.47-15.32-35.258.373-1.063.627-2.168 1.315-3.494.471 1.3.628 2.84.643 4.383.057 5.878-.705 11.996 5.17 16.404 2.24 2.444 3.949 5.296 6.461 6.6 3.657 1.898 8.201 4.332 11.829 3.654 15.805-2.952 31.745-5.913 47.034-10.767 39.701-12.602 76.846-30.37 108.55-58.1 9.117-7.975 15.671-17.496 18.228-29.88.748-3.105 1.24-5.932 2.021-8.956 2.84-2.836 3.727-5.317.032-7.865-.772-.532-.878-2.031-1.29-3.084"/><path fill="#edb072" d="M238.98 34.167c7.698-1.31 17.604 7.635 20.155 13.582 4.874 11.362 4.52 23.027 1.583 34.308-3.269 12.556-7.352 25.132-12.987 36.777-6.272 12.962-14.676 24.894-22.18 37.258-9.036 14.888-21.1 27.206-33.348 39.389-11.696 11.633-24.679 21.583-39.657 28.431-10.475 4.789-21.182 8.039-33.317 3.423-10.24-3.896-13.669-11.635-16.17-20.748-.597-2.17-.693-4.479-.67-6.923 1.039 1.609 1.728 3.416 2.415 5.224 2.105 5.542 5.094 10.266 11.553 12.186 9.596 5.27 17.735 4.58 26.606-2.079 20.06-15.057 38.399-31.795 54.534-50.958 18.352-21.796 35.114-44.665 46.89-70.817 5.654-12.56 8.469-25.548 5.552-39.73-.647-3.4-1.306-6.402-1.958-9.828.567-4.318-.833-6.618-4.972-7.254-1.424-.219-2.69-1.465-4.028-2.241"/><path fill="#ecb072" d="M321.05 86.913c13.984-.318 22.631 6.5 28.055 20.607 7.142 18.576 8.163 37.95 6.574 57.198-1.439 17.438-4.568 34.927-8.919 51.888-5.926 23.102-15.135 45.18-28.317 65.207-6.536 9.93-14.328 19.29-25.1 24.995-16.84 8.919-31.71 4.983-40.052-13.324 1.217.64 2.283 1.453 3 2.504 3.313 4.85 7.685 7.517 14.172 7.016 12.01 1.566 19.674-2.729 25.68-13.226 10.867-18.996 20.788-38.37 27.857-59.036 10.902-31.869 19.907-64.2 19.01-98.39-.3-11.412-3.294-21.966-10.053-31.679-1.374-2.448-2.679-4.559-4.13-6.985-.568-4.975-5.218-4.64-7.777-6.775"/><path fill="#f9c365" d="M221.895 235.564c.556 1.372.662 2.87 1.434 3.403 3.695 2.548 2.809 5.03-.32 7.69-5.311-2.931-9.72-6.777-14.85-8.654-10.482-3.835-21.47-3.446-32.526-2.188-21.736 2.473-42.625 8.01-61.772 18.468-15.415 8.42-30.5 17.685-44.713 27.98-9.994 7.24-18.121 17.013-27.372 25.332-8.847 7.956-12.689 17.662-11.931 29.759-.384 2.453-.613 4.548-.843 6.642-5.703-4.123-4.941-10.241-4.998-16.12a21.7 21.7 0 0 0-.56-4.766c6.835-17.032 19.16-29.604 32.916-41.244 13.377-11.318 26.634-22.842 42.326-30.741 11.002-5.538 22.685-9.807 34.273-14.073 9.827-3.617 19.822-6.95 29.977-9.46 16.995-4.199 34.01-4.096 50.488 2.706 2.954 1.22 5.56 3.278 8.471 5.266"/><path fill="#f9c364" d="M116 217c-6.102-1.846-9.091-6.57-11.196-12.112-.687-1.808-1.376-3.615-2.336-5.638-1.357-13.783 2.038-26.597 6.958-38.97 5.167-12.992 10.543-25.954 16.802-38.442 4.15-8.279 9.59-16.019 15.196-23.44 12.98-17.183 28.033-32.538 44.84-45.931 12.175-9.702 25.592-17.618 41.873-18.438 3.328-.168 6.674-.008 10.427.07 1.755.844 3.021 2.09 4.445 2.309 4.139.636 5.539 2.936 4.577 7.212-10.901-3.377-20.938-1.566-30.974 2.482-18.435 7.435-33.182 20.037-47.466 33.312-13.674 12.708-23.308 28.523-33.273 44.033-11.042 17.187-18.674 35.943-24.615 55.43-3.29 10.79-3.604 21.27 2.76 31.557.677 2.433 1.33 4.5 1.982 6.567"/><path fill="#f9c264" d="M321.034 86.943c2.575 2.105 7.225 1.77 7.348 6.748-14.352-.603-23.808 7.854-32.29 17.062-14.87 16.145-25.23 35.342-31.922 56.012-10.947 33.817-15.748 68.589-12.135 104.275 1.147 11.334 5.767 20.293 15.123 27.225l2.842 4.734c-6.024.506-10.396-2.16-13.708-7.011-.718-1.051-1.784-1.864-3.018-2.873-.328-.085-.273-.1-.368-.286-.25-.452-.45-.68-.696-.867-4.48-7.353-6.624-15.5-7.119-23.939-.687-11.73-.904-23.495-1.039-35.249-.229-19.904 2.583-39.377 8.93-58.291 6.958-20.735 15.037-40.969 27.298-59.244 8.208-12.233 18.957-21.473 32.83-26.841.744-.288 1.422-.745 2.594-.907 1.416.037 2.371-.141 3.326-.32 0 0 .422-.142.94-.167.715-.035.912-.045 1.11-.056 0 0-.061.024-.046-.005"/><path fill="#ecb072" d="M318.65 87.093c-.575.257-1.53.435-2.59.338.665-.322 1.437-.37 2.59-.338M252.172 292.224c.283-.074.484.153.724.632-.198.018-.48-.176-.724-.632M320.999 86.69c-.117.269-.314.279-.81.28.045-.185.386-.361.81-.28"/><path fill="#fec95e" d="M29.174 344.28c.058-2.378.287-4.473.957-7.1 1.227-1.38 2.085-2.17 2.79-3.081 11.754-15.19 25.265-28.577 40.781-39.931 17.429-12.754 36.394-22.496 56.8-29.556 29.498-10.207 59.442-15.263 90.518-8.547-2.3 12.107-8.855 21.628-17.972 29.602-31.704 27.731-68.849 45.499-108.55 58.101-15.29 4.854-31.229 7.815-47.034 10.767-3.628.678-8.172-1.756-11.829-3.654-2.512-1.304-4.221-4.156-6.461-6.6"/><path fill="#fcd886" d="M221.276 255.787c-31.332-6.438-61.276-1.382-90.774 8.825-20.406 7.06-39.371 16.802-56.8 29.556-15.516 11.354-29.027 24.74-40.782 39.931-.704.91-1.562 1.701-2.635 2.722-1.198-11.564 2.644-21.27 11.49-29.226 9.252-8.319 17.379-18.092 27.373-25.331 14.213-10.296 29.298-19.561 44.713-27.98 19.147-10.458 40.036-15.996 61.772-18.469 11.056-1.258 22.044-1.647 32.526 2.188 5.13 1.877 9.539 5.723 14.561 8.851-.204 3.002-.696 5.829-1.444 8.933"/><path fill="#fec95e" d="M116.357 217.074c-1.01-2.14-1.662-4.207-2.114-6.938 1.61-6.293 2.91-11.954 4.45-17.55 9.877-35.9 28.644-66.676 54.532-93.145 13.885-14.198 29.514-26.4 47.24-35.458 9.234-4.719 18.6-9.792 29.461-10.094 2.93 13.783.115 26.772-5.54 39.33-11.775 26.153-28.537 49.022-46.889 70.818-16.135 19.163-34.475 35.901-54.534 50.958-8.871 6.66-17.01 7.349-26.606 2.08"/><path fill="#fcd887" d="M249.939 53.49c-10.874.701-20.24 5.774-29.475 10.493-17.725 9.058-33.354 21.26-47.24 35.458-25.887 26.47-44.654 57.245-54.531 93.146-1.54 5.595-2.84 11.256-4.475 17.184-6.564-9.624-6.25-20.104-2.96-30.894 5.941-19.487 13.573-38.243 24.615-55.43 9.965-15.51 19.6-31.325 33.273-44.033 14.284-13.275 29.031-25.877 47.466-33.312 10.036-4.048 20.073-5.86 30.967-2.058 1.054 3.044 1.713 6.046 2.36 9.447"/><path fill="#fec95e" d="M270.463 303.004c-1.354-1.489-2.245-2.973-3.311-5.154-1.234-8.596-3.04-16.479-3.19-24.393-.288-15.24-.528-30.579.833-45.73 1.906-21.207 8.775-41.318 17.45-60.673 11.649-25.994 27.144-49.192 50.782-66.044 6.689 9.376 9.683 19.93 9.983 31.341.897 34.192-8.108 66.522-19.01 98.39-7.069 20.667-16.99 40.041-27.857 59.037-6.006 10.497-13.67 14.792-25.68 13.226"/><path fill="#fcd887" d="M332.957 100.673c-23.568 17.19-39.063 40.387-50.713 66.38-8.674 19.356-15.543 39.467-17.449 60.674-1.361 15.151-1.121 30.49-.833 45.73.15 7.914 1.956 15.797 3.02 24.11-9.18-6.234-13.8-15.193-14.947-26.527-3.613-35.686 1.188-70.458 12.135-104.275 6.691-20.67 17.052-39.867 31.923-56.012 8.481-9.208 17.937-17.665 32.435-16.747 1.75 2.108 3.055 4.22 4.43 6.667"/></svg>