<svg xmlns="http://www.w3.org/2000/svg" xml:space="preserve" viewBox="0 0 512 512"><path d="M336 513m65-302 1-4q15-28 11-59-4-23-25-32-23-8-46-1l-28 9q3-22-1-43l-35 13q-45 21-82 55a347 347 0 0 0-86 120q-10 26-13 53-3 24 4 47 8 27 31 44 22 13 46 16 28 1 55-5 26-7 50-21a318 318 0 0 0 115-98q32-42 47-92l-13-2z"/><path fill="#EDDDB2" d="m401 212 31-1 13 2q-15 51-47 92a357 357 0 0 1-115 98q-24 13-50 21-27 6-55 5-25-3-46-16a80 80 0 0 1-31-44q-6-23-4-47 3-27 13-53a306 306 0 0 1 86-120q37-34 82-55l35-13q4 21 1 44l-10 6 2-37-7 3h-4l-36 18q-28 16-52 37-19 18-37 38-26 36-38 79-9 32-4 63 5 33 33 53 24 15 52 15 32-1 62-12 31-11 58-30 28-22 50-50 24-28 39-63l7-18 1-1 1-4h-36z"/><path fill="#B1CB55" d="m401 212-6 10-1 1-9 12 5-11q13-26 10-54c-3-21-18-38-39-43q-26-5-50 5l-24 11 17-12 10-6 28-10q23-7 46 1 21 9 25 32 4 31-11 59z"/><path fill="#FBF6CE" d="m429 227-7 18q-15 35-39 63-22 28-50 50a232 232 0 0 1-120 42q-28 0-52-15a77 77 0 0 1-33-53q-5-31 4-63 12-43 38-79 18-20 37-38 24-21 52-37l36-18h4l-4 6a419 419 0 0 0-87 161l-4 15-2 2-10 44-1 10 16-3 40-11 37-12q56-19 104-51z"/><path fill="#CCA45D" d="m204 279 4-15q15-50 41-96a419 419 0 0 1 50-71l1-1 6-2-2 37-17 12q-12 7-19 15-14 25-25 51l-27 78zm225-52-41 31a430 430 0 0 1-142 63l-7-12q59-15 112-42a62 62 0 0 0 31-27l1-1 2-4 10-13h36l-1 4z"/><path fill="#92B242" d="M381 242q-11 17-30 25-53 27-112 42l-22-22q11-39 26-78 11-26 25-51 7-8 19-15l24-11q24-10 50-5c21 5 36 22 39 43q3 28-10 54l-5 11-2 4-1 1z"/><path fill="#ED937A" d="m216 287 23 22 7 12-39 11-16 3 1-10 10-44 2-2z"/><path fill="#B1CB55" d="m383 239 2-4zm-2 3 1-2zm1-2"/></svg>