<svg xmlns="http://www.w3.org/2000/svg" xml:space="preserve" viewBox="0 0 400 400"><path d="M102.212 133.967c9.223-3.328 15.552-9.659 18.547-18.922 3.45-10.674-3.85-19.693-14.975-18.878-1.646.12-3.335.392-4.89.928-8.33 2.877-14.283 8.358-17.609 16.569-2.302 5.682-3.101 11.395 1.13 16.538 4.573 5.556 10.734 5.228 17.797 3.765m99.477 7.285c8.282-9.226 10.565-22.572 5.467-31.96-5.157-9.5-15.072-10.54-22.076-2.317-6.675 7.836-8.101 20.437-3.353 29.628 4.402 8.52 11.196 10.314 19.962 4.65M62.732 245.298c-6.9 10.539-2.766 19.657 9.741 19.935 11.165.248 20.894-4.17 27.422-13.623 6.208-8.991 2-17.354-8.872-18.313-11.227-.99-20.534 2.82-28.291 12m156.935-53.954c-1.2-5.128-1.662-10.588-3.776-15.307-3.165-7.067-11.186-8.345-16.683-3.437-8.95 7.992-9.383 26.637-.813 35.084 5.108 5.034 11.981 4.853 15.74-1.264 2.615-4.252 3.722-9.431 5.532-15.076m47.066 48.059c3.796-1.022 7.947-1.385 11.319-3.197 7.9-4.246 10.896-12.248 7.986-19.29-2.9-7.017-11.328-10.476-19.814-8.132-8.683 2.398-14.136 8.856-14.008 16.588.12 7.235 4.857 12.048 14.517 14.031M131.156 207.52c9.203.956 16.74-2.44 22.405-9.459 6.13-7.595 2.751-17.022-6.546-18.746-6.607-1.225-13.068-.164-18.608 3.706-5.079 3.547-8.846 8.225-7.873 15.057.799 5.61 4.86 7.97 10.622 9.442m121.325-35.296c7.992 3.508 16.757.659 22.102-7.182 4.06-5.959 4.365-13.807.682-17.61-4.14-4.273-11.795-4.816-17.862-.26-3.429 2.576-6.434 6.275-8.4 10.1-2.635 5.131-1.613 10.36 3.478 14.952m-85.135 87.697c6.914-7.394 8.982-15.849 5.533-22.62-2.474-4.856-6.529-6.252-11.131-3.833-6.746 3.545-11.174 15.525-8.358 22.613 2.619 6.595 7.108 8.039 13.956 3.84m102.822 24.472c-2.024-3.184-3.588-6.818-6.173-9.448-4.283-4.359-8.996-3.045-11.338 2.585-3.412 8.2.54 21.158 7.9 25.898 4.595 2.96 9.585 1.61 10.438-3.69.76-4.716-.31-9.727-.827-15.345M290.12 75.71c-4.018-6.882-10.128-7.97-16.072-2.862-5.252 4.513-7.098 13.071-4.124 19.114 2.883 5.853 8.994 7.233 14.127 3.207 6.19-4.855 7.86-11.227 6.069-19.459m28.634 122.35c-1.75 1.918-4.033 3.571-5.14 5.807-2.267 4.584-.464 10.715 3.624 13.331 3.756 2.404 7.625 2.195 11.036-.766 3.351-2.91 4.382-8.761 2.517-12.895-2.11-4.68-5.708-6.5-12.037-5.476M179.308 284.52c-2.5 1.24-5.372 2.06-7.387 3.848-1.65 1.462-3.526 4.44-3.043 6.083.593 2.021 3.318 4.33 5.494 4.803 6.789 1.475 12.834-.722 17.45-5.967 3.077-3.495 1.74-7.77-2.812-8.727-2.846-.598-5.907-.172-9.702-.04m49.272-33.536c-.721-3.476-.87-7.235-2.392-10.316-.834-1.69-4.136-3.28-6.046-3.001-1.858.27-4.095 2.708-4.838 4.691-.994 2.658-1.256 5.873-.841 8.704.561 3.829 2.154 7.466 7.023 7.642 4.742.171 6.075-3.168 7.094-7.72m-110.953 47.873c-2.355-.562-5.796-2.336-6.822-1.416-1.723 1.544-3.07 5.125-2.476 7.266.96 3.462 3.125 6.95 5.693 9.512 2.981 2.975 7.078 1.489 7.106-2.684.027-4.036-1.93-8.084-3.5-12.678M167.482 70.64c-2.035 1.348-4.407 2.38-6.028 4.115-2.652 2.836-1.424 5.135 1.92 6.441 4.322 1.689 11.691-.4 14.56-4.055 2.32-2.955 1.43-6.031-2.254-6.703-2.39-.436-4.932-.037-8.198.202"/><path fill="#242321" d="M101.819 134.083c-6.67 1.347-12.831 1.675-17.403-3.881-4.232-5.143-3.433-10.856-1.131-16.538 3.326-8.21 9.278-13.692 17.61-16.569 1.554-.536 3.243-.807 4.889-.928 11.125-.815 18.426 8.204 14.975 18.878-2.995 9.263-9.324 15.594-18.94 19.038M201.417 141.49c-8.494 5.427-15.288 3.633-19.69-4.887-4.748-9.19-3.322-21.792 3.353-29.628 7.004-8.224 16.919-7.183 22.076 2.317 5.098 9.388 2.815 22.734-5.74 32.199M62.957 245.017c7.532-8.899 16.839-12.71 28.066-11.72 10.873.96 15.08 9.323 8.872 18.314-6.528 9.453-16.257 13.871-27.422 13.623-12.507-.278-16.64-9.396-9.516-20.217M219.652 191.784c-1.795 5.205-2.902 10.384-5.516 14.636-3.76 6.117-10.633 6.298-15.741 1.264-8.57-8.447-8.138-27.092.813-35.084 5.497-4.908 13.518-3.63 16.683 3.437 2.114 4.719 2.575 10.179 3.761 15.747M266.338 239.36c-9.265-1.94-14.002-6.753-14.122-13.988-.128-7.732 5.325-14.19 14.008-16.588 8.486-2.344 16.915 1.115 19.814 8.133 2.91 7.041-.085 15.043-7.986 19.289-3.372 1.812-7.523 2.175-11.714 3.154M130.758 207.435c-5.365-1.387-9.425-3.747-10.224-9.357-.973-6.832 2.794-11.51 7.873-15.057 5.54-3.87 12.001-4.93 18.608-3.706 9.297 1.724 12.676 11.151 6.546 18.746-5.665 7.019-13.202 10.415-22.803 9.374M252.178 171.996c-4.788-4.365-5.81-9.593-3.175-14.724 1.966-3.825 4.971-7.524 8.4-10.1 6.067-4.556 13.723-4.013 17.862.26 3.683 3.803 3.379 11.651-.682 17.61-5.345 7.84-14.11 10.69-22.405 6.954M167.066 260.155c-6.568 3.965-11.057 2.521-13.676-4.074-2.816-7.088 1.612-19.068 8.358-22.613 4.602-2.42 8.657-1.023 11.13 3.833 3.45 6.771 1.382 15.226-5.812 22.854M270.295 284.761c.39 5.25 1.46 10.26.7 14.977-.853 5.3-5.843 6.65-10.438 3.69-7.36-4.74-11.312-17.697-7.9-25.898 2.342-5.63 7.055-6.944 11.338-2.585 2.585 2.63 4.15 6.264 6.3 9.816"/><path fill="#232221" d="M290.248 76.096c1.663 7.847-.007 14.22-6.196 19.074-5.133 4.026-11.244 2.646-14.127-3.207-2.974-6.043-1.128-14.6 4.124-19.114 5.944-5.108 12.054-4.02 16.2 3.247"/><path fill="#242321" d="M319.107 197.932c5.977-.895 9.575.926 11.685 5.606 1.865 4.134.834 9.986-2.517 12.895-3.41 2.961-7.28 3.17-11.036.766-4.088-2.616-5.89-8.747-3.623-13.331 1.106-2.236 3.389-3.89 5.491-5.936"/><path fill="#232220" d="M179.723 284.437c3.38-.05 6.441-.475 9.287.123 4.551.956 5.889 5.232 2.812 8.727-4.616 5.245-10.661 7.442-17.45 5.967-2.176-.472-4.9-2.782-5.494-4.803-.483-1.643 1.393-4.621 3.043-6.083 2.015-1.787 4.886-2.609 7.802-3.93"/><path fill="#232221" d="M228.52 251.388c-.959 4.148-2.292 7.487-7.034 7.316-4.87-.176-6.462-3.813-7.023-7.642-.415-2.83-.153-6.046.841-8.704.743-1.983 2.98-4.42 4.838-4.691 1.91-.278 5.212 1.311 6.046 3.001 1.522 3.081 1.67 6.84 2.333 10.72"/><path fill="#232220" d="M117.87 299.132c1.328 4.319 3.285 8.367 3.258 12.403-.028 4.173-4.125 5.659-7.106 2.684-2.568-2.562-4.733-6.05-5.693-9.512-.594-2.141.753-5.722 2.476-7.266 1.026-.92 4.467.854 7.065 1.691M167.879 70.532c2.87-.132 5.412-.53 7.802-.095 3.683.672 4.574 3.748 2.254 6.703-2.869 3.655-10.238 5.744-14.56 4.055-3.344-1.306-4.572-3.605-1.92-6.441 1.621-1.735 3.993-2.767 6.424-4.222"/></svg>