<svg xmlns="http://www.w3.org/2000/svg" xml:space="preserve" viewBox="0 0 740 740"><path fill="#E62441" d="M229.2 367c-1-.7-1.9-1.7-3-1.8-20.2-3-30-18.5-23.5-38.1a65 65 0 0 1 29.2-36c14.7-8.8 34.7-5.4 49 7.4q1.4 1.3 3.8 3c4.6 8 6 16 4.5 25-.7 4.6-1.6 9.6 4 13.7 7 5.1 14.8 6.6 22.8 8.2q0 12.9 6 23.5 1.6 3 2.7 6.3c-2.7 4-6.4 5.5-10.1 7.7a78 78 0 0 1-25.9 8.8q-2.3-.6-4.2-.7c-10-1-18.2-5-24.3-13.2-4.3-5.8-7.7-12-7.5-20.1-3 .9-5.2 1.7-7.5 2.3zM279 486.2c7.7 1 13.5-3.3 19.8-6.2q2-1.1 4.7-1.6a53 53 0 0 0 14 31.5c4.5 5.6 9.6 10.7 14.4 16.3q-1.9 3.2-3.6 5.7-9.6 15-27.4 15c-23.4 1-39.8-21.9-31.5-44.7 2-5.7 6.2-10.5 9.6-16m74.6 95.2q9.7-6.7 20.5-13.2A84 84 0 0 0 402 571c-1.3 5.5 2.9 8.5 5.6 12 2.7 3.4 5.9 6.3 8.6 9.6.9 1.1 1 2.8 1.8 4.3a40 40 0 0 1-61.5-5.8q-1.6-4.7-2.8-9.6M509 328.4c5.3-2 10.3-5.2 16.3-4 .1.1.4-.7.8-1.4 15 9.4 21 37.9 7.3 51-3.9-2.2-7.2-5.7-11-6.6-6.7-1.5-7-4-5.8-10.3 1.7-9-.5-18-6.5-25.7q-.8-1-1.1-3m-87 127.2c-1.4 5-5 7.7-9 10.2-8.3 5-16.8 8.3-26.8 7.4-2.4-.3-5 1.7-7.8 2.7-2-1.4-3.2-3.4-5-4.2-9.2-3.7-18.8-6.7-24.4-16.3.6-1.3 1-2.7 1.8-3.1 15.7-7.8 19.3-27 18-39.1-.4-3.6-2.5-7.3-4.7-10.2-2.4-3.1-2.5-6-1.1-9.6 6.9-.9 10.8-6 15.7-10.2 1 .4 2 1 2.2 1.6a33 33 0 0 0 37.7 21.3c2 2.1 1.7 4 .3 6.4-1.7 3-3.4 6.7-3.4 10.1a166 166 0 0 0 1.3 24.5c.4 3 3.3 5.5 5.2 8.5"/><path fill="#8AA62A" d="M244 133.9c9.6 2 19.7 3 28.8 6.4 22.6 8.5 40.5 24 56.9 41.2 8.4 8.9 16.5 18 25.5 28q.2-4.4.7-7.4 2.3-15.6 5-31c.5-2.5 2.5-4.8 4.1-8a49 49 0 0 1 12.2 21.4c3.6 12.2 6.5 24.7 9.7 37q1 3.7 2.1 8.5c0 2.7.6 4.7 0 6.4q-4.4 12.1-9 24.2-2 5.3-4.5 10.5c-5.4-2-10.2-5-15.5-6-9.2-1.7-18.6-2.3-27.6-3.5 3.8-.6 7.2-1 11.3-1.3L242 135.3zm-9.4-.2q0 .3-.5.3 0-.4.5-.3"/><path fill="#FE3253" d="M533 374c.3 1 .3 2 .9 2.8 12.9 18 2.7 54.7-19.6 64.3-9.2 5-25.1 0-30.3-9.4-8-14.4-5.2-28.3 1.2-42.7-12.7 2.5-23-.3-31.8-8.7-.3-.3-1-.2-1.5-.6a91 91 0 0 1-13.7-37c4.3-1.8 8.5-3.1 12.5-4.9q2.9-1.3 5.1-3.6c1.3-1 2-3.1 3.3-3.5 8.3-2.6 11.6-9.9 16.1-16a5 5 0 0 1 2.1-1.5c8.1 7.7 17 12.7 28.3 13 1.1 0 2.2 1.2 3.4 2.2q.4 2 1 3c6 7.6 8.3 16.7 6.6 25.7-1.2 6.3-1 8.8 5.7 10.3 4 1 7.2 4.4 10.8 6.7m-73 106c2.8.4 3.8 2.1 5.2 4.8 2.5 4.6 6.4 8.8 10.4 12.3q7.1 6 17 5c1.6-.2 3.6.6 5.1 1.4 4.2 2.2 7.5 2.5 9.5-2.7.2-.4 1.7-.3 2.7 0-.7 1.6-2.1 3-2 4.3 1 17.2-12 31.4-28.4 36.6q-2.5.7-5.4 2c-2.6.8-5 1.7-7.4 1.9-2 .2-4-1-5.8-.6-9.3 1.7-16.4-2.6-22.7-8.2-2.4-2-3.4-5.5-5.3-9-.8-3.8-1.4-6.8-1.9-10.1 11.6-8.5 20-18.3 18.3-33.7zM363 393c-12.6 1.4-24-1-33-10.9q-2-2-4.7-4-1.8-3.2-3.4-6.2-6-10.6-5.9-23.5c8.5-1.8 17.1-2.4 25.3-4.8 10-3 19.8-7.2 29.4-11.7 3.8-1.7 6.7-5.4 10.2-8.6 1.4.6 3.3 1.2 4 2.4q2.2 4.6 3.7 10.2c-1.4 1.8-3 3-3.7 4.5a64 64 0 0 0-5.7 33.9 50 50 0 0 1-.5 8.9c-5 4.2-8.8 9.3-15.7 9.8m-48 67.4c11.6 1.8 22.4-2.1 33.6-5 6 9.6 15.6 12.6 24.8 16.3 1.8.8 3 2.8 4.6 4.7l-3.6 9.6c-.9 2.6-2 5.2-2.3 7.9-1.4 9 2 16.5 7.8 23.4-6 9.2-13.9 15-24.9 15.7-8.3.5-15.2-3.5-22.6-7q-8-7.8-14.8-16c-7.2-9.1-13.6-18.8-13.6-31.6 1.5-2 2.7-4.3 4.5-5.3 4.3-2.3 7.7-8 6.5-12.7"/><path fill="#FA264E" d="M332 261.8c9.4 1 18.8 1.6 28 3.3 5.3 1 10.1 4 15.7 6.2l3.5 3a24 24 0 0 1 13.5 17.2c2 12.2-2 23.2-11.8 31.8-3.5 3.2-6.4 6.9-10.2 8.6-9.6 4.5-19.4 8.7-29.4 11.7-8.2 2.4-16.8 3-25.3 4.4-8-1.2-15.7-2.7-22.8-7.8-5.6-4.1-4.7-9.1-4-13.7 1.4-9 0-17-4.2-25.2l8-19.2c6-7 12.4-12.5 20.5-15.3q9.1-2.8 18.6-5m145.2 51.4q-9-11.4-11.1-25.3c-.3-2.4.1-4.8 0-7.2q-.4-3-1.1-6.7 1 .4 2.6 1.9 6.9-11.5 19.3-16.4c14.4-5.5 28-4.4 39.7 6a38 38 0 0 1 13.2 38.1c-1.6 8.2-6.8 13.9-13.7 19.1q-.7 1.6-1 1.8c-6-1.3-10.9 1.9-16.2 3.5-1.2-.6-2.3-1.8-3.4-1.8a41 41 0 0 1-28.3-13m-10.2 281.4c-14.7 9-29.4 10.5-44.6 2-.9-.4-2.3.2-4.1.2-1.1-1.4-1.3-3-2.2-4.2-2.7-3.3-6-6.2-8.6-9.6-2.7-3.5-6.9-6.5-5.2-12q5.4-1 10-1.9a23 23 0 0 0 19.4-23.3c-.3-6-2.4-11.8-3.3-17.7q2.4-.2 4.6.1c1.8 3.2 2.8 6.6 5.2 8.7 6.3 5.6 13.4 10 22.7 8.2 1.8-.4 3.9.8 5.8.6 2.4-.2 4.8-1.1 7.2-1.7 4.5 7 6.4 14.9 7 23.1.8 11.7-4.9 20.3-13.9 27.5m-2.4-321.9q-1.5-.8-2.8-2.5 1.4.9 2.8 2.5M287 402.5l2-7.1c8.9-2.4 17.4-4.8 25.6-9.5 3.7-2.2 7.4-3.8 10.4-7.5a21 21 0 0 1 5 3.7c9 9.9 20.4 12.3 33 11.3-1.4 3.7-1.3 6.5 1.1 9.6 2.2 3 4.3 6.6 4.7 10.2 1.3 12.2-2.3 31.3-18 39.1-.9.4-1.2 1.8-2.2 2.7-11.2 3.3-22 7.2-33.6 5-4.3-3.3-9.3-6-12.8-10-8.5-9.7-11.6-22-14.9-34.1-1-4-.2-8.6-.3-13.4m92-19.5c0-3 .4-5.8.2-8.7-.8-11.8.3-23.2 5.7-33.9q1.4-2.1 3.8-4.2c2.8.6 5.5 1 7.8 2.1 9.4 4.8 18.7 9.5 29.9 6 3.4-1.1 7.1-1 11.2-1.3 3 12.9 6.4 25.4 14.3 37a38 38 0 0 1-33.3 26 33 33 0 0 1-37.7-21.2c-.2-.7-1.3-1.2-2-1.8m55.8 76.8c8 6.2 11.4 14.7 14.2 24 2.2 15.7-6.2 25.5-17.8 34l-6.8 3-11.4 2.2a43 43 0 0 1-32.6-5.9c-6.1-6.7-9.6-14.2-8.2-23.2q.8-4 2.3-7.9 1.6-4.6 4-9.7c2.8-1.4 5.4-3.4 7.8-3.1 10 1 18.5-2.4 26.8-7.4 4-2.5 7.6-5.1 9-9.8z"/><path fill="#FE3344" d="M381 323a33 33 0 0 0 11.7-31.5c-1.3-7.2-6.1-13.4-13.1-17.2q2-2.3 3.7-4.1c4.8-5 9.2-10.5 14.5-14.8 3.7-3 8.8-4.4 13.7-6.5a58 58 0 0 1 36.4 8.3q7 5.8 14 12.7 1.4 2 2.8 3s.4.3.4.9q.8 3.9 1 6.9c.2 2.4-.2 4.8.1 7.2q2.1 13.9 10.8 25.1-1 .7-1.8 1.7c-4.5 6.1-7.8 13.4-16 16-1.4.4-2.1 2.5-3.4 3.5q-2.3 2.3-5 3.6c-4.1 1.8-8.3 3.1-13 5-4.3.6-8 .4-11.4 1.4-11.2 3.6-20.5-1-30-5.9-2.2-1.1-4.9-1.5-7.5-2.6q-2-5.3-4-10c-.7-1.2-2.6-1.8-3.9-2.7M279.3 486c-25-.5-39.6-31.8-28.7-56.6l2-5c1.4-1.9 2.7-3.1 3.8-4.5 8-9.8 18-16 30.6-17.4 0 4.8-.8 9.3.3 13.4 3.3 12 6.4 24.4 14.9 34 3.5 4 8.5 6.8 12.8 10.5 1.2 4.7-2.2 10.4-6.5 12.7-1.8 1-3 3.2-4.9 5l-4.7 2c-6.3 2.9-12.1 7.2-19.6 5.9M484 432c5.2 9 21 14 30 9.1 2.7 8 5.8 15.9 7.3 24.1a43 43 0 0 1-3.6 26.8c-1.6 3.3-4.6 6-7.4 8.6-1.3-.1-2.8-.2-3 .2-2 5.2-5.3 5-9.5 2.7a10 10 0 0 0-5.2-1.4q-9.7 1-17-5c-4-3.5-7.8-7.7-10.3-12.3-1.4-2.7-2.4-4.3-5.2-5.3-2.4-10.4 1.3-19.1 6.2-27.8 2.6-3.3 4.6-6.7 7.3-9.6 3.2-3.6 7-6.7 10.4-10.1M301.3 547.3a31 31 0 0 0 27.1-15.3l4-5.6c7.4 3.1 14.3 7 22.6 7-.3 2.6-1 4.7-1 6.8.4 13.7 7.6 22.6 19.8 28l-20.2 13a49 49 0 0 1-27.8-1 34 34 0 0 1-22.7-29q-.4-1.8-1.8-4"/><path fill="#7C9324" d="M332.4 261.6c-6.5 1.8-12.8 3.1-18.9 5.2a50 50 0 0 0-20.4 15 156 156 0 0 1-47.6-40.6c-1.3-1.7-1.4-4.4-2-6.6 2.5-.5 5.3-1.9 7.4-1.2 6.7 2 13.1 4.9 19.6 7.4 2 .8 4 1.7 6.6 1.8l-3.1-5.1a429 429 0 0 1-42.9-88.8c-2.9-7.9-2.3-11.3 2.7-14.7q.8 0 1-.2 4.1-.1 8.8-.1c-.5.8-1.4 1.5-1.6 1.7l101.7 124.9q-5.8.5-11.3 1.3m79.1-12.7q5.1-7.5 11-14.6 1.9-2.3 4.7-5l.9-1.3h-.1q2.7-1.4 5.3-2.9c9.9-6.7 19.2-14.6 31.4-16.6 4-.7 9.1-.2 12.8 1.6 6.4 3 7.4 12.2 2.3 19.2-3.4 4.4-7.8 8-12 11.8q-9.5 8-19.6 16a61 61 0 0 0-36.7-8.2"/><path fill="#9CB332" d="M411 248.8c-4.4 2.2-9.5 3.6-13.2 6.6-5.3 4.3-9.7 9.8-14.5 14.8l-4 3.8q-1.7-1-3.3-2.7 1.8-5.5 4-10.7 4.6-12 9-24.2c.6-1.7 0-3.7 0-6 2.1 2.8 2.7-.2 3.5-1.3 6.5-8.9 12.3-18.2 19.4-26.6 13.8-16.6 32.3-27.5 50.2-39.1q.8-.4 2.1-.5c2 4.1.1 7.5-1.9 10.7L443.4 203q-7.8 12-15.5 24.7.3.4-.1.3-.6.4-1 1.3-2.3 2.7-4.3 5z"/><path fill="#C7143B" d="M287 402q-18.7 3-30.6 17.9l-4 4c-26.1-6-37.5-33.3-23.5-56.7q8.4-2.3 16.3-4.2 3.3-1 7.5-2.3a31 31 0 0 0 7.5 20c6 8.3 14.3 12.3 24.3 13.3q1.9 0 4.2 1.1-.6 4-1.7 7m141.5 126q-2.5-3-4.2-7 3.5-2 6.6-3l2 9.4q-1.9.5-4.4.6M435 460l10.9-4q8-2.8 16-5.2c1.1-.3 2.5.4 4 1-4.5 8.7-8.3 17.4-5.8 27.8a53 53 0 0 1-10.9 4.1A47 47 0 0 0 435 460"/><path fill="#DA163A" d="M419 406c13.5-.2 28-11.3 33-25.6q.9-.5 1.4 0c8.8 8.3 19.1 11.1 31.8 8.6-6.4 14.4-9.2 28.3-1.2 42.7-3.5 3.8-7.2 7-10.4 10.5-2.7 3-4.7 6.3-7.5 9.3-1.7-.3-3.1-1-4.2-.7q-8 2.4-16 5.3-5.4 2-11.2 3.7-6.7-2-12.7-4.2c-1.9-3-4.8-5.6-5.2-8.5a166 166 0 0 1-1.3-24.5c0-3.4 1.7-7 3.4-10.1 1.4-2.4 1.8-4.3.1-6.5m-64 127.4c11-1 18.9-6.9 25.2-16A44 44 0 0 0 413 523q5.5-1.1 11.1-1.7l4 6.8c1.4 5.9 3.5 11.8 3.8 17.7.4 9.6-6.7 21.4-19.3 23.3q-4.8.8-10 2c-9.7.1-18.9.1-28.1-3-12.8-5.3-20-14.2-20.3-28 0-2 .6-4.1.9-6.7"/></svg>