<svg xmlns="http://www.w3.org/2000/svg" xml:space="preserve" viewBox="0 0 120 98"><path fill="#010000" d="M73 99m43-44-5-8q-4-5-6-11-4-14-16-17l-12-3c-4-6-10-4-15-4l-29 5q-14 3-20 17l-3 4q-5 0-6 5-1 7 5 11 5 1 5 7c0 8 8 18 16 21q7 1 15 5c10 6 21 4 31 2l15-4 13-11 5-5q10-4 7-14"/><path fill="#9D6B36" d="M116 55q3 10-7 14l-5 5-13 11-15 4c-10 2-21 4-31-2q-7-4-15-5c-8-3-16-13-16-21q0-6-5-7-6-4-5-11 1-5 6-5l3-4q6-14 20-17l29-5c5 0 11-2 15 4l12 3q13 3 16 17 2 6 6 11zM90 80l18-17-19-2-9 1q-12 1-24-2L12 49l6 13q3 9 11 13l15 7q12 7 26 4l4-2zm-1-24 21 3-2-6-1-3-9-18-6-7q-13-8-30-9l-25 4q-8 2-15 9l-8 12q-4 4 1 5l15 3 28 6q11 4 21 2z"/><path fill="#C88539" d="M71 86q-14 2-26-4l-15-7q-9-3-11-13l-6-13 44 11q12 3 24 2h10l1 5-8 3 1-4-18 5q-6 3-7-4l-1-3q-8 5-12-4c-8 6-14-1-21-1l6 5 10 3q9 2 17 8zM46 76l3-1-3-5H35v2l5 1z"/><path fill="#DB9549" d="M23 29q6-7 14-9l25-4q16 1 30 9l6 7 8 18-22-1-9-10q14-6 21 8 0-12-13-14l-26-3-2-1c8-7 17 2 26-2l-16-4q-7-2-13 2l-6 2q-7-1-15 2z"/><path fill="#A86E30" d="m84 49 22 2 1 3H88q-12 1-21-6-5-4-11-2l-22 1-9-3 1-1h8l16-1 3-4q-1-4-4-4l-5 1-16 6c2-9 11-4 15-12l-8 1-4-1q8-3 15-2l6-2q6-4 13-2l16 4c-9 4-18-5-26 2l2 1 26 3q13 2 13 14-7-14-21-8l-2 4q-5-11-11-6l-4-2-2 1 3 4 12 5q6 5 13 4"/><path fill="#C88539" d="m31 29 4 1 8-1c-4 8-13 3-15 12l16-6 5-1q3 1 4 4l-3 4-16 1h-8l-1 1 9 3 22-1q6-2 11 2 9 7 21 6v2l-9 1q-10 2-21-2l-28-6-15-3q-5-1-1-5l9-12z"/><path fill="#A76D2F" d="M71 86 59 75q-8-6-17-8l-10-3-6-5c7 0 13 7 21 1q4 10 12 4l1 3q0 7 7 4l18-5-1 4v1l8-4v3q-7 5-15 4l-12 2c1 6 6 6 9 8z"/><path fill="#C98539" d="M74 84c-3-2-8-2-9-8l12-2q7 1 15-4l-2 10-1 1z"/><path fill="#DA9549" d="m90 80 3-10-1-3-1-5 18 1z"/><path fill="#D79348" d="M88 56v-2h20l2 5z"/><path fill="#A96D2E" d="m46 75-6-2-5-1v-2h11l3 5z"/><path fill="#C8853A" d="M84 49q-7 1-13-4l-12-5-3-4 2-1 4 2q6-5 11 6l2-4z"/></svg>