<svg xmlns="http://www.w3.org/2000/svg" viewBox="0 0 900 440">
  <rect width="900" height="440" fill="#E3F2FD"/>
  <line x1="0" y1="220" x2="900" y2="220" stroke="#B3E5FC" stroke-width="0.8" stroke-dasharray="4,6"/>
  <line x1="450" y1="0" x2="450" y2="440" stroke="#B3E5FC" stroke-width="0.8" stroke-dasharray="4,6"/>
  <path d="M0,259L898,261L0,259Z M548,231L547,234L549,237L548,240L549,242L550,245L551,249L551,255L551,258L549,261L544,263L541,266L538,268L537,270L538,273L539,276L539,279L536,281L533,282L532,285L531,289L529,292L527,294L522,299L519,301L516,302L513,303L509,303L506,303L504,304L500,305L497,304L496,301L496,297L494,295L491,290L489,288L487,284L486,278L486,275L485,273L482,268L479,264L479,261L480,256L481,253L483,251L484,248L483,244L483,241L482,237L480,234L478,230L475,227L474,225L472,223L473,219L474,214L474,211L471,209L469,209L465,210L463,206L459,205L455,205L449,207L445,208L442,208L438,207L435,208L431,209L427,208L425,206L423,205L421,203L418,201L417,198L415,196L413,193L411,192L408,190L408,187L406,184L408,182L409,179L410,176L409,172L407,169L409,166L410,162L412,160L413,157L416,155L417,152L421,151L423,150L426,147L425,144L427,140L431,138L434,134L437,133L441,133L443,134L447,133L450,132L454,131L458,130L462,130L466,129L468,129L471,130L474,129L478,129L476,132L477,135L476,137L479,139L482,140L485,140L488,141L492,144L495,145L498,146L500,144L500,141L504,140L507,140L510,142L512,142L516,143L521,144L524,144L527,143L530,144L532,144L536,144L537,140L539,137L540,133L540,130L537,130L531,132L527,130L524,132L522,130L519,130L518,128L517,125L518,121L522,121L528,120L531,118L534,117L538,117L542,119L546,120L549,120L554,118L554,116L551,115L547,112L544,111L542,109L546,107L548,105L544,105L540,106L538,108L541,109L538,110L535,112L531,109L534,108L529,107L527,106L524,109L521,113L519,116L520,118L518,121L515,121L512,120L509,121L507,122L508,124L510,127L509,129L506,131L503,128L502,125L500,123L498,120L498,118L496,116L494,115L490,114L488,112L486,109L483,108L481,110L484,113L488,117L490,118L494,120L496,122L492,121L493,124L490,127L489,123L487,121L484,119L480,118L478,116L476,113L472,112L470,113L466,115L461,114L458,115L458,118L455,119L452,120L450,122L450,125L448,128L445,130L441,130L438,131L434,131L431,129L428,130L428,126L426,124L428,120L427,118L427,115L430,113L433,113L436,113L439,114L445,114L447,108L444,105L439,103L442,100L446,101L445,98L448,99L453,97L456,95L460,94L462,90L465,89L468,89L470,89L471,86L470,82L474,80L476,79L476,82L474,84L477,87L480,88L484,88L487,88L491,87L494,86L497,86L499,87L503,85L503,81L506,79L508,81L511,79L509,77L512,75L515,74L517,75L520,75L523,73L520,72L516,72L511,73L507,74L503,72L503,67L506,64L512,61L510,59L505,59L503,61L499,65L495,67L493,70L497,73L495,76L492,76L491,81L490,83L487,83L482,85L479,80L478,76L471,77L468,78L464,77L463,74L462,69L465,67L471,65L476,62L481,59L487,54L491,52L498,49L503,48L508,48L511,46L516,46L520,46L528,48L525,48L528,50L530,49L534,51L541,51L551,54L553,57L550,58L546,59L535,57L537,59L537,63L541,63L543,61L549,62L555,58L560,58L559,55L559,52L566,53L564,56L570,57L576,54L584,52L587,54L593,53L597,52L600,53L603,51L600,50L609,50L612,51L621,54L620,51L617,50L617,47L621,44L623,42L631,42L630,45L632,48L631,51L634,53L628,58L631,58L635,57L638,54L637,51L635,51L636,47L633,45L637,44L641,46L644,43L649,43L654,45L652,43L651,40L656,39L662,40L667,39L668,36L671,36L676,35L682,35L690,34L697,33L702,33L705,31L711,30L715,31L712,31L717,32L720,32L728,32L733,34L735,36L732,37L725,38L730,40L734,41L739,40L747,40L758,42L763,40L767,40L771,41L771,44L774,46L778,47L781,44L785,46L789,45L794,46L800,45L798,43L801,42L824,44L826,45L832,47L843,46L847,47L849,50L852,50L856,50L860,50L865,50L870,50L874,52L877,51L875,50L884,49L889,49L896,50L0,51L6,53L13,56L14,58L20,56L25,59L23,60L19,60L18,63L13,62L10,61L7,60L4,60L0,59L900,61L897,62L894,62L896,63L897,65L893,67L886,69L880,71L877,73L872,72L866,74L862,74L859,74L855,78L858,79L858,83L854,85L851,87L850,90L846,91L846,93L842,95L840,90L839,85L840,81L842,80L846,78L850,75L855,72L859,71L861,67L858,67L857,69L850,72L848,69L842,70L836,74L838,75L832,76L828,76L824,74L821,75L814,75L805,76L797,80L788,86L792,87L795,89L800,88L803,90L801,95L801,98L800,102L796,105L792,110L789,112L784,115L781,114L777,116L775,117L774,120L772,122L769,123L771,126L773,128L774,133L770,135L766,136L766,133L765,130L765,128L762,127L763,124L761,122L757,123L753,125L755,121L752,121L749,122L745,124L745,127L747,128L752,127L756,128L753,130L749,133L751,136L752,138L753,141L755,143L753,145L755,147L754,151L751,154L749,157L747,160L743,162L740,164L737,165L733,166L730,167L727,168L726,170L724,169L721,167L717,169L715,172L716,176L718,179L721,181L723,187L723,191L721,193L718,195L716,197L713,199L713,196L709,194L706,190L704,189L702,187L700,190L699,193L698,197L701,200L703,203L705,205L707,206L709,210L709,213L711,216L706,215L703,213L702,210L700,207L700,204L699,202L696,200L696,196L697,192L696,188L694,184L694,181L691,180L688,182L685,181L686,178L684,173L681,169L680,167L679,164L676,167L673,166L667,167L666,171L663,172L660,175L655,178L652,181L650,183L651,186L650,191L650,195L647,197L645,200L641,198L640,195L639,192L637,189L637,186L634,181L633,176L632,173L632,170L628,169L623,166L620,162L618,160L616,158L611,158L607,158L604,159L599,158L596,157L593,157L592,154L589,154L587,155L584,154L581,153L579,152L577,150L575,146L572,146L570,147L571,150L573,153L575,155L576,157L577,159L578,156L578,160L581,161L585,161L589,158L591,155L591,159L594,162L597,162L599,165L598,168L596,170L594,172L592,175L589,176L587,179L584,179L581,180L578,183L574,184L572,186L568,187L565,187L562,189L559,189L558,186L557,184L557,181L556,178L553,174L551,171L548,168L548,165L546,162L544,161L542,157L541,155L538,151L537,148L536,151L533,151L531,147L532,150L533,152L535,156L537,159L539,162L542,166L543,169L543,172L544,174L546,176L547,179L550,182L553,185L556,187L558,189L557,191L559,193L562,194L567,194L570,193L573,192L576,191L578,194L576,198L575,200L574,203L571,207L569,210L566,213L564,215L560,217L558,219L555,222L552,225L550,228L549,231Z M98,50L102,50L106,51L109,52L114,50L118,50L121,49L126,48L129,49L136,50L139,49L142,50L146,49L150,50L156,51L159,52L165,53L162,54L166,55L173,54L178,55L181,54L178,53L183,52L187,52L189,54L192,54L196,55L200,54L204,54L206,52L210,53L213,54L214,51L212,50L209,49L209,46L212,44L215,45L218,46L221,48L219,50L224,50L227,51L230,52L232,56L234,54L236,52L236,49L240,49L243,50L247,51L245,53L247,56L242,58L238,58L236,57L232,61L229,63L225,63L223,66L220,66L217,68L214,71L213,76L217,76L218,79L223,80L227,81L230,82L235,84L237,85L242,85L244,85L245,90L246,93L250,95L253,92L252,88L254,85L257,84L258,80L257,78L254,76L257,74L255,68L261,68L263,68L268,68L271,70L276,71L277,76L281,78L284,76L287,74L290,75L294,78L297,81L299,84L301,85L305,86L308,89L311,90L311,93L307,94L303,95L300,97L296,98L290,97L287,97L284,97L282,99L279,100L275,103L272,106L278,102L284,100L287,100L290,101L287,102L288,105L292,108L296,108L299,105L300,108L297,109L292,111L289,112L287,114L285,111L289,109L285,109L282,110L280,112L277,112L275,113L273,115L274,118L270,119L268,119L265,121L263,125L262,127L259,124L259,127L259,130L261,133L257,136L254,137L249,141L247,143L247,147L249,150L250,154L250,157L247,158L244,155L243,152L243,149L241,147L237,148L234,146L231,146L227,146L227,148L223,149L219,148L215,147L211,150L209,151L207,153L207,156L206,159L206,164L206,166L207,170L209,173L213,175L216,175L220,174L223,173L224,169L226,168L229,167L232,167L232,170L231,173L230,176L229,178L228,181L230,181L233,181L236,181L239,181L241,183L241,186L241,189L241,192L241,195L244,197L246,199L250,197L254,197L257,199L260,197L261,194L264,193L268,191L271,190L270,192L271,194L271,198L272,196L271,193L275,192L278,192L280,194L284,194L288,195L292,194L295,194L298,197L300,199L302,200L304,203L306,205L310,206L315,206L318,207L320,209L322,211L324,215L325,217L323,219L328,221L334,222L338,224L339,227L341,226L346,227L350,227L354,229L357,232L361,233L363,236L362,242L357,247L356,250L354,252L353,258L352,262L351,265L351,268L348,271L348,274L345,276L342,276L338,277L334,279L331,281L329,283L329,286L328,289L326,291L323,296L321,298L318,301L315,304L313,305L309,305L307,304L304,303L307,306L308,309L306,313L302,315L297,315L294,315L294,318L291,321L288,320L288,323L291,323L289,325L287,326L286,330L282,331L284,335L285,338L282,339L280,342L277,344L278,347L275,348L272,352L269,351L266,349L263,348L263,345L261,339L262,337L265,335L261,334L263,332L264,328L267,329L268,324L266,326L265,322L266,318L266,314L266,311L269,307L270,303L271,299L271,296L271,291L273,288L273,283L274,278L275,272L275,268L274,265L272,263L266,260L262,257L259,254L257,250L255,245L252,240L251,238L249,236L246,232L249,228L250,225L248,223L250,219L253,217L254,214L256,212L257,209L257,206L255,202L255,200L252,198L250,200L249,202L246,201L244,200L241,199L239,197L237,196L235,193L234,191L231,188L228,188L225,187L222,186L219,184L217,182L213,180L210,181L207,181L203,180L198,178L195,176L191,175L188,173L186,170L187,168L185,164L183,162L180,160L177,157L175,155L173,152L171,150L168,147L167,144L164,143L163,146L166,149L168,152L171,155L173,158L173,161L176,162L175,164L173,161L170,160L169,156L166,155L164,154L165,150L163,148L160,146L158,143L157,139L154,138L151,136L148,135L146,132L144,128L141,125L139,121L139,117L140,113L140,109L140,105L138,102L142,103L144,105L144,102L138,98L131,96L130,94L127,91L124,87L122,85L119,82L116,80L115,78L108,78L105,77L100,74L94,73L90,73L85,72L82,71L79,72L76,74L71,75L71,72L74,71L70,72L65,75L64,78L62,79L59,80L55,82L51,84L47,85L44,85L38,87L40,85L43,85L45,83L49,83L53,81L56,79L57,76L55,77L51,76L47,77L45,74L40,74L37,72L35,70L38,67L41,65L44,65L48,64L47,62L44,62L41,62L38,62L34,62L30,59L33,58L39,57L46,58L44,57L41,56L37,54L33,53L39,52L42,50L45,48L52,47L59,46L62,46L65,47L69,47L73,48L76,48L81,48L86,49L91,49L95,49L98,50Z M230,38L226,38L219,37L218,35L215,33L210,33L207,32L213,32L216,32L221,32L225,35L230,35L234,35L238,35L243,35L247,35L250,36L245,38L242,38L235,38L230,38Z M311,95L308,98L311,98L314,99L316,100L318,102L317,106L315,106L312,105L309,104L307,104L302,104L304,100L307,96L310,94Z M240,61L243,62L246,62L250,64L244,64L240,65L236,66L232,65L234,62L237,60L240,61Z M253,43L255,42L261,43L264,45L269,45L272,47L278,48L283,51L278,52L284,54L288,54L291,56L295,57L290,61L287,60L283,58L280,58L282,61L286,62L288,65L284,66L278,64L282,66L284,68L278,68L272,66L269,65L267,63L263,62L256,63L255,60L260,60L265,60L268,56L267,54L263,52L258,52L255,49L251,49L247,50L238,49L232,48L228,48L225,46L224,43L226,41L229,40L235,40L236,43L238,41L244,40L249,42L253,43Z M146,38L150,39L156,39L159,39L161,40L158,41L152,43L149,44L142,47L135,44L138,42L140,40L138,38L146,38Z M180,35L185,34L184,37L176,37L169,38L166,38L171,36L159,37L156,36L159,34L169,34L173,35L177,36L174,33L179,33L180,35Z M184,41L186,42L188,45L193,48L198,49L193,50L189,52L185,51L182,51L177,52L171,52L167,52L162,51L157,49L162,48L166,48L169,48L164,47L159,48L155,48L160,46L156,46L151,45L154,43L162,41L165,41L169,42L172,43L175,42L180,45L179,41L184,41Z M199,42L196,41L199,39L202,40L207,40L205,42L209,43L204,46L200,45L194,43L199,42Z M210,23L214,22L219,21L222,23L226,23L230,24L232,25L235,26L232,27L227,29L223,29L218,28L215,27L217,26L213,26L210,25Z M221,20L225,19L228,19L233,19L236,18L239,18L242,19L247,17L252,17L259,17L268,17L273,17L279,17L285,17L291,17L295,18L289,20L283,20L286,21L280,22L276,23L272,25L267,25L258,26L261,26L259,29L255,30L251,31L255,32L249,34L242,33L235,33L231,33L226,33L231,31L238,30L234,29L230,28L237,27L234,25L240,24L245,23L240,23L231,23L227,22L222,21Z M803,226L807,228L811,229L815,232L819,235L818,238L820,240L822,242L825,244L827,246L822,245L820,245L816,242L815,240L812,239L808,240L807,243L803,242L800,240L798,240L794,241L797,238L796,235L790,231L784,229L780,227L783,226L780,224L776,222L780,222L785,222L786,227L789,228L791,226L794,224L798,225L803,226Z M739,207L741,205L743,203L744,205L748,207L747,209L743,212L745,214L747,218L745,218L744,222L741,224L740,230L737,230L734,228L730,229L728,227L725,224L723,221L723,217L726,216L728,213L732,212L734,210L737,208L739,207Z M757,218L760,218L763,216L761,219L757,219L753,219L750,221L752,223L758,222L756,224L756,228L758,231L757,234L757,231L754,232L752,229L751,234L748,233L749,229L748,225L750,220L752,217L757,218Z M721,236L726,237L732,237L736,239L739,240L736,241L734,240L729,240L724,239L721,239L716,238L713,237L715,234L718,235L721,236Z M711,223L712,226L715,227L715,231L715,234L712,234L710,232L706,230L704,227L700,222L698,220L696,216L694,214L691,211L688,208L694,207L696,210L698,211L702,215L704,215L706,217L708,219L709,222L711,223Z M278,349L281,352L284,353L287,354L284,355L280,356L277,356L272,355L269,353L267,352L263,349L269,351L272,352L274,349L277,348Z M271,176L268,176L265,176L268,175L268,172L271,172L274,172L277,173L279,175L276,175L273,175L271,177Z M684,22L690,21L695,23L700,25L694,27L687,27L683,26L681,24L678,24L684,22Z M584,40L590,38L595,35L603,34L611,33L616,32L620,32L612,35L604,36L596,38L592,41L589,43L594,47L584,47L579,45L581,43L586,40Z M807,89L808,91L809,96L812,100L808,99L806,103L809,106L805,108L805,103L805,101L805,95L804,93L804,90L807,89Z M0,45L6,46L3,47L0,47L897,47L0,45Z M488,25L492,24L496,25L504,27L498,28L494,30L490,32L484,31L478,27L476,25L483,24L488,25Z M333,18L341,17L350,17L353,16L362,16L382,16L398,18L393,19L384,19L370,19L380,19L388,20L393,19L398,21L411,20L418,20L409,23L400,24L406,24L403,26L401,27L401,30L404,32L400,32L396,33L400,34L398,36L402,38L396,39L399,40L395,41L391,41L394,42L389,43L395,45L391,48L386,45L384,48L391,48L394,49L387,51L381,53L373,53L371,53L368,54L364,57L359,59L354,59L350,60L348,62L347,65L343,67L343,71L342,73L338,73L334,71L329,71L327,70L325,68L321,64L319,61L316,58L315,56L318,53L321,52L323,49L320,50L316,51L313,50L314,47L322,47L317,46L313,45L313,43L310,40L307,37L304,36L297,34L292,34L285,34L279,34L276,33L271,32L278,31L283,31L272,30L267,29L277,27L286,26L280,24L291,21L294,21L299,19L307,19L315,19L317,20L324,18L330,19L333,20L339,20L333,19Z M244,163L248,164L252,165L255,166L257,167L260,168L263,169L261,171L256,171L254,169L249,167L245,166L243,165L240,166L238,166L241,164L244,164Z M574,250L575,253L576,256L576,259L574,262L573,267L571,270L570,275L569,278L568,281L564,283L560,281L559,278L558,274L560,272L561,269L561,266L560,263L561,260L564,259L567,257L569,256L572,252L573,249Z M435,88L433,92L429,94L425,93L427,91L426,88L429,86L433,85L436,87Z M892,318L890,321L887,321L887,318L885,317L886,315L887,311L885,308L883,306L886,306L888,311L892,313L895,312L896,314L893,316Z M874,326L878,324L880,321L882,319L885,320L885,323L882,326L879,328L877,332L873,334L869,333L867,333L868,330L871,328L874,326Z M765,299L763,300L760,302L757,303L753,303L750,303L748,304L745,306L742,306L739,304L739,301L740,299L738,295L738,292L737,290L735,287L733,284L734,281L734,278L734,275L737,273L740,272L743,270L746,270L748,269L752,268L754,266L756,264L758,260L760,262L761,258L763,256L765,255L768,254L771,256L774,257L775,253L777,251L779,250L781,248L784,249L787,249L790,249L792,250L791,252L789,255L791,258L794,260L796,261L801,263L803,261L803,259L804,256L804,252L805,249L806,246L807,249L809,251L810,256L813,257L814,260L815,263L816,266L819,268L822,270L824,275L827,275L827,277L830,280L832,282L833,285L834,289L833,292L833,296L831,300L828,303L827,306L825,309L824,312L821,312L818,313L816,315L812,314L809,315L805,314L802,313L800,310L798,307L796,304L792,306L794,303L795,300L792,303L790,305L788,303L785,300L782,298L778,297L774,297L771,298L768,299Z M442,89L441,87L438,86L436,82L436,79L437,77L442,77L440,79L442,79L445,79L442,83L445,83L447,86L450,90L454,91L453,93L451,96L448,96L444,97L441,97L437,98L439,95L437,93L439,92L439,89L442,89Z M414,58L416,61L413,63L406,64L400,64L393,64L396,63L390,61L395,61L389,60L395,58L399,59L402,58L405,59L410,57L414,58Z M766,199L766,202L763,203L763,206L761,205L761,202L757,202L759,199L762,199L764,196L766,199Z M756,175L756,178L754,181L754,185L760,186L760,189L757,187L753,187L752,184L750,180L751,177L753,175L756,175Z M805,124L802,127L802,129L802,132L797,135L793,135L789,138L788,135L783,136L780,137L777,137L780,139L778,143L776,143L775,140L776,138L780,135L787,133L789,133L792,129L797,128L800,124L800,121L803,119L805,122Z M812,113L814,114L810,115L808,117L804,116L803,118L800,118L801,114L803,114L804,111L808,111L812,113Z M328,411L333,410L337,411L340,412L342,414L338,416L334,417L329,418L324,418L318,418L315,417L320,415L324,414L327,412Z M265,394L270,394L271,390L274,388L276,390L278,392L279,396L275,397L272,397L269,397L265,397L262,395L265,394Z M0,427L2,426L7,426L10,426L14,427L17,426L25,425L29,426L32,427L40,427L45,428L55,429L62,428L73,429L79,429L85,429L92,428L83,427L75,426L66,425L67,422L64,420L58,418L64,418L70,418L73,419L78,418L82,417L80,415L76,414L71,414L67,414L62,413L57,412L54,408L58,409L62,409L66,408L72,409L75,409L78,408L81,407L85,407L84,404L88,404L93,404L96,404L99,403L103,403L106,403L109,402L112,402L116,402L119,402L123,402L126,402L129,402L133,402L136,402L140,402L144,402L147,402L151,402L153,401L156,401L159,401L162,401L165,400L168,402L172,402L175,403L178,403L181,404L185,404L188,403L192,403L195,404L198,404L197,401L194,401L192,399L196,398L199,398L202,398L205,399L209,400L212,400L216,399L219,399L221,399L225,399L227,397L232,399L235,399L240,400L243,400L246,401L249,399L252,400L255,399L258,400L263,401L265,400L268,399L271,399L274,399L278,398L280,398L282,396L280,393L279,390L281,388L281,385L283,383L287,381L290,379L292,378L296,377L300,376L304,375L307,375L303,377L301,377L297,378L294,379L295,382L291,383L288,384L286,386L288,388L292,389L294,392L296,394L297,397L298,400L295,402L292,402L289,404L285,405L282,405L279,406L276,406L269,407L265,407L261,408L257,408L261,409L264,410L259,411L255,412L258,414L262,416L267,417L271,417L275,418L280,419L286,419L292,420L296,421L301,421L303,423L307,423L312,422L316,421L321,420L326,420L332,420L338,420L343,421L348,419L354,419L359,418L364,418L369,417L375,417L379,416L376,415L371,414L366,414L361,414L361,411L365,410L369,410L373,409L376,408L381,407L385,407L390,406L394,406L397,406L400,405L403,404L406,404L411,402L410,400L414,398L417,398L419,397L422,395L427,394L431,395L436,394L439,395L442,394L446,394L448,394L452,394L455,394L458,394L460,393L463,393L466,392L469,391L474,391L477,393L480,393L484,391L487,391L490,391L493,391L495,391L498,391L501,391L504,391L506,393L509,392L512,392L515,392L518,392L520,392L523,392L527,391L530,390L533,388L537,388L540,389L543,389L547,391L549,390L552,389L555,388L560,387L564,386L569,386L572,384L577,383L579,382L584,381L589,381L593,382L595,384L600,385L604,386L608,386L612,385L617,386L622,386L624,389L621,391L622,394L620,396L625,397L628,396L630,394L633,393L635,391L639,390L642,390L644,390L646,388L650,386L654,385L657,384L659,385L664,384L667,384L670,382L672,384L677,384L682,384L685,384L689,385L694,384L699,384L702,383L707,380L711,381L715,384L720,384L723,383L726,383L729,382L732,382L736,382L739,383L742,383L746,384L750,384L752,384L756,383L760,383L763,383L768,383L772,383L777,382L779,382L782,382L787,382L789,380L792,383L796,384L800,383L805,383L811,383L814,384L817,386L819,387L822,387L825,388L829,388L831,388L834,388L838,388L842,390L845,390L848,390L852,392L857,393L860,393L862,393L865,393L868,393L871,393L874,394L876,395L876,397L874,399L870,400L865,402L862,404L860,405L859,408L861,410L867,411L863,413L859,413L854,414L852,415L851,417L853,419L856,421L859,421L863,422L867,423L872,424L881,425L883,426L890,426L896,426L900,427L0,427Z" fill="#C8E6C9" stroke="#fff" stroke-width="0.8"/>
  <circle cx="265.0" cy="120.5" r="10" fill="#4CAF50" opacity="0.2"/><circle cx="265.0" cy="120.5" r="5.5" fill="#4CAF50"/><circle cx="265.0" cy="120.5" r="2.5" fill="white"/>
  <circle cx="202.3" cy="172.6" r="10" fill="#4CAF50" opacity="0.2"/><circle cx="202.3" cy="172.6" r="5.5" fill="#4CAF50"/><circle cx="202.3" cy="172.6" r="2.5" fill="white"/>
  <circle cx="333.5" cy="277.4" r="10" fill="#4CAF50" opacity="0.2"/><circle cx="333.5" cy="277.4" r="5.5" fill="#4CAF50"/><circle cx="333.5" cy="277.4" r="2.5" fill="white"/>
  <circle cx="449.8" cy="94.1" r="10" fill="#4CAF50" opacity="0.2"/><circle cx="449.8" cy="94.1" r="5.5" fill="#4CAF50"/><circle cx="449.8" cy="94.1" r="2.5" fill="white"/>
  <circle cx="481.2" cy="117.6" r="10" fill="#4CAF50" opacity="0.2"/><circle cx="481.2" cy="117.6" r="5.5" fill="#4CAF50"/><circle cx="481.2" cy="117.6" r="2.5" fill="white"/>
  <circle cx="458.5" cy="204.1" r="10" fill="#4CAF50" opacity="0.2"/><circle cx="458.5" cy="204.1" r="5.5" fill="#4CAF50"/><circle cx="458.5" cy="204.1" r="2.5" fill="white"/>
  <circle cx="632.2" cy="173.3" r="10" fill="#4CAF50" opacity="0.2"/><circle cx="632.2" cy="173.3" r="5.5" fill="#4CAF50"/><circle cx="632.2" cy="173.3" r="2.5" fill="white"/>
  <circle cx="701.2" cy="186.3" r="10" fill="#4CAF50" opacity="0.2"/><circle cx="701.2" cy="186.3" r="5.5" fill="#4CAF50"/><circle cx="701.2" cy="186.3" r="2.5" fill="white"/>
  <circle cx="799.2" cy="132.7" r="10" fill="#4CAF50" opacity="0.2"/><circle cx="799.2" cy="132.7" r="5.5" fill="#4CAF50"/><circle cx="799.2" cy="132.7" r="2.5" fill="white"/>
  <circle cx="828.0" cy="302.9" r="10" fill="#4CAF50" opacity="0.2"/><circle cx="828.0" cy="302.9" r="5.5" fill="#4CAF50"/><circle cx="828.0" cy="302.9" r="2.5" fill="white"/>
</svg>