<svg xmlns="http://www.w3.org/2000/svg" viewBox="0 0 900 440">
  <rect width="900" height="440" fill="#E3F2FD"/>
  <line x1="0" y1="250" x2="900" y2="250" stroke="#B3E5FC" stroke-width="0.8" stroke-dasharray="4,6"/>
  <line x1="450" y1="0" x2="450" y2="440" stroke="#B3E5FC" stroke-width="0.8" stroke-dasharray="4,6"/>
  <path d="M0,304M898,306L900,304M0,304Z M548,266L547,270L549,273L548,276L548,278L549,280L550,284L551,286L551,289L551,292L551,297L551,301L550,304L549,306L546,307L544,309L541,312L538,315L537,318L538,321L538,323L539,327L539,329L538,332L536,333L533,335L532,337L532,339L531,342L531,344L529,348L527,350L525,354L522,357L521,359L519,361L516,362L513,363L509,363L506,363L504,364L502,365L499,366L497,365L496,363L495,359L496,356L494,352L493,350L491,345L489,343L488,340L487,337L487,335L486,330L486,326L485,322L483,320L482,316L482,313L479,310L479,308L479,306L479,303L480,300L481,295L483,292L484,288L483,285L483,283L482,281L483,279L482,275L482,273L481,271L480,267L478,263L475,260L474,257L472,254L473,252L473,249L474,247L474,242L474,240L474,238L472,235L469,235L465,236L463,234L463,231L461,229L457,229L455,230L453,230L449,232L445,234L443,233L440,233L435,233L431,236L427,234L425,231L423,230L421,227L419,226L418,224L417,220L416,218L414,217L413,214L411,212L409,210L408,206L407,202L408,198L409,194L410,190L409,186L409,183L407,180L408,177L409,174L410,171L411,169L413,166L414,162L416,161L417,158L421,156L423,154L426,150L425,146L426,143L428,139L431,138L433,136L434,133L435,131L439,132L441,132L443,133L447,131L450,130L451,129L454,128L458,127L462,127L466,126L468,126L471,127L474,125L475,128L478,126L477,129L477,131L477,134L475,136L477,137L479,140L482,141L485,141L488,142L489,145L492,146L495,147L498,149L500,147L500,144L502,141L507,141L509,143L512,144L516,145L519,146L521,147L524,146L527,145L530,147L532,147L536,146L537,143L537,141L539,137L540,135L540,132L539,129L537,127L535,129L531,130L529,128L527,128L524,130L522,128L519,128L518,124L516,123L517,120L515,118L518,115L522,115L523,113L528,113L531,111L534,110L538,110L542,112L546,114L549,113L551,113L554,112L554,108L551,106L547,102L544,101L542,99L546,96L548,93L546,93L544,93L540,95L537,96L538,98L541,98L538,100L535,102L534,100L531,99L534,97L529,96L527,95L526,97L524,99L522,100L521,104L519,108L520,110L522,112L519,113L516,116L515,114L512,114L509,114L511,116L508,117L507,115L507,118L508,119L509,122L510,124L508,124L507,126L508,129L504,127L503,125L503,122L501,119L500,117L498,114L499,112L497,109L494,107L490,105L488,103L487,100L485,101L484,98L481,99L481,101L484,105L485,107L488,110L490,111L492,113L494,114L496,115L492,115L491,117L493,119L492,121L490,123L490,121L489,118L487,116L485,114L482,112L480,111L478,109L476,107L476,104L472,102L470,104L466,106L461,105L458,106L457,108L455,113L452,113L450,116L449,119L450,121L449,122L448,125L446,125L445,128L441,128L439,128L437,130L434,129L434,127L431,126L429,127L428,124L428,122L426,121L426,119L428,116L428,114L428,112L428,108L430,104L433,105L436,105L439,105L441,105L445,105L447,103L447,97L444,93L443,91L439,90L439,88L442,87L446,88L445,84L448,86L453,83L454,80L456,80L458,79L462,73L465,72L467,72L470,71L472,70L471,67L470,65L470,62L471,60L474,59L476,58L476,60L477,62L474,65L475,68L477,69L480,69L484,70L487,70L491,68L494,67L497,68L499,69L503,66L503,63L503,61L504,59L506,57L508,60L510,60L511,57L509,55L512,52L515,51L517,52L520,52L523,50L520,48L516,49L511,50L507,51L506,49L503,48L504,44L503,41L504,39L506,37L512,34L513,32L510,30L505,31L503,33L503,35L499,38L495,41L493,46L495,48L497,50L495,53L492,54L491,60L490,63L487,63L485,65L482,65L482,62L479,59L478,54L476,52L471,56L468,56L464,55L463,51L462,43L465,41L471,38L476,35L481,30L487,24L491,21L498,17L503,16L508,16L511,13L516,13L520,13L528,15L525,16L528,18L530,17L534,19L541,20L551,24L553,25L553,27L550,29L546,30L535,27L537,30L537,35L541,36L543,37L541,34L543,33L549,35L551,34L549,32L555,28L558,29L560,30L561,27L559,25L560,23L559,21L566,23L567,24L564,25L566,28L570,27L570,25L576,23L584,20L584,23L587,23L589,22L593,22L597,20L600,22L603,20L600,18L609,18L612,19L621,23L623,21L620,20L617,18L617,14L621,10L623,7L631,7L630,12L632,15L631,20L634,22L633,24L628,29L631,29L635,27L638,24L636,22L637,20L635,20L636,15L633,12L637,10L637,7L639,9L638,12L641,13L640,10L644,9L649,9L654,11L652,8L651,5L656,4L662,4L667,4L665,2L668,0L671,0L676,-2L682,-3L690,-4L692,-3L697,-5L702,-5L705,-8L711,-9L715,-8L712,-7L717,-7L720,-6L728,-6L733,-4L735,-3L732,0L725,2L723,3L727,3L730,4L733,3L734,6L739,4L747,5L758,7L758,4L763,5L767,5L771,7L773,9L771,10L774,13L778,14L781,11L785,12L789,11L794,12L796,11L800,12L798,9L801,7L824,9L826,11L832,14L843,13L847,14L850,15L849,18L852,19L856,18L860,18L865,18L870,18L874,21L877,20L875,18L884,17L889,17L896,19M0,20L6,23L13,26L12,28L20,27L25,30L23,32L19,32L19,35L15,36L13,35L10,34L7,32L4,32L3,30L0,30L0,33M900,33L897,35L894,35L896,36L897,39L899,41L893,42L886,44L884,44L880,47L877,49L872,48L866,51L862,51L859,50L858,53L855,56L858,58L858,63L855,63L854,66L851,69L850,73L846,73L846,77L842,80L841,78L840,73L839,65L840,61L842,59L846,56L850,52L855,49L859,46L861,41L858,42L857,45L850,48L848,44L842,45L836,51L838,53L832,54L828,54L828,52L824,51L821,53L814,52L805,53L797,60L788,68L792,68L793,70L795,71L797,69L800,69L803,73L803,76L801,79L801,83L800,89L796,93L796,96L792,100L789,103L787,105L784,107L781,106L777,108L775,110L774,114L773,115L770,117L769,119L771,121L773,125L774,127L774,131L773,133L770,134L768,135L766,135L766,131L765,128L765,124L763,124L762,123L763,121L763,119L761,117L757,118L755,119L753,120L754,119L755,115L754,114L752,115L749,117L748,119L745,119L744,121L745,123L747,124L749,126L752,124L754,125L756,127L753,128L752,130L749,131L748,134L751,135L752,139L753,142L755,144L755,147L754,150L755,153L754,156L751,160L749,164L747,168L743,171L740,174L737,174L735,176L733,176L730,178L727,179L726,182L724,180L721,178L717,181L715,184L714,186L716,190L718,194L721,196L722,199L723,205L723,211L721,213L718,215L716,218L713,221L712,219L713,217L711,215L709,215L708,213L706,209L704,208L702,208L702,205L700,205L700,209L699,214L698,217L698,219L701,222L701,225L703,227L705,229L707,232L708,234L709,236L709,239L710,242L711,245L709,246L706,243L703,241L702,237L701,234L700,232L701,230L699,227L697,224L695,222L696,220L696,217L696,214L697,212L696,210L696,206L695,205L694,201L694,196L693,194L691,195L688,198L685,197L686,192L686,189L684,185L683,184L681,181L680,178L679,174L676,174L676,177L674,177L671,178L667,178L668,181L666,183L663,185L660,189L658,191L655,193L654,196L652,197L650,200L651,204L651,207L650,210L650,215L647,218L646,220L645,222L641,220L640,216L639,212L637,208L637,203L636,201L634,197L633,190L632,186L632,182L632,179L628,181L623,176L623,174L620,171L619,170L618,168L616,165L611,166L607,166L604,166L599,165L596,165L593,164L592,160L589,160L587,162L584,161L581,158L579,157L577,154L575,150L572,149L570,150L570,152L571,155L572,158L574,160L575,161L575,164L576,166L577,167L577,165L578,163L579,166L578,168L579,170L581,169L584,169L587,167L589,165L590,163L591,167L592,169L595,171L598,173L600,175L599,178L597,180L596,182L594,184L594,186L592,188L591,190L588,191L587,194L584,194L581,195L580,198L578,199L574,201L572,203L568,205L565,206L563,207L560,208L558,206L558,203L557,201L557,198L557,196L556,193L554,191L553,188L552,185L551,183L548,179L548,177L546,171L544,169L543,167L542,165L541,161L539,159L538,156L537,155L537,152L536,156L535,158L533,155L531,150L532,154L533,158L535,163L536,165L537,167L539,170L539,173L542,176L543,180L543,184L544,188L546,190L547,194L548,197L550,199L553,202L554,204L556,206L558,208L558,210L559,212L560,215L564,214L567,214L569,213L571,212L573,212L576,211L578,210L578,213L577,216L576,219L575,223L574,227L571,232L569,236L566,240L564,243L560,246L558,249L555,253L554,256L552,257L551,259L550,261L549,264Z M98,18L102,18L106,20L109,20L111,19L114,18L118,18L121,17L126,16L127,17L129,17L131,15L136,18L139,16L139,19L142,18L146,17L150,19L156,20L159,21L162,20L165,22L162,24L166,24L173,24L175,23L178,25L181,24L178,22L183,21L185,21L187,21L189,23L192,23L196,25L200,24L204,24L204,22L206,21L210,23L210,26L211,23L213,23L214,20L212,18L209,16L209,13L212,10L215,11L218,12L221,16L219,18L224,18L224,22L227,19L230,21L229,24L232,26L234,24L236,21L236,17L240,17L243,18L247,19L245,23L247,25L242,29L238,29L236,28L232,33L229,36L225,37L223,38L223,40L220,41L217,43L214,47L213,50L213,54L217,54L218,57L219,60L223,59L227,60L230,62L232,63L235,64L237,66L242,66L244,66L244,69L245,72L246,76L250,79L252,78L253,75L252,70L250,68L254,66L257,64L259,62L258,59L257,56L254,54L257,50L256,47L255,42L261,42L263,43L265,42L268,43L271,45L276,46L276,49L277,53L279,54L281,56L284,54L287,50L289,49L290,52L294,56L297,60L295,62L299,64L301,66L305,67L308,71L311,72L311,76L309,77L307,79L303,80L300,83L296,83L290,82L287,82L284,83L282,85L279,86L275,91L272,94L274,93L278,89L284,86L287,86L290,88L287,90L288,93L289,96L292,98L296,97L299,93L299,96L300,97L297,99L292,101L289,102L287,105L285,102L289,99L285,99L282,100L280,102L277,103L275,104L273,106L273,109L275,111L272,112L269,112L266,114L269,113L267,115L264,115L265,118L263,120L261,118L262,121L262,123L260,126L261,124L259,120L259,123L259,127L261,131L259,134L257,135L255,137L252,138L249,142L248,143L247,145L246,148L247,150L248,153L249,155L250,160L250,163L249,166L247,165L244,161L243,158L243,155L241,150L237,151L236,149L231,149L229,149L226,149L226,152L225,153L221,151L219,151L215,151L213,152L211,154L209,156L207,157L207,161L207,164L206,167L206,169L206,174L206,177L207,181L209,184L210,187L213,188L216,189L220,188L223,186L224,184L224,181L226,179L229,178L231,178L233,179L232,182L231,185L231,187L230,189L229,191L229,193L229,196L230,198L233,197L235,197L237,197L239,197L241,199L242,200L242,202L241,205L241,207L241,210L240,213L241,215L244,218L244,220L246,221L249,220L251,218L254,219L256,220L258,221L260,219L261,215L263,213L266,213L268,211L271,209L272,211L271,213L270,217L271,220L272,217L271,213L275,212L275,209L276,212L279,214L282,215L284,215L286,216L289,215L292,214L295,214L293,215L296,217L298,219L298,221L301,222L302,223L304,226L305,227L306,229L310,231L312,230L315,231L318,232L320,235L322,238L324,244L325,247L323,249L328,251L329,254L330,252L334,253L338,255L339,257L341,258L346,260L350,260L354,262L357,266L359,267L361,267L363,272L363,274L362,280L361,282L357,287L356,291L354,293L353,296L353,302L352,307L352,310L351,315L348,320L348,323L346,325L345,327L342,327L338,328L337,329L334,330L331,333L329,336L328,339L328,344L326,347L323,353L321,356L319,357L318,361L317,363L315,365L313,367L309,366L307,365L304,363L307,368L307,370L308,371L306,377L302,379L297,380L294,379L295,381L294,384L293,387L291,387L288,386L288,390L291,390L289,393L287,395L287,398L284,400L282,402L281,404L284,407L286,407L285,410L282,412L280,416L278,418L278,423L280,425L276,424L273,426L272,429L269,428L266,426L263,424L262,422L263,420L261,418L261,412L262,409L265,406L261,405L263,403L264,397L267,398L268,391L266,395L265,389L266,383L267,381L266,378L266,374L269,368L270,363L271,358L271,353L272,350L271,346L273,342L273,336L274,329L275,321L275,316L274,311L272,309L266,305L262,301L260,299L259,296L257,291L255,285L252,278L251,274L249,272L247,270L246,266L247,263L249,261L251,259L248,257L248,254L249,251L250,249L251,247L253,245L253,242L255,241L256,239L256,236L256,231L256,228L255,226L254,223L253,221L251,220L250,222L250,225L248,226L247,224L245,223L243,223L241,221L240,219L238,218L236,217L236,214L235,212L233,210L231,207L229,206L227,205L225,204L222,204L219,202L217,198L213,196L210,197L207,197L203,195L198,193L196,191L194,190L191,189L188,186L186,184L186,181L187,179L186,176L183,171L180,168L179,166L177,165L177,162L174,159L173,157L171,155L169,153L168,150L167,147L165,145L163,144L163,147L163,149L166,153L167,155L168,157L169,159L171,161L172,164L173,167L175,169L176,172L175,174L174,172L173,170L171,168L170,165L168,162L166,161L164,160L162,158L165,156L163,152L160,149L159,147L158,145L157,142L155,138L152,136L149,135L148,133L146,129L144,125L143,123L141,120L140,117L139,116L140,113L139,110L139,107L140,104L140,101L140,98L140,94L139,91L139,89L142,90L144,93L144,89L143,87L138,83L136,82L131,81L130,78L130,76L127,74L127,71L124,69L122,66L120,65L119,62L116,59L115,56L112,56L108,56L105,55L100,52L98,51L94,50L90,50L85,48L82,47L79,48L80,50L76,51L73,52L71,53L71,48L74,47L70,48L69,50L65,52L67,54L64,56L62,58L59,59L55,62L51,65L47,65L44,67L42,68L38,69L40,67L43,66L45,64L49,63L53,60L56,58L56,56L57,54L55,55L52,55L51,54L47,54L45,52L44,50L40,51L38,49L37,46L35,45L36,43L38,41L41,39L44,38L48,37L46,35L48,34L44,35L41,35L38,35L34,34L30,31L33,30L39,28L41,28L46,30L44,28L41,26L39,25L37,23L33,22L34,20L39,20L42,19L45,16L48,15L52,14L55,14L59,12L62,13L64,14L69,14L73,15L76,15L81,16L86,16L91,16L95,17L98,18Z M230,2L226,2L219,1L218,-1L215,-4L210,-5L207,-6L213,-7L216,-6L221,-6L223,-5L225,-3L230,-2L234,-2L238,-2L243,-3L247,-2L250,-1L249,1L245,2L242,1L235,2L230,2Z M311,79L310,81L308,84L311,84L313,86L316,86L316,88L318,89L318,92L317,94L315,94L315,91L312,94L309,91L307,91L302,91L303,89L304,86L307,81L308,79L310,78Z M240,33L243,34L246,35L248,36L250,38L248,39L244,38L242,36L240,38L236,40L235,38L232,38L234,37L234,34L235,31L238,33L240,33Z M253,9L255,7L261,9L264,11L269,11L272,14L278,15L280,16L283,19L278,21L284,23L288,24L291,27L295,27L295,29L290,33L287,32L283,29L280,29L282,33L286,35L288,39L287,41L284,40L278,38L282,40L284,42L278,42L272,40L269,39L267,36L263,34L256,36L254,35L255,32L260,32L265,32L265,29L268,26L267,23L263,21L258,20L257,17L255,17L253,16L247,18L238,17L232,16L228,15L226,14L229,13L225,13L224,9L226,6L229,5L235,4L234,6L236,8L238,6L244,4L249,8L248,10L253,9Z M214,3L219,3L224,4L220,7L217,7L214,10L211,10L210,7L211,4L214,3Z M143,-4L147,-6L152,-8L156,-8L159,-9L159,-6L157,-5L155,-5L150,-4L146,-3L143,-4Z M186,-14L191,-14L198,-13L200,-11L197,-10L193,-11L187,-11L189,-12L186,-13Z M141,88L136,87L133,85L130,83L129,82L132,81L136,82L138,85L140,86L141,88Z M146,2L150,3L156,3L159,4L161,5L158,6L152,8L149,11L142,14L135,10L138,7L140,4L138,2L146,2Z M180,-3L183,-3L185,-3L184,0L176,0L169,2L166,2L171,-1L159,0L156,-1L159,-4L161,-5L169,-4L173,-2L177,-2L174,-5L176,-6L179,-6L180,-3Z M184,6L186,8L188,11L189,13L193,15L198,17L193,18L195,20L189,20L185,19L182,20L177,21L171,21L167,22L165,20L162,19L160,19L157,17L162,16L166,16L169,15L164,15L159,15L155,15L160,12L156,12L151,11L154,9L155,8L162,6L165,6L163,8L169,7L172,8L175,7L177,8L180,11L179,6L181,6L184,6Z M199,8L196,5L199,4L202,5L207,4L205,7L209,8L208,11L204,12L202,12L200,11L194,8L199,8Z M204,-6L206,-4L205,0L200,0L198,0L194,-2L194,-4L196,-4L200,-5L204,-5Z M210,-19L212,-20L214,-20L219,-21L222,-19L226,-18L230,-18L232,-16L235,-14L232,-13L227,-11L223,-11L218,-11L215,-13L217,-15L213,-15L210,-16L208,-17L210,-19Z M221,-23L225,-24L228,-24L233,-24L236,-26L239,-25L242,-24L244,-26L247,-27L252,-27L259,-27L268,-27L273,-27L279,-27L285,-27L291,-26L295,-25L289,-23L283,-22L281,-22L286,-22L280,-20L276,-19L272,-16L267,-15L258,-14L261,-14L262,-12L259,-11L255,-10L251,-7L255,-7L249,-4L242,-5L235,-4L231,-5L226,-5L231,-7L229,-10L238,-8L234,-11L230,-11L232,-13L237,-13L234,-16L233,-18L240,-17L241,-17L245,-18L240,-19L231,-18L227,-20L224,-21L222,-22Z M803,259L807,261L811,263L813,265L815,266L815,268L819,270L817,272L818,275L820,277L822,280L825,282L827,284L825,286L822,284L820,284L818,282L816,280L815,277L812,275L810,276L809,280L807,281L803,280L800,278L798,277L794,278L795,275L796,271L795,268L790,265L788,265L784,262L782,264L782,261L780,259L783,258L781,257L780,255L777,255L780,252L785,253L786,259L789,261L791,258L794,256L796,256L798,257L800,258L803,259Z M828,269L826,271L822,270L821,268L823,269L825,267L827,268L829,266L830,264L831,266L830,268L828,269Z M763,281L761,284L759,285L760,281L762,280L765,278L767,278L765,280L763,281Z M739,232L741,230L742,227L744,229L746,231L748,232L746,233L745,236L743,239L745,242L747,247L745,247L744,250L744,253L741,255L741,258L740,263L737,264L736,262L733,260L730,262L728,260L726,260L725,255L723,252L722,249L723,246L724,243L726,244L728,244L728,241L732,240L734,237L736,235L739,232Z M757,247L760,247L763,245L761,249L757,249L753,249L750,249L750,252L752,255L754,253L758,252L756,255L754,256L756,261L758,266L758,268L756,268L757,265L754,266L754,264L752,262L752,259L751,264L751,268L748,268L749,265L749,262L747,259L748,257L748,255L750,249L752,246L754,247L757,247Z M721,271L726,273L732,273L732,275L736,276L739,278L736,279L734,278L731,278L729,278L726,277L724,276L721,276L716,275L713,273L715,270L718,270L720,271Z M711,254L711,256L712,258L715,260L715,264L715,270L712,270L710,267L706,264L705,262L704,259L702,257L700,252L698,249L697,247L696,244L694,242L693,239L691,237L688,233L690,232L694,233L696,236L698,238L702,243L704,243L706,245L708,248L710,250L709,252L711,254Z M278,425L281,429L284,432L287,432L286,434L284,434L282,434L280,435L277,435L275,434L272,434L269,432L267,430L263,426L265,427L269,429L272,430L274,426L277,425Z M271,190L268,190L265,190L264,188L266,188L269,188L268,185L271,184L273,184L275,185L277,186L279,188L277,189L275,189L272,189L271,191Z M684,-20L690,-21L695,-19L700,-16L700,-13L694,-13L687,-13L683,-15L681,-17L678,-18L684,-20Z M707,-14L713,-12L699,-10L703,-14L705,-14Z M797,-4L804,-4L813,-2L811,1L802,1L797,1L792,-1L794,-3L797,-4Z M584,4L590,1L595,-2L603,-4L611,-5L616,-6L620,-6L622,-5L612,-2L604,-1L596,2L592,6L589,9L589,12L594,14L584,14L579,12L581,9L586,5L584,4Z M807,71L808,74L808,77L809,81L812,87L808,86L806,90L809,94L809,96L807,94L805,97L805,94L805,91L805,87L805,85L805,80L804,77L804,72L807,71L807,69L807,71Z M0,12L2,11L6,12L3,14L0,14M897,14M0,12Z M488,-16L492,-17L496,-16L504,-13L498,-12L496,-9L494,-9L493,-6L490,-6L484,-8L487,-9L483,-10L478,-13L476,-16L483,-17L488,-16Z M519,-17L515,-15L508,-15L500,-15L496,-16L493,-18L501,-19L505,-18L507,-19L514,-18L519,-17Z M333,-25L341,-27L350,-27L353,-28L362,-29L382,-28L398,-26L393,-24L384,-24L370,-24L380,-24L388,-23L393,-24L395,-22L392,-21L398,-22L411,-23L418,-22L419,-21L409,-19L400,-17L406,-17L403,-15L401,-13L401,-9L404,-7L400,-6L396,-5L400,-4L401,-1L398,-1L402,2L396,3L399,4L395,6L391,6L394,8L389,8L391,10L395,12L396,14L391,15L389,14L386,12L387,14L384,16L391,16L394,16L387,19L381,22L373,23L371,23L368,24L364,28L359,30L354,31L350,32L348,34L348,36L347,38L343,41L344,44L343,46L342,50L338,50L334,47L329,47L327,45L325,42L321,38L320,36L319,33L316,30L317,27L315,26L318,22L321,21L323,17L320,18L316,19L313,18L313,16L314,14L316,14L322,15L317,13L315,12L313,12L310,11L313,8L310,4L307,1L304,0L297,-4L292,-4L285,-4L279,-4L276,-5L271,-7L278,-8L283,-8L272,-9L267,-10L277,-13L286,-15L280,-17L282,-18L291,-21L294,-21L299,-23L307,-24L315,-24L317,-23L324,-25L330,-24L333,-23L339,-22L333,-24Z M244,173L246,173L251,174L254,175L257,178L259,179L261,180L265,182L263,184L259,183L256,184L257,182L255,181L253,178L249,177L245,176L243,174L241,176L239,177L239,175L242,173L244,173Z M574,292L575,295L576,299L576,302L575,305L574,307L574,310L573,314L571,318L570,325L569,329L568,333L566,334L564,335L560,333L559,329L558,326L558,324L559,321L560,319L561,317L561,315L560,311L560,308L561,306L561,304L564,303L566,303L567,301L569,299L570,296L572,294L572,292Z M435,70L435,73L433,76L429,78L425,77L427,74L426,70L429,68L431,66L433,66L436,68L435,70Z M892,384L891,385L890,388L888,389L887,388L888,385L887,383L885,382L886,379L887,377L887,375L886,372L885,370L883,367L882,365L884,367L886,368L887,371L888,374L888,372L890,375L892,376L895,375L896,379L895,381L892,381L892,384Z M874,395L876,393L878,392L879,389L880,387L882,385L883,388L885,386L886,389L883,393L883,396L879,397L878,400L877,403L875,405L871,405L867,404L868,400L871,397L874,395Z M819,386L821,390L820,394L817,395L815,395L814,392L813,390L812,387L813,386L816,387L819,386Z M765,357L763,359L761,360L759,363L757,363L753,363L750,363L748,365L746,366L743,367L739,365L738,362L739,361L740,357L738,352L738,348L737,346L735,344L735,341L734,338L734,335L736,338L734,333L733,331L734,329L734,325L735,323L736,325L737,323L739,322L742,319L746,318L747,317L750,317L752,316L753,314L756,311L756,308L758,305L759,308L759,305L761,304L761,302L762,300L764,298L766,297L770,298L771,300L774,300L775,295L777,292L779,291L781,290L780,288L783,288L786,290L788,291L791,290L792,291L791,294L789,297L789,300L791,302L793,303L796,306L798,307L801,309L802,308L803,305L804,300L804,298L804,293L805,290L805,287L807,289L809,293L809,296L810,298L811,297L813,300L814,304L815,306L815,309L816,313L819,315L820,317L822,318L823,321L824,324L826,325L827,328L829,330L832,334L833,337L833,341L834,344L834,347L833,351L832,355L831,359L829,360L828,363L827,367L825,371L825,374L824,376L821,376L818,377L816,380L814,379L813,376L809,379L807,378L804,378L802,377L800,375L800,372L798,369L795,369L796,365L794,367L792,368L793,366L795,362L795,360L792,363L790,366L788,365L787,361L786,359L782,357L778,355L774,355L771,356L768,358L765,357Z M654,225L654,228L651,230L650,227L649,223L650,217L652,219L653,221L654,225Z M442,72L441,68L438,67L438,65L436,66L436,62L435,61L436,57L437,55L439,55L442,55L440,58L442,58L445,58L444,60L442,63L445,64L447,68L450,72L454,74L454,76L454,79L451,81L448,81L444,82L441,83L439,82L437,83L439,79L441,79L438,78L439,76L438,74L439,72L442,72Z M414,28L413,31L416,33L413,35L406,38L403,38L400,38L393,37L396,35L390,34L395,33L389,31L391,29L395,29L399,31L402,29L405,30L410,28L414,28Z M766,222L766,224L765,229L765,226L763,227L764,230L761,229L760,227L759,224L757,225L755,227L756,223L759,221L762,222L764,220L764,217L766,219L766,222Z M746,219L743,222L744,220L746,218L747,215L749,212L749,215L748,217L746,219Z M756,189L756,193L756,196L754,200L754,202L757,202L760,204L760,207L758,207L755,204L753,205L752,202L750,200L750,195L751,191L752,188L755,189Z M805,119L802,123L802,126L802,129L801,133L797,134L793,135L789,138L788,137L788,135L783,135L780,137L777,137L780,140L778,145L777,147L776,142L774,139L776,138L777,136L780,134L782,132L787,131L789,132L792,126L793,127L797,124L800,119L800,115L801,113L803,112L805,117L805,119Z M812,103L813,102L814,106L810,107L808,110L804,108L803,111L800,111L800,108L801,106L803,105L804,101L805,98L808,102L810,103Z" fill="#C8E6C9" stroke="#fff" stroke-width="0.8"/>
  <circle cx="265.0" cy="114.3" r="10" fill="#4CAF50" opacity="0.2"/><circle cx="265.0" cy="114.3" r="5.5" fill="#4CAF50"/><circle cx="265.0" cy="114.3" r="2.5" fill="white"/>
  <circle cx="202.3" cy="185.3" r="10" fill="#4CAF50" opacity="0.2"/><circle cx="202.3" cy="185.3" r="5.5" fill="#4CAF50"/><circle cx="202.3" cy="185.3" r="2.5" fill="white"/>
  <circle cx="333.5" cy="328.3" r="10" fill="#4CAF50" opacity="0.2"/><circle cx="333.5" cy="328.3" r="5.5" fill="#4CAF50"/><circle cx="333.5" cy="328.3" r="2.5" fill="white"/>
  <circle cx="449.8" cy="78.3" r="10" fill="#4CAF50" opacity="0.2"/><circle cx="449.8" cy="78.3" r="5.5" fill="#4CAF50"/><circle cx="449.8" cy="78.3" r="2.5" fill="white"/>
  <circle cx="481.2" cy="110.3" r="10" fill="#4CAF50" opacity="0.2"/><circle cx="481.2" cy="110.3" r="5.5" fill="#4CAF50"/><circle cx="481.2" cy="110.3" r="2.5" fill="white"/>
  <circle cx="458.5" cy="228.3" r="10" fill="#4CAF50" opacity="0.2"/><circle cx="458.5" cy="228.3" r="5.5" fill="#4CAF50"/><circle cx="458.5" cy="228.3" r="2.5" fill="white"/>
  <circle cx="632.2" cy="186.3" r="10" fill="#4CAF50" opacity="0.2"/><circle cx="632.2" cy="186.3" r="5.5" fill="#4CAF50"/><circle cx="632.2" cy="186.3" r="2.5" fill="white"/>
  <circle cx="701.2" cy="204.0" r="10" fill="#4CAF50" opacity="0.2"/><circle cx="701.2" cy="204.0" r="5.5" fill="#4CAF50"/><circle cx="701.2" cy="204.0" r="2.5" fill="white"/>
  <circle cx="799.2" cy="131.0" r="10" fill="#4CAF50" opacity="0.2"/><circle cx="799.2" cy="131.0" r="5.5" fill="#4CAF50"/><circle cx="799.2" cy="131.0" r="2.5" fill="white"/>
  <circle cx="828.0" cy="363.0" r="10" fill="#4CAF50" opacity="0.2"/><circle cx="828.0" cy="363.0" r="5.5" fill="#4CAF50"/><circle cx="828.0" cy="363.0" r="2.5" fill="white"/>
</svg>